<svg id="Component_3_1" data-name="Component 3 – 1" xmlns="http://www.w3.org/2000/svg" xmlns:xlink="http://www.w3.org/1999/xlink" viewBox="0 0 64.813 125.872">
  <defs>
    <linearGradient id="linear-gradient" y1="0.5" x2="0.786" y2="0.5" gradientUnits="objectBoundingBox">
      <stop offset="0" stop-color="#ff4500"/>
      <stop offset="0.129" stop-color="#ff4b07"/>
      <stop offset="0.32" stop-color="#ff5e1b"/>
      <stop offset="0.549" stop-color="#ff7d3b"/>
      <stop offset="0.805" stop-color="#ffa768"/>
      <stop offset="1" stop-color="#ffcc90"/>
    </linearGradient>
  </defs>
  <line id="Line_5" data-name="Line 5" y1="83.424" transform="translate(2.5 6.848)" fill="none" stroke="#ffcc90" stroke-width="3"/>
  <line id="Line_6" data-name="Line 6" y1="97.12" transform="translate(32.5)" fill="none" stroke="#ffcc90" stroke-width="3"/>
  <line id="Line_7" data-name="Line 7" y1="83.424" transform="translate(62.5 6.848)" fill="none" stroke="#ffcc90" stroke-width="3"/>
  <g id="Component_1_2" data-name="Component 1 – 2" transform="translate(0 64.723)">
    <path id="Path_4" data-name="Path 4" d="M290.044,616.654a2.523,2.523,0,0,1,4.5,0l8.07,16.159a2.508,2.508,0,0,0,1.89,1.355l18.046,2.591a2.5,2.5,0,0,1,2.025,1.687,2.459,2.459,0,0,1-.635,2.541l-13.057,12.579a2.464,2.464,0,0,0-.723,2.194l3.082,17.762a2.469,2.469,0,0,1-1,2.426,2.545,2.545,0,0,1-2.643.189l-16.142-8.387a2.534,2.534,0,0,0-2.335,0l-16.142,8.386a2.539,2.539,0,0,1-2.643-.188,2.467,2.467,0,0,1-1-2.426l3.082-17.762a2.46,2.46,0,0,0-.723-2.194l-13.057-12.579a2.459,2.459,0,0,1-.635-2.541,2.5,2.5,0,0,1,2.026-1.687l18.049-2.591a2.506,2.506,0,0,0,1.889-1.357Z" transform="translate(-259.884 -615.272)" fill="url(#linear-gradient)"/>
  </g>
</svg>
