<svg id="Layer_1" data-name="Layer 1" xmlns="http://www.w3.org/2000/svg" viewBox="0 0 789 520"><defs><style>.cls-1{fill:none;stroke:#212529;stroke-miterlimit:10;stroke-width:2px;}.cls-2{font-size:20px;}.cls-2,.cls-8{fill:#212529;font-family:Roboto-Regular, Roboto;}.cls-3{letter-spacing:-0.01em;}.cls-4,.cls-8{font-size:12px;}.cls-5{letter-spacing:-0.01em;}.cls-6{letter-spacing:-0.01em;}.cls-7{letter-spacing:0.02em;}.cls-9{letter-spacing:-0.01em;}.cls-10{letter-spacing:-0.04em;}.cls-11{letter-spacing:-0.02em;}.cls-12{letter-spacing:0.01em;}.cls-13{letter-spacing:-0.01em;}</style></defs><title>ResearchGoalsTable</title><rect class="cls-1" x="1" y="1" width="787" height="518"/><line class="cls-1" x1="0.5" y1="124.5" x2="786.79" y2="124.5"/><line class="cls-1" x1="0.9" y1="260.5" x2="787.19" y2="260.5"/><line class="cls-1" x1="1.71" y1="396.5" x2="788" y2="396.5"/><line class="cls-1" x1="198.5" y1="1" x2="198.5" y2="519"/><line class="cls-1" x1="395" y1="1" x2="395" y2="519"/><line class="cls-1" x1="591.5" y1="2" x2="591.5" y2="520"/><text class="cls-2" transform="translate(27 38.25)">Resea<tspan class="cls-3" x="54.7" y="0">r</tspan><tspan x="61.28" y="0">ch Goal</tspan><tspan x="0" y="24"> </tspan><tspan class="cls-4"><tspan x="0" y="38.4">What are you trying </tspan><tspan class="cls-5" x="105.59" y="38.4">t</tspan><tspan x="109.39" y="38.4">o </tspan><tspan x="0" y="52.8">learn?</tspan></tspan></text><text class="cls-2" transform="translate(231 33.25)">Questions or <tspan x="0" y="24">Hypotheses</tspan><tspan x="0" y="48"> </tspan><tspan class="cls-4"><tspan x="0" y="62.4">What questions will help </tspan><tspan x="0" y="76.8">you learn that?</tspan></tspan></text><text class="cls-2" transform="translate(428 39.25)"><tspan class="cls-6">P</tspan><tspan x="12.51" y="0">a</tspan><tspan class="cls-7" x="23.39" y="0">r</tspan><tspan x="30.64" y="0">ticipants </tspan><tspan class="cls-4"><tspan x="0" y="38.4">Who can help answer these </tspan><tspan x="0" y="52.8">questions?</tspan></tspan></text><text class="cls-2" transform="translate(630 38.25)">Method<tspan class="cls-4"><tspan x="0" y="38.4">What methods can you use </tspan><tspan class="cls-5" x="0" y="52.8">t</tspan><tspan x="3.8" y="52.8">o understand and make </tspan><tspan x="0" y="67.2">sma</tspan><tspan class="cls-7" x="23.23" y="67.2">r</tspan><tspan x="27.59" y="67.2">ter decisions?</tspan></tspan></text><text class="cls-8" transform="translate(27 153)">Understand how people <tspan x="0" y="14.4">currently connect with </tspan><tspan x="0" y="28.8">other viewers of public a</tspan><tspan class="cls-7" x="130.1" y="28.8">r</tspan><tspan x="134.46" y="28.8">t</tspan></text><text class="cls-8" transform="translate(27 294.25)">Understand peopl<tspan class="cls-9" x="94.16" y="0">e</tspan><tspan class="cls-10" x="100.44" y="0">&apos;</tspan><tspan x="102.06" y="0">s </tspan><tspan x="0" y="14.4">desires </tspan><tspan class="cls-5" x="41.8" y="14.4">t</tspan><tspan x="45.6" y="14.4">o when viewing </tspan><tspan x="0" y="28.8">public a</tspan><tspan class="cls-7" x="41.68" y="28.8">r</tspan><tspan x="46.04" y="28.8">t</tspan></text><text class="cls-8" transform="translate(27 418.25)">Understand how might we <tspan x="0" y="14.4">facilitate connectivity of </tspan><tspan x="0" y="28.8">users between public a</tspan><tspan class="cls-7" x="122.4" y="28.8">r</tspan><tspan x="126.75" y="28.8">t </tspan><tspan x="0" y="43.2">with different geo-locations</tspan></text><text class="cls-8" transform="translate(231 153)">Do people do anything <tspan x="0" y="14.4">currently </tspan><tspan class="cls-5" x="49.48" y="14.4">t</tspan><tspan x="53.28" y="14.4">o connect with </tspan><tspan x="0" y="28.8">a</tspan><tspan class="cls-7" x="6.53" y="28.8">r</tspan><tspan x="10.88" y="28.8">t viewers in different </tspan><tspan x="0" y="43.2">locations? Do they make </tspan><tspan x="0" y="57.6">connections between </tspan><tspan x="0" y="72">different a</tspan><tspan class="cls-7" x="54.83" y="72">r</tspan><tspan x="59.18" y="72">t pieces?</tspan></text><text class="cls-8" transform="translate(231 294.25)">Do people want <tspan class="cls-5" x="85.65" y="0">t</tspan><tspan x="89.45" y="0">o be </tspan><tspan x="0" y="14.4">connected with a</tspan><tspan class="cls-7" x="90.98" y="14.4">r</tspan><tspan x="95.33" y="14.4">t viewers </tspan><tspan x="0" y="28.8">in different geo-locations?</tspan></text><text class="cls-8" transform="translate(231 418.25)">Does increased <tspan x="0" y="14.4">connectivity between </tspan><tspan x="0" y="28.8">people increase their </tspan><tspan x="0" y="43.2">engagement with public </tspan><tspan x="0" y="57.6">a</tspan><tspan class="cls-7" x="6.53" y="57.6">r</tspan><tspan x="10.88" y="57.6">t?</tspan></text><text class="cls-8" transform="translate(428 154)">Gene<tspan class="cls-11" x="27.51" y="0">r</tspan><tspan x="31.34" y="0">al public</tspan></text><text class="cls-8" transform="translate(428 295.25)">Gene<tspan class="cls-11" x="27.51" y="0">r</tspan><tspan x="31.34" y="0">al public</tspan></text><text class="cls-8" transform="translate(428 419.25)">Gene<tspan class="cls-11" x="27.51" y="0">r</tspan><tspan x="31.34" y="0">al public</tspan></text><text class="cls-8" transform="translate(630 153)">Contextual <tspan x="0" y="14.4">Inquiry/Obse</tspan><tspan class="cls-12" x="68.44" y="14.4">r</tspan><tspan class="cls-13" x="72.61" y="14.4">v</tspan><tspan x="78.33" y="14.4">ation</tspan></text><text class="cls-8" transform="translate(630 294.25)">Semi-Structured Inte<tspan class="cls-12" x="109.07" y="0">r</tspan><tspan x="113.23" y="0">views</tspan></text><text class="cls-8" transform="translate(630 418.25)">Think Aloud / A/B<tspan class="cls-11" x="94.45" y="0"> </tspan><tspan x="97.19" y="0">Test</tspan></text></svg>