<svg id="Layer_2" data-name="Layer 2" xmlns="http://www.w3.org/2000/svg" viewBox="0 0 1037.37 651.82"><defs><style>.cls-1{fill:none;stroke:#b03e65;stroke-miterlimit:10;stroke-width:3px;}.cls-2{fill:#f8c548;opacity:0.2;}.cls-3{font-size:14px;fill:#b03e65;}.cls-10,.cls-11,.cls-19,.cls-3,.cls-31,.cls-33,.cls-34,.cls-39,.cls-40,.cls-41,.cls-42,.cls-47,.cls-56,.cls-57,.cls-66,.cls-67,.cls-9{font-family:Raleway-Bold, Raleway;}.cls-10,.cls-11,.cls-19,.cls-20,.cls-31,.cls-33,.cls-34,.cls-39,.cls-4,.cls-40,.cls-41,.cls-42,.cls-47,.cls-56,.cls-57,.cls-66,.cls-67,.cls-70,.cls-71,.cls-72,.cls-73,.cls-74,.cls-75,.cls-76,.cls-84,.cls-85,.cls-86,.cls-87,.cls-9{font-weight:700;}.cls-5{letter-spacing:-0.01em;}.cls-20,.cls-6,.cls-69{font-size:12px;}.cls-6,.cls-77,.cls-78,.cls-79,.cls-80,.cls-81,.cls-82,.cls-83,.cls-88,.cls-89,.cls-90,.cls-91,.cls-92{font-family:Raleway-Regular, Raleway;}.cls-33,.cls-7,.cls-84{letter-spacing:-0.01em;}.cls-39,.cls-8,.cls-91{letter-spacing:0em;}.cls-10,.cls-18,.cls-75,.cls-83{letter-spacing:-0.01em;}.cls-11,.cls-50{letter-spacing:-0.01em;}.cls-12,.cls-34,.cls-89{letter-spacing:0em;}.cls-13,.cls-40,.cls-70,.cls-78{letter-spacing:-0.02em;}.cls-14,.cls-19,.cls-85,.cls-88{letter-spacing:-0.01em;}.cls-15,.cls-47{letter-spacing:-0.03em;}.cls-16{letter-spacing:-0.01em;}.cls-17,.cls-42,.cls-71,.cls-79{letter-spacing:-0.03em;}.cls-21,.cls-86{letter-spacing:-0.03em;}.cls-22,.cls-72,.cls-80{letter-spacing:-0.02em;}.cls-23{letter-spacing:-0.01em;}.cls-24,.cls-41{letter-spacing:-0.02em;}.cls-25{letter-spacing:-0.03em;}.cls-26,.cls-56{letter-spacing:-0.03em;}.cls-27{letter-spacing:-0.05em;}.cls-28{letter-spacing:-0.12em;}.cls-29{letter-spacing:-0.11em;}.cls-30{letter-spacing:-0.02em;}.cls-31,.cls-54,.cls-73,.cls-81{letter-spacing:-0.01em;}.cls-32{letter-spacing:-0.08em;}.cls-35{letter-spacing:-0.01em;}.cls-36,.cls-57{letter-spacing:-0.02em;}.cls-37{letter-spacing:-0.01em;}.cls-38{letter-spacing:0em;}.cls-43{letter-spacing:-0.11em;}.cls-44,.cls-76{letter-spacing:-0.05em;}.cls-45{letter-spacing:-0.09em;}.cls-46,.cls-67{letter-spacing:0em;}.cls-48,.cls-90{letter-spacing:-0.01em;}.cls-49{letter-spacing:-0.02em;}.cls-51{letter-spacing:-0.03em;}.cls-52,.cls-87,.cls-92{letter-spacing:0em;}.cls-53{letter-spacing:-0.02em;}.cls-55,.cls-74,.cls-82{letter-spacing:-0.02em;}.cls-58{letter-spacing:-0.01em;}.cls-59{letter-spacing:-0.02em;}.cls-60,.cls-66{letter-spacing:0em;}.cls-61{letter-spacing:-0.03em;}.cls-62{letter-spacing:-0.01em;}.cls-63{letter-spacing:-0.02em;}.cls-64{letter-spacing:-0.01em;}.cls-65{letter-spacing:-0.02em;}.cls-68{letter-spacing:-0.06em;}</style></defs><title>hearsaycompanalysis</title><line class="cls-1" x1="268.91" y1="437.96" x2="246.75" y2="491.43"/><line class="cls-1" x1="268.91" y1="437.96" x2="480.91" y2="494.57"/><line class="cls-1" x1="268.91" y1="437.96" x2="797.93" y2="494.57"/><rect class="cls-2" x="104.78" width="337.29" height="174.99" rx="12" ry="12"/><rect class="cls-2" x="100.4" y="196.62" width="337.29" height="248.59" rx="12" ry="12"/><text class="cls-3" transform="translate(246.32 31.46)"><tspan class="cls-4">I<tspan class="cls-5" x="4" y="0">C</tspan><tspan x="13.51" y="0">ONN</tspan></tspan><tspan class="cls-6"><tspan class="cls-7" x="-129.05" y="28.8">I</tspan><tspan class="cls-8" x="-126.16" y="28.8">c</tspan><tspan x="-119.63" y="28.8">on is a </tspan><tspan class="cls-9" x="-81.32" y="28.8">tale</tspan><tspan class="cls-10" x="-58.83" y="28.8">n</tspan><tspan class="cls-9" x="-51.64" y="28.8">t booking agen</tspan><tspan class="cls-11" x="34.42" y="28.8">c</tspan><tspan class="cls-9" x="41.11" y="28.8">y</tspan><tspan x="47.71" y="28.8" xml:space="preserve"> th</tspan><tspan class="cls-12" x="61.78" y="28.8">a</tspan><tspan x="68.28" y="28.8">t all</tspan><tspan class="cls-13" x="88.42" y="28.8">o</tspan><tspan class="cls-14" x="95.33" y="28.8">w</tspan><tspan x="104.93" y="28.8">s users </tspan><tspan class="cls-14" x="146.97" y="28.8">t</tspan><tspan x="150.83" y="28.8">o </tspan><tspan x="-129.05" y="43.2">secu</tspan><tspan class="cls-15" x="-102.45" y="43.2">r</tspan><tspan x="-98.55" y="43.2">e</tspan><tspan class="cls-16" x="-91.5" y="43.2">l</tspan><tspan class="cls-17" x="-88.37" y="43.2">y</tspan><tspan x="-82.19" y="43.2"> </tspan><tspan class="cls-18" x="-79.13" y="43.2">c</tspan><tspan x="-72.6" y="43.2">onnect</tspan><tspan class="cls-17" x="-33.82" y="43.2"> </tspan><tspan x="-31.08" y="43.2">with and</tspan><tspan class="cls-9" x="16.36" y="43.2" xml:space="preserve"> book artists, ac</tspan><tspan class="cls-19" x="106.03" y="43.2">t</tspan><tspan class="cls-9" x="110.48" y="43.2">ors, i</tspan><tspan class="cls-10" x="137.08" y="43.2">n</tspan><tspan class="cls-9" x="144.27" y="43.2">fl</tspan><tspan class="cls-9" x="159.57" y="43.2">-</tspan></tspan><tspan class="cls-20"><tspan x="-129.05" y="57.6">en</tspan><tspan class="cls-18" x="-114.62" y="57.6">c</tspan><tspan x="-107.91" y="57.6">es, and models </tspan><tspan class="cls-21" x="-18.32" y="57.6">f</tspan><tspan x="-14.19" y="57.6">o</tspan><tspan class="cls-22" x="-6.92" y="57.6">r</tspan><tspan x="-2.56" y="57.6" xml:space="preserve"> pri</tspan><tspan class="cls-14" x="15.63" y="57.6">v</tspan><tspan class="cls-12" x="22.06" y="57.6">a</tspan><tspan class="cls-14" x="28.9" y="57.6">t</tspan><tspan x="33.36" y="57.6">e </tspan><tspan class="cls-23" x="43.42" y="57.6">e</tspan><tspan class="cls-24" x="50.44" y="57.6">v</tspan><tspan x="56.82" y="57.6">e</tspan><tspan class="cls-18" x="64" y="57.6">n</tspan><tspan x="71.19" y="57.6">ts and appear</tspan><tspan x="150.22" y="57.6">-</tspan><tspan x="-129.05" y="72">an</tspan><tspan class="cls-18" x="-114.92" y="72">c</tspan><tspan x="-108.21" y="72">es.</tspan></tspan><tspan class="cls-6"><tspan class="cls-25" x="-129.05" y="100.8">A</tspan><tspan class="cls-17" x="-121.31" y="100.8"> </tspan><tspan class="cls-14" x="-118.58" y="100.8">wa</tspan><tspan class="cls-26" x="-102.59" y="100.8">y</tspan><tspan x="-96.41" y="100.8"> </tspan><tspan class="cls-14" x="-93.35" y="100.8">t</tspan><tspan x="-89.49" y="100.8">o </tspan><tspan class="cls-8" x="-79.29" y="100.8">c</tspan><tspan x="-72.76" y="100.8">onnect artist </tspan><tspan class="cls-14" x="-0.6" y="100.8">t</tspan><tspan x="3.26" y="100.8">o</tspan><tspan class="cls-26" x="10.4" y="100.8"> </tspan><tspan class="cls-24" x="13.14" y="100.8">v</tspan><tspan x="19.32" y="100.8">enue, but no </tspan><tspan class="cls-18" x="92.1" y="100.8">c</tspan><tspan x="98.62" y="100.8">onnection </tspan><tspan x="-129.05" y="115.2">b</tspan><tspan class="cls-12" x="-121.65" y="115.2">e</tspan><tspan x="-114.65" y="115.2">t</tspan><tspan class="cls-13" x="-110.63" y="115.2">w</tspan><tspan x="-101.1" y="115.2">een artist and </tspan><tspan class="cls-18" x="-22.59" y="115.2">c</tspan><tspan x="-16.06" y="115.2">on</tspan><tspan class="cls-8" x="-1.92" y="115.2">c</tspan><tspan x="4.6" y="115.2">ert goe</tspan><tspan class="cls-27" x="44.54" y="115.2">r</tspan><tspan x="48.2" y="115.2">.</tspan></tspan></text><text class="cls-3" transform="translate(220.75 229.32)"><tspan class="cls-4">Bandsi<tspan class="cls-28" x="45.57" y="0">n</tspan><tspan class="cls-29" x="52.36" y="0">T</tspan><tspan class="cls-30" x="59.43" y="0">o</tspan><tspan x="67.65" y="0">wn</tspan></tspan><tspan class="cls-6"><tspan x="-107.86" y="28.8">I”Pl</tspan><tspan class="cls-12" x="-90.42" y="28.8">a</tspan><tspan x="-83.93" y="28.8">t</tspan><tspan class="cls-15" x="-79.91" y="28.8">f</tspan><tspan x="-76.26" y="28.8">orm</tspan><tspan class="cls-17" x="-53.88" y="28.8"> </tspan><tspan x="-51.14" y="28.8">whe</tspan><tspan class="cls-15" x="-27.35" y="28.8">r</tspan><tspan x="-23.45" y="28.8">e </tspan><tspan class="cls-9" x="-13.34" y="28.8">artists and </tspan><tspan class="cls-31" x="50.03" y="28.8">f</tspan><tspan class="cls-9" x="54.37" y="28.8">ans </tspan><tspan class="cls-10" x="77.35" y="28.8">c</tspan><tspan class="cls-9" x="84.06" y="28.8">onnect</tspan><tspan class="cls-32" x="124.39" y="28.8">.</tspan><tspan class="cls-26" x="125.71" y="28.8">”</tspan><tspan x="-107.86" y="57.6">The si</tspan><tspan class="cls-14" x="-74.98" y="57.6">t</tspan><tspan x="-71.11" y="57.6">e all</tspan><tspan class="cls-13" x="-47.94" y="57.6">o</tspan><tspan class="cls-14" x="-41.03" y="57.6">w</tspan><tspan x="-31.43" y="57.6">s users </tspan><tspan class="cls-14" x="10.61" y="57.6">t</tspan><tspan x="14.47" y="57.6">o </tspan><tspan class="cls-15" x="24.67" y="57.6">r</tspan><tspan x="28.57" y="57.6">e</tspan><tspan class="cls-8" x="35.62" y="57.6">c</tspan><tspan x="42.14" y="57.6">ei</tspan><tspan class="cls-24" x="51.8" y="57.6">v</tspan><tspan x="57.98" y="57.6">e </tspan><tspan class="cls-9" x="68.09" y="57.6">n</tspan><tspan class="cls-33" x="75.33" y="57.6">o</tspan><tspan class="cls-9" x="82.52" y="57.6">tific</tspan><tspan class="cls-34" x="103.77" y="57.6">a</tspan><tspan class="cls-9" x="110.61" y="57.6">tions about </tspan></tspan><tspan class="cls-20"><tspan class="cls-14" x="-107.86" y="72">t</tspan><tspan x="-103.4" y="72">ours and bands pl</tspan><tspan class="cls-14" x="-0.73" y="72">a</tspan><tspan x="6" y="72">ying in the user</tspan><tspan class="cls-35" x="93.72" y="72">’</tspan><tspan x="96.42" y="72">s a</tspan><tspan class="cls-15" x="112.15" y="72">r</tspan><tspan x="116.48" y="72">ea.</tspan></tspan><tspan class="cls-6"><tspan x="-107.86" y="100.8">It also has </tspan><tspan class="cls-14" x="-49.51" y="100.8">t</tspan><tspan x="-45.65" y="100.8">ools </tspan><tspan class="cls-15" x="-19.2" y="100.8">f</tspan><tspan x="-15.55" y="100.8">o</tspan><tspan class="cls-36" x="-8.41" y="100.8">r</tspan><tspan x="-4.49" y="100.8" xml:space="preserve"> artists </tspan><tspan class="cls-14" x="34.73" y="100.8">t</tspan><tspan x="38.59" y="100.8">o manage </tspan><tspan class="cls-37" x="97.41" y="100.8">t</tspan><tspan x="101.28" y="100.8">ou</tspan><tspan class="cls-36" x="115.55" y="100.8">r</tspan><tspan x="119.47" y="100.8" xml:space="preserve"> d</tspan><tspan class="cls-12" x="129.99" y="100.8">a</tspan><tspan class="cls-14" x="136.49" y="100.8">t</tspan><tspan x="140.35" y="100.8">es.</tspan></tspan></text><rect class="cls-2" y="491.73" width="337.29" height="160.09" rx="12" ry="12"/><text class="cls-3" transform="translate(88.41 524.44)"><tspan class="cls-4">Bandsi<tspan class="cls-28" x="45.57" y="0">n</tspan><tspan class="cls-29" x="52.36" y="0">T</tspan><tspan class="cls-30" x="59.43" y="0">o</tspan><tspan x="67.65" y="0">wn Con</tspan><tspan class="cls-38" x="117.75" y="0">c</tspan><tspan x="125.58" y="0">erts</tspan></tspan><tspan class="cls-6"><tspan class="cls-25" x="-75.92" y="28.8">A</tspan><tspan x="-68.18" y="28.8"> </tspan><tspan class="cls-10" x="-65.12" y="28.8">c</tspan><tspan class="cls-9" x="-58.41" y="28.8">on</tspan><tspan class="cls-39" x="-43.89" y="28.8">c</tspan><tspan class="cls-9" x="-37.19" y="28.8">ert dis</tspan><tspan class="cls-10" x="-1.1" y="28.8">c</tspan><tspan class="cls-40" x="5.61" y="28.8">o</tspan><tspan class="cls-41" x="12.65" y="28.8">v</tspan><tspan class="cls-9" x="19.02" y="28.8">er</tspan><tspan class="cls-42" x="30.85" y="28.8">y</tspan><tspan class="cls-9" x="37.13" y="28.8" xml:space="preserve"> app</tspan><tspan x="62.11" y="28.8">.</tspan><tspan x="-75.92" y="57.6">The app uses d</tspan><tspan class="cls-12" x="9.29" y="57.6">a</tspan><tspan x="15.78" y="57.6">ta f</tspan><tspan class="cls-15" x="33.36" y="57.6">r</tspan><tspan x="37.26" y="57.6">om a user</tspan><tspan class="cls-35" x="92.32" y="57.6">’</tspan><tspan x="94.45" y="57.6">s i</tspan><tspan class="cls-43" x="105.97" y="57.6">T</tspan><tspan x="112.01" y="57.6">unes lib</tspan><tspan class="cls-7" x="155.36" y="57.6">r</tspan><tspan x="159.49" y="57.6">ar</tspan><tspan class="cls-44" x="170.24" y="57.6">y</tspan><tspan x="176.17" y="57.6">, </tspan><tspan class="cls-45" x="181.93" y="57.6">F</tspan><tspan x="187.98" y="57.6">a</tspan><tspan class="cls-18" x="194.52" y="57.6">c</tspan><tspan x="201.05" y="57.6">e</tspan><tspan x="208.09" y="57.6">-</tspan><tspan x="-75.92" y="72">book Li</tspan><tspan class="cls-17" x="-35.21" y="72">k</tspan><tspan x="-29.17" y="72">es, and Sp</tspan><tspan class="cls-7" x="28.22" y="72">o</tspan><tspan x="35.28" y="72">tfit</tspan><tspan class="cls-26" x="49.37" y="72">y</tspan><tspan class="cls-46" x="55.55" y="72" xml:space="preserve"> a</tspan><tspan class="cls-18" x="65.15" y="72">cc</tspan><tspan x="78.2" y="72">ou</tspan><tspan class="cls-8" x="92.47" y="72">n</tspan><tspan x="99.41" y="72">ts </tspan><tspan class="cls-37" x="112.33" y="72">t</tspan><tspan x="116.2" y="72">o</tspan><tspan class="cls-9" x="123.33" y="72" xml:space="preserve"> p</tspan><tspan class="cls-47" x="133.82" y="72">r</tspan><tspan class="cls-9" x="138.15" y="72">e-popul</tspan><tspan class="cls-34" x="184.07" y="72">a</tspan><tspan class="cls-19" x="190.91" y="72">t</tspan><tspan class="cls-9" x="195.36" y="72">e a </tspan></tspan><tspan class="cls-20"><tspan x="-75.92" y="86.4">cus</tspan><tspan class="cls-14" x="-55.77" y="86.4">t</tspan><tspan x="-51.32" y="86.4">omi</tspan><tspan class="cls-23" x="-29.82" y="86.4">z</tspan><tspan x="-24.07" y="86.4">ed list </tspan><tspan class="cls-48" x="14.05" y="86.4">o</tspan><tspan class="cls-49" x="21.23" y="86.4">f</tspan><tspan x="25.42" y="86.4" xml:space="preserve"> t</tspan><tspan class="cls-50" x="32.9" y="86.4">r</tspan><tspan x="37.46" y="86.4">ac</tspan><tspan class="cls-26" x="51.12" y="86.4">k</tspan><tspan x="57.49" y="86.4">ed artists and loca</tspan><tspan class="cls-51" x="163.4" y="86.4">l</tspan><tspan x="166.83" y="86.4"> </tspan><tspan class="cls-18" x="169.71" y="86.4">c</tspan><tspan x="176.42" y="86.4">on</tspan><tspan class="cls-8" x="190.94" y="86.4">c</tspan><tspan class="cls-52" x="197.65" y="86.4">ert </tspan><tspan class="cls-15" x="-75.92" y="100.8">r</tspan><tspan x="-71.59" y="100.8">e</tspan><tspan class="cls-8" x="-64.4" y="100.8">c</tspan><tspan x="-57.69" y="100.8">ommend</tspan><tspan class="cls-12" x="-5.9" y="100.8">a</tspan><tspan class="cls-52" x="0.94" y="100.8">tions.</tspan></tspan></text><rect class="cls-2" x="354.41" y="494.57" width="337.29" height="157.25" rx="12" ry="12"/><text class="cls-3" transform="translate(443.62 527.27)"><tspan class="cls-4">Bandsi<tspan class="cls-28" x="45.57" y="0">n</tspan><tspan class="cls-29" x="52.36" y="0">T</tspan><tspan class="cls-30" x="59.43" y="0">o</tspan><tspan x="67.65" y="0">wn </tspan><tspan class="cls-38" x="91.21" y="0">M</tspan><tspan x="103.25" y="0">anage</tspan><tspan class="cls-53" x="145.04" y="0">r</tspan></tspan><tspan class="cls-6"><tspan class="cls-25" x="-76.72" y="28.8">A</tspan><tspan x="-68.98" y="28.8" xml:space="preserve"> sui</tspan><tspan class="cls-14" x="-50.33" y="28.8">t</tspan><tspan x="-46.47" y="28.8">e </tspan><tspan class="cls-54" x="-36.36" y="28.8">o</tspan><tspan class="cls-55" x="-29.32" y="28.8">f</tspan><tspan x="-25.61" y="28.8"> </tspan><tspan class="cls-10" x="-22.55" y="28.8">c</tspan><tspan class="cls-9" x="-15.84" y="28.8">on</tspan><tspan class="cls-39" x="-1.32" y="28.8">c</tspan><tspan class="cls-9" x="5.38" y="28.8">ert mar</tspan><tspan class="cls-56" x="47.41" y="28.8">k</tspan><tspan class="cls-34" x="53.78" y="28.8">e</tspan><tspan class="cls-9" x="60.92" y="28.8">ting </tspan><tspan class="cls-19" x="86.32" y="28.8">t</tspan><tspan class="cls-9" x="90.78" y="28.8">ools </tspan><tspan class="cls-47" x="117.97" y="28.8">f</tspan><tspan class="cls-9" x="122.09" y="28.8">o</tspan><tspan class="cls-57" x="129.37" y="28.8">r</tspan><tspan class="cls-9" x="133.72" y="28.8" xml:space="preserve"> per</tspan><tspan class="cls-47" x="156.04" y="28.8">f</tspan><tspan class="cls-9" x="160.17" y="28.8">ormers </tspan><tspan x="203.93" y="28.8">th</tspan><tspan class="cls-12" x="214.95" y="28.8">a</tspan><tspan x="221.44" y="28.8">t </tspan><tspan x="-76.72" y="43.2">all</tspan><tspan class="cls-13" x="-63.65" y="43.2">o</tspan><tspan class="cls-14" x="-56.74" y="43.2">w</tspan><tspan x="-47.14" y="43.2">s them </tspan><tspan class="cls-14" x="-6.09" y="43.2">t</tspan><tspan x="-2.22" y="43.2">o list </tspan><tspan class="cls-14" x="26.78" y="43.2">t</tspan><tspan x="30.64" y="43.2">ou</tspan><tspan class="cls-22" x="44.91" y="43.2">r</tspan><tspan x="48.83" y="43.2" xml:space="preserve"> d</tspan><tspan class="cls-12" x="59.36" y="43.2">a</tspan><tspan class="cls-14" x="65.85" y="43.2">t</tspan><tspan x="69.71" y="43.2">es, p</tspan><tspan class="cls-15" x="95.77" y="43.2">r</tspan><tspan x="99.67" y="43.2">om</tspan><tspan class="cls-7" x="117.83" y="43.2">o</tspan><tspan class="cls-14" x="124.89" y="43.2">t</tspan><tspan x="128.75" y="43.2">e </tspan><tspan class="cls-58" x="138.86" y="43.2">e</tspan><tspan class="cls-59" x="145.73" y="43.2">v</tspan><tspan x="151.91" y="43.2">e</tspan><tspan class="cls-8" x="158.96" y="43.2">n</tspan><tspan x="165.89" y="43.2">ts and </tspan><tspan class="cls-48" x="-76.72" y="57.6">f</tspan><tspan x="-72.86" y="57.6">acilit</tspan><tspan class="cls-60" x="-47.21" y="57.6">a</tspan><tspan class="cls-14" x="-40.72" y="57.6">t</tspan><tspan x="-36.86" y="57.6">e di</tspan><tspan class="cls-15" x="-16.67" y="57.6">r</tspan><tspan x="-12.77" y="57.6">ect </tspan><tspan class="cls-8" x="7.94" y="57.6">c</tspan><tspan x="14.47" y="57.6">o</tspan><tspan class="cls-18" x="21.61" y="57.6">n</tspan><tspan x="28.54" y="57.6">tact</tspan><tspan class="cls-17" x="49.71" y="57.6"> </tspan><tspan x="52.45" y="57.6">with thei</tspan><tspan class="cls-22" x="99.57" y="57.6">r</tspan><tspan x="103.49" y="57.6"> </tspan><tspan class="cls-54" x="106.55" y="57.6">f</tspan><tspan x="110.42" y="57.6">ans.</tspan><tspan x="-76.72" y="86.4">App is used </tspan><tspan class="cls-24" x="-8.68" y="86.4">b</tspan><tspan class="cls-26" x="-1.49" y="86.4">y</tspan><tspan class="cls-46" x="4.69" y="86.4" xml:space="preserve"> p</tspan><tspan class="cls-21" x="15.15" y="86.4">r</tspan><tspan x="19.05" y="86.4">omine</tspan><tspan class="cls-18" x="53.87" y="86.4">n</tspan><tspan x="60.81" y="86.4">t musicians in the industr</tspan><tspan class="cls-44" x="198.22" y="86.4">y</tspan><tspan x="204.15" y="86.4">.</tspan></tspan></text><rect class="cls-2" x="700.08" y="494.57" width="337.29" height="157.25" rx="12" ry="12"/><text class="cls-3" transform="translate(787.58 527.27)"><tspan class="cls-4">Bandsi<tspan class="cls-28" x="45.57" y="0">n</tspan><tspan class="cls-29" x="52.36" y="0">T</tspan><tspan class="cls-30" x="59.43" y="0">o</tspan><tspan x="67.65" y="0">wn P</tspan><tspan class="cls-61" x="99.93" y="0">r</tspan><tspan x="104.99" y="0">om</tspan><tspan class="cls-5" x="126.5" y="0">o</tspan><tspan class="cls-62" x="134.89" y="0">t</tspan><tspan x="140.08" y="0">e</tspan><tspan class="cls-63" x="148.47" y="0">r</tspan></tspan><tspan class="cls-6"><tspan x="-75" y="28.8">O</tspan><tspan class="cls-15" x="-65.99" y="28.8">ff</tspan><tspan x="-59.32" y="28.8">ers p</tspan><tspan class="cls-21" x="-31.76" y="28.8">r</tspan><tspan x="-27.86" y="28.8">om</tspan><tspan class="cls-7" x="-9.69" y="28.8">o</tspan><tspan class="cls-14" x="-2.63" y="28.8">t</tspan><tspan x="1.23" y="28.8">ers,</tspan><tspan class="cls-26" x="21.03" y="28.8"> </tspan><tspan class="cls-24" x="23.77" y="28.8">v</tspan><tspan x="29.95" y="28.8">enues, and labels insig</tspan><tspan class="cls-8" x="155.73" y="28.8">h</tspan><tspan x="162.66" y="28.8">ts and </tspan><tspan x="-75" y="43.2">di</tspan><tspan class="cls-15" x="-64.93" y="43.2">r</tspan><tspan x="-61.03" y="43.2">ect a</tspan><tspan class="cls-8" x="-33.77" y="43.2">cc</tspan><tspan x="-20.72" y="43.2">ess </tspan><tspan class="cls-14" x="1.07" y="43.2">t</tspan><tspan x="4.94" y="43.2">o </tspan><tspan class="cls-18" x="15.14" y="43.2">c</tspan><tspan x="21.67" y="43.2">on</tspan><tspan class="cls-8" x="35.8" y="43.2">c</tspan><tspan x="42.33" y="43.2">er</tspan><tspan class="cls-64" x="53.59" y="43.2">t</tspan><tspan x="57.5" y="43.2">-goers</tspan><tspan class="cls-9" x="94.22" y="43.2" xml:space="preserve"> based on thei</tspan><tspan class="cls-57" x="174.87" y="43.2">r</tspan><tspan class="cls-9" x="179.23" y="43.2" xml:space="preserve"> music </tspan></tspan><tspan class="cls-20"><tspan x="-75" y="57.6">tas</tspan><tspan class="cls-14" x="-57.55" y="57.6">t</tspan><tspan x="-53.09" y="57.6">e and loc</tspan><tspan class="cls-12" x="-0.43" y="57.6">a</tspan><tspan x="6.41" y="57.6">tion in </tspan><tspan class="cls-26" x="44.67" y="57.6">k</tspan><tspan class="cls-23" x="51.04" y="57.6">e</tspan><tspan class="cls-17" x="58.06" y="57.6">y</tspan><tspan x="64.34" y="57.6" xml:space="preserve"> mar</tspan><tspan class="cls-17" x="89.92" y="57.6">k</tspan><tspan class="cls-60" x="96.29" y="57.6">e</tspan><tspan x="103.43" y="57.6">ts.</tspan></tspan></text><rect class="cls-2" x="455.49" y="0.02" width="337.29" height="176.24" rx="12" ry="12"/><text class="cls-3" transform="translate(589.02 31.48)"><tspan class="cls-4">Songkick</tspan><tspan class="cls-6"><tspan x="-121.04" y="28.8">P</tspan><tspan class="cls-15" x="-113.57" y="28.8">r</tspan><tspan class="cls-65" x="-109.67" y="28.8">o</tspan><tspan class="cls-52" x="-102.76" y="28.8">vides</tspan><tspan class="cls-9" x="-73.4" y="28.8"> </tspan><tspan class="cls-10" x="-70.52" y="28.8">c</tspan><tspan class="cls-9" x="-63.81" y="28.8">on</tspan><tspan class="cls-39" x="-49.29" y="28.8">c</tspan><tspan class="cls-9" x="-42.58" y="28.8">ert dis</tspan><tspan class="cls-10" x="-6.5" y="28.8">c</tspan><tspan class="cls-40" x="0.21" y="28.8">o</tspan><tspan class="cls-41" x="7.25" y="28.8">v</tspan><tspan class="cls-9" x="13.63" y="28.8">er</tspan><tspan class="cls-42" x="25.46" y="28.8">y</tspan><tspan class="cls-9" x="31.73" y="28.8" xml:space="preserve"> servi</tspan><tspan class="cls-10" x="62.06" y="28.8">c</tspan><tspan class="cls-9" x="68.77" y="28.8">es and tic</tspan><tspan class="cls-42" x="123.99" y="28.8">k</tspan><tspan class="cls-66" x="130.36" y="28.8">e</tspan><tspan class="cls-67" x="137.5" y="28.8">t sales </tspan></tspan><tspan class="cls-20"><tspan class="cls-15" x="-121.04" y="43.2">f</tspan><tspan x="-116.91" y="43.2">o</tspan><tspan class="cls-36" x="-109.64" y="43.2">r</tspan><tspan x="-105.28" y="43.2" xml:space="preserve"> li</tspan><tspan class="cls-24" x="-95.54" y="43.2">v</tspan><tspan x="-89.16" y="43.2">e music </tspan><tspan class="cls-23" x="-41.84" y="43.2">e</tspan><tspan class="cls-24" x="-34.82" y="43.2">v</tspan><tspan x="-28.44" y="43.2">e</tspan><tspan class="cls-18" x="-21.26" y="43.2">n</tspan><tspan x="-14.07" y="43.2">ts.</tspan></tspan><tspan class="cls-6"><tspan class="cls-68" x="-121.04" y="72">W</tspan><tspan x="-109.25" y="72">eb and mobile apps all</tspan><tspan class="cls-13" x="17.19" y="72">o</tspan><tspan class="cls-17" x="24.1" y="72">w</tspan><tspan x="33.53" y="72" xml:space="preserve"> users </tspan><tspan class="cls-14" x="69.72" y="72">t</tspan><tspan x="73.59" y="72">o t</tspan><tspan class="cls-7" x="87.81" y="72">r</tspan><tspan x="91.94" y="72">ack </tspan><tspan class="cls-14" x="114.48" y="72">t</tspan><tspan x="118.35" y="72">ouring </tspan><tspan x="-121.04" y="86.4">artists, </tspan><tspan class="cls-15" x="-82.18" y="86.4">r</tspan><tspan x="-78.28" y="86.4">e</tspan><tspan class="cls-8" x="-71.24" y="86.4">c</tspan><tspan x="-64.71" y="86.4">ei</tspan><tspan class="cls-24" x="-55.05" y="86.4">v</tspan><tspan x="-48.87" y="86.4">e alerts </tspan><tspan class="cls-15" x="-4.78" y="86.4">f</tspan><tspan x="-1.13" y="86.4">o</tspan><tspan class="cls-36" x="6.01" y="86.4">r</tspan><tspan class="cls-52" x="9.93" y="86.4"> </tspan><tspan class="cls-8" x="12.99" y="86.4">c</tspan><tspan x="19.52" y="86.4">on</tspan><tspan class="cls-18" x="33.65" y="86.4">c</tspan><tspan x="40.18" y="86.4">erts in thei</tspan><tspan class="cls-36" x="97.71" y="86.4">r</tspan><tspan x="101.63" y="86.4" xml:space="preserve"> a</tspan><tspan class="cls-15" x="111.23" y="86.4">r</tspan><tspan x="115.13" y="86.4">ea and </tspan><tspan x="-121.04" y="100.8">pu</tspan><tspan class="cls-15" x="-106.5" y="100.8">r</tspan><tspan x="-102.6" y="100.8">chase tic</tspan><tspan class="cls-17" x="-53.31" y="100.8">k</tspan><tspan class="cls-12" x="-47.27" y="100.8">e</tspan><tspan x="-40.28" y="100.8">ts </tspan><tspan class="cls-14" x="-27.35" y="100.8">t</tspan><tspan x="-23.49" y="100.8">o sh</tspan><tspan class="cls-13" x="-0.45" y="100.8">o</tspan><tspan class="cls-14" x="6.46" y="100.8">w</tspan><tspan x="16.06" y="100.8">s.</tspan></tspan></text><rect class="cls-2" x="455.49" y="196.62" width="337.29" height="248.59" rx="12" ry="12"/><text class="cls-3" transform="translate(578.91 228.08)"><tspan class="cls-4">Soundcloud</tspan><tspan class="cls-6"><tspan x="-110.93" y="28.8">Music sharing pl</tspan><tspan class="cls-12" x="-20.82" y="28.8">a</tspan><tspan x="-14.33" y="28.8">t</tspan><tspan class="cls-15" x="-10.31" y="28.8">f</tspan><tspan x="-6.66" y="28.8">orm th</tspan><tspan class="cls-12" x="29.79" y="28.8">a</tspan><tspan x="36.29" y="28.8">t enables its users </tspan><tspan class="cls-14" x="139.23" y="28.8">t</tspan><tspan x="143.1" y="28.8">o upload </tspan><tspan x="-110.93" y="43.2">and sha</tspan><tspan class="cls-15" x="-67.49" y="43.2">r</tspan><tspan x="-63.59" y="43.2">e audio.</tspan></tspan><tspan class="cls-20"><tspan class="cls-7" x="-110.93" y="72">M</tspan><tspan x="-100.63" y="72">ost </tspan><tspan class="cls-8" x="-79.91" y="72">e</tspan><tspan class="cls-15" x="-72.78" y="72">ff</tspan><tspan x="-65.39" y="72">ecti</tspan><tspan class="cls-24" x="-43.76" y="72">v</tspan><tspan x="-37.39" y="72">e </tspan><tspan class="cls-15" x="-27.32" y="72">f</tspan><tspan x="-23.2" y="72">o</tspan><tspan class="cls-36" x="-15.92" y="72">r</tspan><tspan x="-11.57" y="72" xml:space="preserve"> n</tspan><tspan class="cls-23" x="-1.44" y="72">e</tspan><tspan class="cls-17" x="5.58" y="72">w</tspan><tspan x="15.32" y="72" xml:space="preserve"> o</tspan><tspan class="cls-36" x="25.48" y="72">r</tspan><tspan x="29.83" y="72" xml:space="preserve"> independe</tspan><tspan class="cls-18" x="94.92" y="72">n</tspan><tspan x="102.11" y="72">t artists due </tspan><tspan class="cls-14" x="173.43" y="72">t</tspan><tspan x="177.89" y="72">o </tspan></tspan><tspan class="cls-69"><tspan class="cls-4" x="-110.93" y="86.4">l</tspan><tspan class="cls-70" x="-107.13" y="86.4">o</tspan><tspan class="cls-71" x="-100.08" y="86.4">w</tspan><tspan class="cls-4" x="-90.34" y="86.4" xml:space="preserve"> barrie</tspan><tspan class="cls-72" x="-53.43" y="86.4">r</tspan><tspan class="cls-4" x="-49.07" y="86.4"> </tspan><tspan class="cls-73" x="-46.19" y="86.4">o</tspan><tspan class="cls-74" x="-39.01" y="86.4">f</tspan><tspan class="cls-4" x="-34.83" y="86.4" xml:space="preserve"> e</tspan><tspan class="cls-75" x="-24.76" y="86.4">n</tspan><tspan class="cls-4" x="-17.57" y="86.4">tr</tspan><tspan class="cls-76" x="-8.32" y="86.4">y</tspan><tspan class="cls-4" x="-2.29" y="86.4">.</tspan><tspan class="cls-77" x="0.41" y="86.4" xml:space="preserve"> Because the l</tspan><tspan class="cls-78" x="79.09" y="86.4">o</tspan><tspan class="cls-79" x="86" y="86.4">w</tspan><tspan class="cls-77" x="95.43" y="86.4" xml:space="preserve"> barrie</tspan><tspan class="cls-80" x="130.52" y="86.4">r</tspan><tspan class="cls-77" x="134.44" y="86.4"> </tspan><tspan class="cls-81" x="137.5" y="86.4">o</tspan><tspan class="cls-82" x="144.55" y="86.4">f</tspan><tspan class="cls-77" x="148.26" y="86.4" xml:space="preserve"> e</tspan><tspan class="cls-83" x="158.36" y="86.4">n</tspan><tspan class="cls-77" x="165.3" y="86.4">tr</tspan><tspan class="cls-79" x="173.53" y="86.4">y</tspan><tspan class="cls-77" x="179.71" y="86.4"> </tspan></tspan><tspan class="cls-6"><tspan class="cls-48" x="-110.93" y="100.8">f</tspan><tspan x="-107.06" y="100.8">acilit</tspan><tspan class="cls-60" x="-81.42" y="100.8">a</tspan><tspan class="cls-14" x="-74.93" y="100.8">t</tspan><tspan x="-71.07" y="100.8">es less established artists, the pl</tspan><tspan class="cls-12" x="107.72" y="100.8">a</tspan><tspan x="114.21" y="100.8">t</tspan><tspan class="cls-15" x="118.23" y="100.8">f</tspan><tspan x="121.88" y="100.8">orm </tspan><tspan class="cls-9" x="147.32" y="100.8">p</tspan><tspan class="cls-47" x="154.93" y="100.8">r</tspan><tspan class="cls-9" x="159.26" y="100.8">o</tspan><tspan class="cls-9" x="166.53" y="100.8">-</tspan></tspan><tspan class="cls-69"><tspan class="cls-4" x="-110.93" y="115.2">m</tspan><tspan class="cls-84" x="-99.76" y="115.2">o</tspan><tspan class="cls-85" x="-92.57" y="115.2">t</tspan><tspan class="cls-4" x="-88.12" y="115.2">es </tspan><tspan class="cls-86" x="-72.08" y="115.2">f</tspan><tspan class="cls-87" x="-67.96" y="115.2">eedback</tspan><tspan class="cls-77" x="-17.88" y="115.2" xml:space="preserve"> and culti</tspan><tspan class="cls-88" x="32.85" y="115.2">v</tspan><tspan class="cls-89" x="39.09" y="115.2">a</tspan><tspan class="cls-77" x="45.59" y="115.2">tion </tspan><tspan class="cls-90" x="69.42" y="115.2">o</tspan><tspan class="cls-82" x="76.46" y="115.2">f</tspan><tspan class="cls-77" x="80.17" y="115.2" xml:space="preserve"> tale</tspan><tspan class="cls-91" x="104.1" y="115.2">n</tspan><tspan class="cls-92" x="111.03" y="115.2">t.</tspan></tspan><tspan class="cls-6"><tspan x="-110.93" y="144">Lis</tspan><tspan class="cls-14" x="-95.47" y="144">t</tspan><tspan x="-91.61" y="144">eners can </tspan><tspan class="cls-18" x="-34.22" y="144">c</tspan><tspan x="-27.7" y="144">omme</tspan><tspan class="cls-8" x="8.54" y="144">n</tspan><tspan x="15.48" y="144">t on </tspan><tspan class="cls-18" x="39.75" y="144">c</tspan><tspan x="46.28" y="144">ertain parts </tspan><tspan class="cls-54" x="111.85" y="144">o</tspan><tspan class="cls-55" x="118.89" y="144">f</tspan><tspan class="cls-52" x="122.6" y="144" xml:space="preserve"> songs, ta</tspan><tspan class="cls-26" x="175.22" y="144">k</tspan><tspan x="181.26" y="144">e </tspan><tspan x="-110.93" y="158.4">music and </tspan><tspan class="cls-15" x="-50.61" y="158.4">r</tspan><tspan x="-46.71" y="158.4">emix it </tspan><tspan class="cls-21" x="-7.21" y="158.4">f</tspan><tspan x="-3.57" y="158.4">o</tspan><tspan class="cls-22" x="3.57" y="158.4">r</tspan><tspan x="7.5" y="158.4" xml:space="preserve"> thei</tspan><tspan class="cls-36" x="31.23" y="158.4">r</tspan><tspan x="35.16" y="158.4"> </tspan><tspan class="cls-13" x="38.22" y="158.4">o</tspan><tspan x="45.13" y="158.4">wn p</tspan><tspan class="cls-15" x="72.35" y="158.4">r</tspan><tspan class="cls-54" x="76.25" y="158.4">o</tspan><tspan x="83.29" y="158.4">file. </tspan><tspan class="cls-68" x="-110.93" y="187.2">W</tspan><tspan x="-99.15" y="187.2">eb app is used mo</tspan><tspan class="cls-21" x="3" y="187.2">r</tspan><tspan x="6.9" y="187.2">e than mobile.</tspan></tspan></text></svg>