<?xml version="1.0" encoding="utf-8"?>
<!-- Generator: Adobe Illustrator 22.1.0, SVG Export Plug-In . SVG Version: 6.00 Build 0)  -->
<svg version="1.1" id="Layer_1" xmlns="http://www.w3.org/2000/svg" xmlns:xlink="http://www.w3.org/1999/xlink" x="0px" y="0px"
	 viewBox="0 0 960 540" style="enable-background:new 0 0 960 540;" xml:space="preserve">
<style type="text/css">
	.st0{fill-opacity:0;}
	.st1{fill:none;stroke:#595959;stroke-width:4;stroke-linejoin:round;stroke-miterlimit:10;}
	.st2{fill:#6B6647;}
	.st3{fill:#FDFAEA;}
	.st4{fill:#E28061;}
	.st5{fill:#CF4625;}
	.st6{fill:#212529;}
	.st7{font-family:'Roboto-Regular';}
	.st8{font-size:36px;}
	.st9{letter-spacing:-2;}
</style>
<g>
	<g>
		<path class="st0" d="M764.9,342l78.1,17.4"/>
		<path class="st1" d="M764.9,342l78.1,17.4"/>
		<path class="st0" d="M225.3,365.3l8.1,151.2"/>
		<path class="st1" d="M225.3,365.3l8.1,151.2"/>
		<path class="st0" d="M469.1,491.2v-43.9"/>
		<path class="st1" d="M469.1,491.2v-43.9"/>
		<path class="st0" d="M709.6,359.3l8.1,151.2"/>
		<path class="st1" d="M709.6,359.3l8.1,151.2"/>
		<path class="st0" d="M470.9,403.2l219.8-38"/>
		<path class="st1" d="M470.9,403.2l219.8-38"/>
		<path class="st0" d="M201.4,365.2L462.2,402"/>
		<path class="st1" d="M201.4,365.2L462.2,402"/>
		<path class="st0" d="M470.9,403.1v-43.9"/>
		<path class="st1" d="M470.9,403.1v-43.9"/>
		<path class="st0" d="M224.5,288.1V332"/>
		<path class="st1" d="M224.5,288.1V332"/>
		<path class="st0" d="M466.7,286.6v43.9"/>
		<path class="st1" d="M466.7,286.6v43.9"/>
		<path class="st0" d="M717.7,276v43.9"/>
		<path class="st1" d="M717.7,276v43.9"/>
		<path class="st0" d="M448.2,191.1L228.4,229"/>
		<path class="st1" d="M448.2,191.1L228.4,229"/>
		<path class="st0" d="M717.7,229l-260.8-36.8"/>
		<path class="st1" d="M717.7,229l-260.8-36.8"/>
		<path class="st0" d="M448.2,191.1V235"/>
		<path class="st1" d="M448.2,191.1V235"/>
		<path class="st0" d="M448.2,102.8v43.9"/>
		<path class="st1" d="M448.2,102.8v43.9"/>
		<path class="st2" d="M303.8,252.3v2.7h-2.7v-2.7H303.8z"/>
		<path class="st3" d="M210,63.3c2.2,0,4.1,0.6,5.6,1.8s2.4,2.8,2.8,4.9h-2.7c-0.3-1.4-1-2.5-2-3.2s-2.2-1.1-3.7-1.1
			c-2.2,0-3.9,0.8-5.1,2.3c-1.2,1.5-1.8,3.5-1.8,6c0,2.6,0.6,4.7,1.8,6.2s2.9,2.3,5.1,2.3c1.7,0,3-0.5,4.1-1.6s1.7-2.5,1.8-4.3h2.7
			c-0.3,2.6-1.2,4.7-2.8,6.1c-1.5,1.4-3.6,2.1-6.1,2.1c-2.9,0-5.2-1-6.9-2.9s-2.5-4.5-2.5-7.7s0.9-5.8,2.6-7.8
			C204.7,64.3,207.1,63.3,210,63.3z"/>
		<path class="st4" d="M325.2,68.2L325.2,68.2c0-5.4,4.4-9.9,9.9-9.9h226.3c2.6,0,5.1,1,7,2.9c1.8,1.8,2.9,4.4,2.9,7v39.4
			c0,5.4-4.4,9.9-9.9,9.9H335.1c-5.4,0-9.9-4.4-9.9-9.9V68.2z"/>
		<path class="st4" d="M325.2,152.7L325.2,152.7c0-5.4,4.4-9.9,9.9-9.9h226.3c2.6,0,5.1,1,7,2.9c1.8,1.8,2.9,4.4,2.9,7v39.4
			c0,5.4-4.4,9.9-9.9,9.9H335.1c-5.4,0-9.9-4.4-9.9-9.9V152.7z"/>
		<path class="st0" d="M399.6,58.3h92.9v36.2h-92.9V58.3z"/>
		<path class="st3" d="M425.5,79.1l7.6,20.4h-4.7l-1.5-4.5h-7.6l-1.6,4.5h-4.5l7.7-20.4H425.5z M423.1,84.2l-2.7,7.5h5.3L423.1,84.2
			L423.1,84.2z M447.5,79.1v3.8h-6.1v16.6h-4.5V82.9h-6.1v-3.8H447.5z M454.3,79.1v7.8h8.3v-7.8h4.5v20.4h-4.5v-8.8h-8.3v8.8h-4.5
			V79.1H454.3z"/>
		<path class="st0" d="M348.2,142.8h200V179h-200V142.8z"/>
		<path class="st3" d="M372.9,163.7c2.7,0,4.9,0.9,6.6,2.7s2.5,4.2,2.5,7.4s-0.8,5.7-2.5,7.6c-1.6,1.8-3.9,2.8-6.7,2.8h-9v-20.4h9.1
			V163.7z M372.6,180.3c1.4,0,2.6-0.5,3.6-1.5c0.9-1,1.4-2.6,1.4-4.6c0-2.3-0.5-4.1-1.5-5.1c-1-1.1-2.4-1.6-4.3-1.6h-3.3v12.9
			L372.6,180.3L372.6,180.3z M391.6,168.9c2.2,0,3.9,0.8,5.2,2.3s2,3.4,2,5.7v0.7h-10.7c0.1,1.3,0.4,2.2,1,2.8
			c0.6,0.6,1.5,0.9,2.6,0.9c0.7,0,1.4-0.2,2-0.6c0.6-0.4,1-0.8,1.2-1.4h3.6c-0.5,1.7-1.4,2.9-2.5,3.8c-1.1,0.8-2.6,1.2-4.4,1.2
			c-2.3,0-4.1-0.7-5.5-2.2c-1.4-1.5-2.1-3.3-2.1-5.6c0-2.2,0.7-4.1,2.1-5.6C387.6,169.7,389.4,168.9,391.6,168.9z M388.1,175.1h6.6
			c-0.2-1.1-0.5-1.9-1.1-2.4c-0.5-0.5-1.2-0.8-2.2-0.8s-1.8,0.3-2.3,0.8C388.5,173.4,388.2,174.1,388.1,175.1z M407.2,168.9
			c2,0,3.6,0.4,4.6,1.2c1.1,0.8,1.7,2,1.9,3.5h-3.9c-0.1-0.7-0.3-1.2-0.8-1.5s-1.1-0.5-2-0.5c-0.8,0-1.3,0.1-1.7,0.4
			c-0.4,0.2-0.5,0.6-0.5,1s0.2,0.8,0.7,1.1s1.4,0.6,2.8,0.8c2.3,0.4,3.8,1,4.5,1.7c0.8,0.7,1.2,1.6,1.2,2.7c0,1.7-0.6,3-1.8,3.8
			c-1.2,0.9-2.8,1.3-4.9,1.3c-2.1,0-3.7-0.4-5-1.3c-1.2-0.9-1.9-2.2-2-3.9h3.9c0,0.8,0.3,1.4,0.9,1.8c0.6,0.4,1.3,0.6,2.2,0.6
			c0.8,0,1.4-0.2,1.9-0.5s0.7-0.8,0.7-1.4c0-0.5-0.3-0.9-1-1.3c-0.6-0.3-1.8-0.7-3.5-1s-2.9-0.8-3.7-1.4c-0.7-0.6-1.1-1.5-1.1-2.5
			c0-1.6,0.6-2.7,1.7-3.5C403.6,169.3,405.2,168.9,407.2,168.9z M421.6,164.9v4.4h3v2.7h-3v7.4c0,0.6,0.1,1,0.3,1.3
			c0.2,0.2,0.7,0.3,1.4,0.3c0.2,0,0.5,0,0.7,0s0.4,0,0.6-0.1v3.2c-0.3,0.1-0.7,0.1-1.1,0.1c-0.4,0-0.8,0-1.2,0c-1.8,0-3-0.3-3.7-0.9
			c-0.7-0.6-1-1.5-1-2.5V172h-2.5v-2.7h2.5v-4.4H421.6z M430.8,163.7v3.3h-4.1v-3.3H430.8z M430.8,169.3v14.8h-4.1v-14.8H430.8z
			 M442.4,168.9c1.9,0,3.2,0.5,4.1,1.4c0.9,1,1.3,2.5,1.3,4.5v9.2h-4.1v-8.5c0-1.1-0.2-2-0.6-2.6c-0.4-0.6-1.1-0.9-2-0.9
			c-1.1,0-1.9,0.3-2.4,1s-0.7,1.7-0.7,3.1v7.9h-4v-14.8h3.9v2.1h0.1c0.5-0.8,1.1-1.4,1.9-1.8C440.6,169.1,441.5,168.9,442.4,168.9z
			 M457.7,168.9c2.2,0,3.8,0.4,4.9,1.1c1.1,0.7,1.6,1.7,1.6,3v7.9c0,0.6,0,1.2,0.1,1.8c0.1,0.6,0.2,1,0.4,1.3h-4.1
			c-0.1-0.2-0.1-0.5-0.2-0.7c0-0.2-0.1-0.5-0.1-0.7c-0.6,0.6-1.3,1-2.1,1.4c-0.8,0.3-1.8,0.5-2.8,0.5c-1.5,0-2.7-0.4-3.7-1.1
			c-0.9-0.8-1.4-1.9-1.4-3.3c0-1.4,0.4-2.4,1.3-3.2c0.9-0.7,2.4-1.2,4.7-1.5c1.6-0.1,2.6-0.3,3.1-0.6c0.5-0.2,0.8-0.7,0.8-1.2
			c0-0.7-0.2-1.1-0.6-1.5c-0.4-0.3-1.1-0.5-2-0.5c-0.8,0-1.5,0.2-1.9,0.6c-0.4,0.4-0.7,0.9-0.8,1.7h-4.2c0.1-1.6,0.8-2.9,2-3.7
			C453.9,169.3,455.6,168.9,457.7,168.9z M454.3,179.9c0,0.6,0.2,1,0.6,1.4c0.4,0.3,1,0.5,1.9,0.5c1.1,0,1.9-0.3,2.4-0.8
			c0.6-0.6,0.8-1.4,0.8-2.5v-1.6c-0.2,0.2-0.6,0.3-1,0.4c-0.4,0.1-1.1,0.2-2.2,0.4c-0.9,0.1-1.6,0.4-2,0.7
			C454.5,178.7,454.3,179.2,454.3,179.9z M472.4,164.9v4.4h3v2.7h-3v7.4c0,0.6,0.1,1,0.3,1.3c0.2,0.2,0.7,0.3,1.4,0.3
			c0.2,0,0.5,0,0.7,0s0.4,0,0.6-0.1v3.2c-0.3,0.1-0.7,0.1-1.1,0.1c-0.4,0-0.8,0-1.2,0c-1.8,0-3-0.3-3.7-0.9c-0.7-0.6-1-1.5-1-2.5
			V172h-2.5v-2.7h2.5v-4.4H472.4z M481.5,163.7v3.3h-4.1v-3.3H481.5z M481.5,169.3v14.8h-4.1v-14.8H481.5z M491.9,168.9
			c2.3,0,4.2,0.7,5.6,2.2c1.4,1.4,2.1,3.3,2.1,5.6c0,2.4-0.7,4.3-2.1,5.7c-1.4,1.4-3.3,2.1-5.6,2.1s-4.1-0.7-5.5-2.1
			c-1.4-1.4-2.1-3.3-2.1-5.6s0.7-4.2,2.1-5.6C487.7,169.6,489.6,168.9,491.9,168.9z M488.3,176.7c0,1.6,0.3,2.7,1,3.5
			c0.6,0.8,1.5,1.2,2.6,1.2c1.2,0,2.1-0.4,2.7-1.2c0.6-0.8,0.9-2,0.9-3.5s-0.3-2.6-0.9-3.5c-0.6-0.8-1.5-1.3-2.7-1.3
			c-1.1,0-1.9,0.4-2.6,1.2S488.3,175.1,488.3,176.7z M510.7,168.9c1.9,0,3.2,0.5,4.1,1.4c0.9,1,1.3,2.5,1.3,4.5v9.2H512v-8.5
			c0-1.1-0.2-2-0.6-2.6c-0.4-0.6-1.1-0.9-2-0.9c-1.1,0-1.9,0.3-2.4,1s-0.7,1.7-0.7,3.1v7.9h-4v-14.8h3.9v2.1h0.1
			c0.5-0.8,1.1-1.4,1.9-1.8C508.8,169.1,509.7,168.9,510.7,168.9z"/>
		<path class="st4" d="M148.7,238.8L148.7,238.8c0-5.4,4.4-9.9,9.9-9.9h132.1c2.6,0,5.1,1,7,2.9c1.8,1.8,2.9,4.4,2.9,7v39.4
			c0,5.4-4.4,9.9-9.9,9.9H158.5l0,0c-5.4,0-9.9-4.4-9.9-9.9L148.7,238.8L148.7,238.8z"/>
		<path class="st0" d="M171.7,229h113.5v36.2H171.7V229z"/>
		<path class="st3" d="M196.8,249.8c2.1,0,3.8,0.6,5.1,1.8c1.2,1.2,1.9,2.8,1.9,4.7c0,2-0.6,3.6-1.9,4.8c-1.2,1.2-2.9,1.8-5.1,1.8
			h-4.9v7.3h-4.5v-20.4L196.8,249.8L196.8,249.8z M195.5,259.4c1.3,0,2.2-0.2,2.8-0.7s1-1.3,1-2.3s-0.3-1.8-0.9-2.3
			c-0.6-0.5-1.6-0.8-2.9-0.8h-3.6v6.1H195.5z M210.3,249.8v20.4h-4.1v-20.4L210.3,249.8L210.3,249.8z M220.2,255
			c2.2,0,3.8,0.4,4.9,1.1c1.1,0.7,1.6,1.7,1.6,3v7.9c0,0.6,0,1.2,0.1,1.8c0.1,0.6,0.2,1,0.4,1.3h-4.1c-0.1-0.2-0.1-0.5-0.2-0.7
			c0-0.2-0.1-0.5-0.1-0.7c-0.6,0.6-1.3,1-2.1,1.4c-0.8,0.3-1.8,0.5-2.8,0.5c-1.5,0-2.7-0.4-3.7-1.1c-0.9-0.8-1.4-1.9-1.4-3.3
			s0.4-2.4,1.3-3.2c0.9-0.7,2.4-1.2,4.7-1.5c1.6-0.1,2.6-0.3,3.1-0.6c0.5-0.2,0.8-0.7,0.8-1.2c0-0.7-0.2-1.1-0.6-1.5
			c-0.4-0.3-1.1-0.5-2-0.5c-0.8,0-1.5,0.2-1.9,0.6s-0.7,0.9-0.8,1.7h-4.1c0.1-1.6,0.8-2.9,2-3.7C216.5,255.5,218.1,255,220.2,255z
			 M216.9,266c0,0.6,0.2,1,0.6,1.4c0.4,0.3,1,0.5,1.9,0.5c1.1,0,1.9-0.3,2.4-0.8c0.6-0.6,0.8-1.4,0.8-2.5V263
			c-0.2,0.2-0.6,0.3-1,0.4s-1.1,0.2-2.2,0.4c-0.9,0.1-1.6,0.4-2,0.7C217.1,264.9,216.9,265.4,216.9,266z M238.3,255
			c1.9,0,3.2,0.5,4.1,1.4c0.9,1,1.3,2.5,1.3,4.5v9.2h-4v-8.5c0-1.1-0.2-2-0.6-2.6c-0.4-0.6-1.1-0.9-2-0.9c-1.1,0-1.9,0.3-2.4,1
			s-0.7,1.7-0.7,3.1v7.9h-4v-14.6h3.9v2.1h0.1c0.5-0.8,1.1-1.4,1.9-1.8C236.5,255.3,237.4,255,238.3,255z M253.6,255
			c2.2,0,3.9,0.8,5.2,2.3s2,3.4,2,5.7v0.7h-10.7c0.1,1.3,0.4,2.2,1,2.8c0.6,0.6,1.5,0.9,2.6,0.9c0.7,0,1.4-0.2,2-0.6
			c0.6-0.4,1-0.8,1.2-1.4h3.6c-0.5,1.7-1.4,2.9-2.5,3.8c-1.1,0.8-2.6,1.2-4.4,1.2c-2.3,0-4.1-0.7-5.5-2.2s-2.1-3.3-2.1-5.6
			c0-2.2,0.7-4.1,2.1-5.6C249.6,255.8,251.4,255,253.6,255z M250.1,261.2h6.6c-0.2-1.1-0.5-1.9-1.1-2.4c-0.5-0.5-1.2-0.8-2.2-0.8
			s-1.8,0.3-2.3,0.8C250.6,259.5,250.2,260.3,250.1,261.2z"/>
		<path class="st4" d="M391,238.8L391,238.8c0-5.4,4.4-9.9,9.9-9.9H533c2.6,0,5.1,1,7,2.9c1.8,1.8,2.9,4.4,2.9,7v39.4
			c0,5.4-4.4,9.9-9.9,9.9H400.8l0,0c-5.4,0-9.9-4.4-9.9-9.9L391,238.8L391,238.8z"/>
		<path class="st0" d="M413.6,229h200v36.2h-200L413.6,229L413.6,229z"/>
		<path class="st3" d="M444.5,249.8v3.8h-6.1v16.6h-4.5v-16.6h-6.2v-3.8H444.5z M452.5,255c0.2,0,0.4,0,0.5,0c0.1,0,0.3,0,0.4,0.1
			v3.8c-0.2,0-0.4-0.1-0.7-0.1c-0.2,0-0.5,0-0.8,0c-1.4,0-2.4,0.4-3,1.3c-0.7,0.8-1,1.9-1,3.4v6.8h-4v-14.8h3.9v2.7l0,0
			c0.4-1,1.1-1.7,1.9-2.3C450.6,255.3,451.5,255,452.5,255z M461.4,255c2.2,0,3.8,0.4,4.9,1.1c1.1,0.7,1.6,1.7,1.6,3v7.9
			c0,0.6,0,1.2,0.1,1.8c0.1,0.6,0.2,1,0.4,1.3h-4.1c-0.1-0.2-0.1-0.5-0.2-0.7c0-0.2-0.1-0.5-0.1-0.7c-0.6,0.6-1.3,1-2.1,1.4
			c-0.8,0.3-1.8,0.5-2.8,0.5c-1.5,0-2.7-0.4-3.7-1.1c-0.9-0.8-1.4-1.9-1.4-3.3s0.4-2.4,1.3-3.2c0.9-0.7,2.4-1.2,4.7-1.5
			c1.6-0.1,2.6-0.3,3.1-0.6c0.5-0.2,0.8-0.7,0.8-1.2c0-0.7-0.2-1.1-0.6-1.5c-0.4-0.3-1.1-0.5-2-0.5c-0.8,0-1.5,0.2-1.9,0.6
			c-0.4,0.4-0.7,0.9-0.8,1.7h-4.1c0.1-1.6,0.8-2.9,2-3.7C457.6,255.5,459.3,255,461.4,255z M458,266c0,0.6,0.2,1,0.6,1.4
			c0.4,0.3,1,0.5,1.9,0.5c1.1,0,1.9-0.3,2.4-0.8c0.6-0.6,0.8-1.4,0.8-2.5V263c-0.2,0.2-0.6,0.3-1,0.4c-0.4,0.1-1.1,0.2-2.2,0.4
			c-0.9,0.1-1.6,0.4-2,0.7C458.2,264.9,458,265.4,458,266z M475.2,249.8v3.3h-4.1v-3.3H475.2z M475.2,255.5v14.8h-4.1v-14.8H475.2z
			 M486.8,255c1.9,0,3.2,0.5,4.1,1.4c0.9,1,1.3,2.5,1.3,4.5v9.2h-4.1v-8.5c0-1.1-0.2-2-0.6-2.6c-0.4-0.6-1.1-0.9-2-0.9
			c-1.1,0-1.9,0.3-2.4,1s-0.7,1.7-0.7,3.1v7.9h-4v-14.6h3.9v2.1h0.1c0.5-0.8,1.1-1.4,1.9-1.8C485,255.3,485.9,255,486.8,255z"/>
		<path class="st4" d="M633.3,238.8L633.3,238.8c0-5.4,4.4-9.9,9.9-9.9h132.1c2.6,0,5.1,1,7,2.9c1.8,1.8,2.9,4.4,2.9,7v39.4
			c0,5.4-4.4,9.9-9.9,9.9H643.2l0,0c-5.4,0-9.9-4.4-9.9-9.9V238.8z"/>
		<path class="st0" d="M656.4,229h122.8v36.2H656.4V229z"/>
		<path class="st3" d="M686.5,249.8v3.8h-9.9v4.7h8.5v3.5h-8.5v8.4h-4.5v-20.4L686.5,249.8L686.5,249.8z M694.3,255
			c2.2,0,3.9,0.8,5.2,2.3s2,3.4,2,5.7v0.7h-10.7c0.1,1.3,0.4,2.2,1,2.8c0.6,0.6,1.5,0.9,2.6,0.9c0.7,0,1.4-0.2,2-0.6s1-0.8,1.2-1.4
			h3.6c-0.5,1.7-1.4,2.9-2.5,3.8c-1.1,0.8-2.6,1.2-4.4,1.2c-2.3,0-4.1-0.7-5.5-2.2s-2.1-3.3-2.1-5.6c0-2.2,0.7-4.1,2.1-5.6
			C690.2,255.8,692,255,694.3,255z M690.8,261.2h6.6c-0.2-1.1-0.5-1.9-1.1-2.4c-0.5-0.5-1.2-0.8-2.2-0.8s-1.8,0.3-2.3,0.8
			C691.2,259.5,690.9,260.3,690.8,261.2z M712.4,255c0.2,0,0.4,0,0.5,0s0.3,0,0.4,0.1v3.8c-0.2,0-0.4-0.1-0.7-0.1
			c-0.2,0-0.5,0-0.8,0c-1.4,0-2.4,0.4-3,1.3c-0.7,0.8-1,1.9-1,3.4v6.8h-4v-14.8h3.9v2.7l0,0c0.4-1,1.1-1.7,1.9-2.3
			C710.5,255.3,711.4,255,712.4,255z M723.6,255c0.2,0,0.4,0,0.5,0s0.3,0,0.4,0.1v3.8c-0.2,0-0.4-0.1-0.7-0.1c-0.2,0-0.5,0-0.8,0
			c-1.4,0-2.4,0.4-3,1.3c-0.7,0.8-1,1.9-1,3.4v6.8h-4v-14.8h3.9v2.7l0,0c0.4-1,1.1-1.7,1.9-2.3C721.6,255.3,722.6,255,723.6,255z
			 M729.1,255.5l3.4,10.1h0.1l3.2-10.1h4.2l-6.3,16.9c-0.4,1-0.9,1.7-1.7,2.3c-0.8,0.5-1.8,0.8-3,0.8c-0.6,0-1.1,0-1.5,0
			s-0.8,0-1.2-0.1v-3.3c0.5,0,0.9,0.1,1.2,0.1s0.6,0,0.9,0c0.6,0,1-0.2,1.3-0.6s0.5-0.8,0.5-1.3c0-0.1,0-0.3,0-0.4s-0.1-0.3-0.1-0.5
			l-5.2-13.9H729.1z"/>
		<path class="st4" d="M148.7,318.4L148.7,318.4c0-5.4,4.4-9.9,9.9-9.9h132.1c2.6,0,5.1,1,7,2.9c1.8,1.8,2.9,4.4,2.9,7v39.4
			c0,5.4-4.4,9.9-9.9,9.9H158.5l0,0c-5.4,0-9.9-4.4-9.9-9.9L148.7,318.4L148.7,318.4z"/>
		<path class="st0" d="M171.7,308.6h113.5v36.2H171.7V308.6z"/>
		<path class="st3" d="M202.6,329.4v3.8h-6.1v16.6H192v-16.6h-6.1v-3.8H202.6z M209.2,329.4v3.3h-4.1v-3.3H209.2z M209.2,335v14.8
			h-4.1V335H209.2z M220.9,334.6c1.1,0,2,0.2,2.7,0.6s1.2,1,1.6,1.8c0.6-0.8,1.2-1.4,2-1.8s1.6-0.6,2.5-0.6c1.8,0,3.1,0.5,4,1.4
			s1.4,2.2,1.4,3.8v10H231v-8.5c0-1.3-0.2-2.2-0.6-2.7c-0.4-0.5-1-0.7-1.9-0.7s-1.6,0.3-2,0.9s-0.7,1.5-0.7,2.7v8.4h-4.1v-9.1
			c0-1-0.2-1.7-0.6-2.2c-0.4-0.5-1-0.7-1.9-0.7c-0.8,0-1.4,0.3-2,0.9c-0.5,0.6-0.8,1.4-0.8,2.4v8.7h-4.1v-14.8h3.8v2l0,0
			c0.6-0.8,1.3-1.4,2-1.8C219.1,334.8,220,334.6,220.9,334.6z M245.1,334.6c2.2,0,3.9,0.8,5.2,2.3s2,3.4,2,5.7v0.7h-10.7
			c0.1,1.3,0.4,2.2,1,2.8c0.6,0.6,1.5,0.9,2.6,0.9c0.7,0,1.4-0.2,2-0.6s1-0.8,1.2-1.4h3.6c-0.5,1.7-1.4,2.9-2.5,3.8
			c-1.1,0.8-2.6,1.2-4.4,1.2c-2.3,0-4.1-0.7-5.5-2.2s-2.1-3.3-2.1-5.6c0-2.2,0.7-4.1,2.1-5.6C241,335.4,242.9,334.6,245.1,334.6z
			 M241.6,340.8h6.6c-0.2-1.1-0.5-1.9-1.1-2.4c-0.5-0.5-1.2-0.8-2.2-0.8s-1.8,0.3-2.3,0.8C242,339.1,241.7,339.9,241.6,340.8z"/>
		<path class="st4" d="M391,318.4L391,318.4c0-5.4,4.4-9.9,9.9-9.9H533c2.6,0,5.1,1,7,2.9c1.8,1.8,2.9,4.4,2.9,7v39.4
			c0,5.4-4.4,9.9-9.9,9.9H400.8l0,0c-5.4,0-9.9-4.4-9.9-9.9L391,318.4L391,318.4z"/>
		<path class="st0" d="M413.6,308.6h200v36.2h-200L413.6,308.6L413.6,308.6z"/>
		<path class="st3" d="M444.5,329.4v3.8h-6.1v16.6h-4.5v-16.6h-6.2v-3.8H444.5z M451.1,329.4v3.3H447v-3.3H451.1z M451.1,335v14.8
			H447V335H451.1z M462.8,334.6c1.1,0,2,0.2,2.7,0.6s1.2,1,1.6,1.8c0.6-0.8,1.2-1.4,2-1.8s1.6-0.6,2.5-0.6c1.8,0,3.1,0.5,4,1.4
			c0.9,0.9,1.4,2.2,1.4,3.8v10h-4.1v-8.5c0-1.3-0.2-2.2-0.6-2.7c-0.4-0.5-1-0.7-1.9-0.7c-0.9,0-1.6,0.3-2,0.9
			c-0.4,0.6-0.7,1.5-0.7,2.7v8.4h-4.1v-9.1c0-1-0.2-1.7-0.6-2.2c-0.4-0.5-1-0.7-1.9-0.7c-0.8,0-1.4,0.3-2,0.9
			c-0.5,0.6-0.8,1.4-0.8,2.4v8.7h-4.1v-14.8h3.8v2l0,0c0.6-0.8,1.3-1.4,2-1.8C461,334.8,461.8,334.6,462.8,334.6z M487,334.6
			c2.2,0,3.9,0.8,5.2,2.3c1.3,1.5,2,3.4,2,5.7v0.7h-10.7c0.1,1.3,0.4,2.2,1,2.8c0.6,0.6,1.5,0.9,2.6,0.9c0.7,0,1.4-0.2,2-0.6
			c0.6-0.4,1-0.8,1.2-1.4h3.6c-0.5,1.7-1.4,2.9-2.5,3.8c-1.1,0.8-2.6,1.2-4.4,1.2c-2.3,0-4.1-0.7-5.5-2.2c-1.4-1.5-2.1-3.3-2.1-5.6
			c0-2.2,0.7-4.1,2.1-5.6C482.9,335.4,484.7,334.6,487,334.6z M483.5,340.8h6.6c-0.2-1.1-0.5-1.9-1.1-2.4c-0.5-0.5-1.2-0.8-2.2-0.8
			s-1.8,0.3-2.3,0.8C483.9,339.1,483.6,339.9,483.5,340.8z"/>
		<path class="st4" d="M633.3,318.4L633.3,318.4c0-5.4,4.4-9.9,9.9-9.9h132.1c2.6,0,5.1,1,7,2.9c1.8,1.8,2.9,4.4,2.9,7v39.4
			c0,5.4-4.4,9.9-9.9,9.9H643.2l0,0c-5.4,0-9.9-4.4-9.9-9.9V318.4z"/>
		<path class="st0" d="M656.4,308.6h122.8v36.2H656.4V308.6z"/>
		<path class="st3" d="M687.2,329.4v3.8h-6.1v16.6h-4.5v-16.6h-6.1v-3.8H687.2z M693.8,329.4v3.3h-4.1v-3.3H693.8z M693.8,335v14.8
			h-4.1V335H693.8z M705.5,334.6c1.1,0,2,0.2,2.7,0.6s1.2,1,1.6,1.8c0.6-0.8,1.2-1.4,2-1.8s1.6-0.6,2.5-0.6c1.8,0,3.1,0.5,4,1.4
			s1.4,2.2,1.4,3.8v10h-4v-8.5c0-1.3-0.2-2.2-0.6-2.7c-0.4-0.5-1-0.7-1.9-0.7s-1.6,0.3-2,0.9s-0.7,1.5-0.7,2.7v8.4h-4.1v-9.1
			c0-1-0.2-1.7-0.6-2.2c-0.4-0.5-1-0.7-1.9-0.7c-0.8,0-1.4,0.3-2,0.9c-0.5,0.6-0.8,1.4-0.8,2.4v8.7H697v-14.8h3.8v2l0,0
			c0.6-0.8,1.3-1.4,2-1.8C703.8,334.8,704.6,334.6,705.5,334.6z M729.7,334.6c2.2,0,3.9,0.8,5.2,2.3s2,3.4,2,5.7v0.7h-10.7
			c0.1,1.3,0.4,2.2,1,2.8c0.6,0.6,1.5,0.9,2.6,0.9c0.7,0,1.4-0.2,2-0.6s1-0.8,1.2-1.4h3.6c-0.5,1.7-1.4,2.9-2.5,3.8
			c-1.1,0.8-2.6,1.2-4.4,1.2c-2.3,0-4.1-0.7-5.5-2.2s-2.1-3.3-2.1-5.6c0-2.2,0.7-4.1,2.1-5.6C725.7,335.4,727.5,334.6,729.7,334.6z
			 M726.3,340.8h6.6c-0.2-1.1-0.5-1.9-1.1-2.4c-0.5-0.5-1.2-0.8-2.2-0.8s-1.8,0.3-2.3,0.8C726.7,339.1,726.3,339.9,726.3,340.8z"/>
		<path class="st4" d="M343.9,398L343.9,398c0-5.4,4.4-9.9,9.9-9.9h226.3c2.6,0,5.1,1,7,2.9c1.8,1.8,2.9,4.4,2.9,7v39.5
			c0,5.4-4.4,9.9-9.9,9.9H353.7c-5.4,0-9.9-4.4-9.9-9.9V398H343.9z"/>
		<path class="st0" d="M366.9,388.2h204.4v36.2H366.9V388.2z"/>
		<path class="st3" d="M391.8,408.5c2.3,0,4.3,0.7,5.9,2c1.6,1.3,2.6,3.1,2.9,5.4h-4.3c-0.2-1.1-0.7-1.9-1.6-2.6
			c-0.9-0.7-1.8-1-2.9-1c-1.8,0-3.1,0.6-4.1,1.9s-1.4,3-1.4,5.1c0,2,0.5,3.7,1.4,4.9c1,1.3,2.3,1.9,4.1,1.9c1.3,0,2.3-0.4,3.1-1.2
			c0.8-0.8,1.3-1.9,1.5-3.4h4.4c-0.3,2.6-1.2,4.6-2.8,6.1s-3.7,2.2-6.1,2.2c-2,0-3.7-0.4-5.2-1.3s-2.7-2.2-3.6-3.8
			c-0.8-1.6-1.2-3.5-1.2-5.5c0-3.1,0.9-5.7,2.8-7.7C386.3,409.5,388.8,408.5,391.8,408.5z M410.6,414.2c2.3,0,4.2,0.7,5.6,2.2
			c1.4,1.4,2.1,3.3,2.1,5.6c0,2.4-0.7,4.3-2.1,5.7c-1.4,1.4-3.3,2.1-5.6,2.1c-2.3,0-4.1-0.7-5.5-2.1c-1.4-1.4-2.1-3.3-2.1-5.6
			c0-2.3,0.7-4.2,2.1-5.6C406.4,414.9,408.2,414.2,410.6,414.2z M407,422c0,1.6,0.3,2.7,1,3.5c0.6,0.8,1.5,1.2,2.6,1.2
			c1.2,0,2.1-0.4,2.7-1.2c0.6-0.8,0.9-2,0.9-3.5s-0.3-2.6-0.9-3.5c-0.6-0.8-1.5-1.3-2.7-1.3c-1.1,0-1.9,0.4-2.6,1.2
			C407.3,419.2,407,420.4,407,422z M429.3,414.2c1.9,0,3.2,0.5,4.1,1.4c0.9,1,1.3,2.5,1.3,4.5v9.2h-4v-8.5c0-1.1-0.2-2-0.6-2.6
			c-0.4-0.6-1.1-0.9-2-0.9c-1.1,0-1.9,0.3-2.4,1s-0.7,1.7-0.7,3.1v7.9h-4v-14.8h3.9v2.1h0.1c0.5-0.8,1.1-1.4,1.9-1.8
			C427.5,414.4,428.4,414.2,429.3,414.2z M446.3,414.2c1.9,0,3.2,0.5,4.1,1.4c0.9,1,1.3,2.5,1.3,4.5v9.2h-4.1v-8.5
			c0-1.1-0.2-2-0.6-2.6c-0.4-0.6-1.1-0.9-2-0.9c-1.1,0-1.9,0.3-2.4,1s-0.7,1.7-0.7,3.1v7.9h-4v-14.8h3.9v2.1h0.1
			c0.5-0.8,1.1-1.4,1.9-1.8C444.4,414.4,445.3,414.2,446.3,414.2z M461.6,414.2c2.2,0,3.9,0.8,5.2,2.3s2,3.4,2,5.7v0.7h-10.7
			c0.1,1.3,0.4,2.2,1,2.8c0.6,0.6,1.5,0.9,2.6,0.9c0.7,0,1.4-0.2,2-0.6c0.6-0.4,1-0.8,1.2-1.4h3.6c-0.5,1.7-1.4,2.9-2.5,3.8
			c-1.1,0.8-2.6,1.2-4.4,1.2c-2.3,0-4.1-0.7-5.5-2.2c-1.4-1.5-2.1-3.3-2.1-5.6c0-2.2,0.7-4.1,2.1-5.6
			C457.5,415,459.3,414.2,461.6,414.2z M458.1,420.4h6.6c-0.2-1.1-0.5-1.9-1.1-2.4c-0.5-0.5-1.2-0.8-2.2-0.8s-1.8,0.3-2.3,0.8
			S458.2,419.5,458.1,420.4z M478.2,414.2c1.9,0,3.5,0.5,4.8,1.5s2,2.4,2.1,4.1h-4c-0.1-0.8-0.4-1.5-0.9-1.9s-1.2-0.6-2.1-0.6
			c-1.1,0-1.9,0.4-2.5,1.3c-0.6,0.9-0.9,2.1-0.9,3.5s0.3,2.5,0.9,3.4c0.6,0.8,1.4,1.3,2.5,1.3c0.9,0,1.6-0.3,2.2-0.8
			c0.6-0.5,0.9-1.3,1.1-2.2h3.9c-0.3,2-1,3.5-2.3,4.5c-1.2,1-2.8,1.6-4.8,1.6c-2.2,0-4-0.7-5.4-2.1c-1.4-1.4-2.1-3.2-2.1-5.5
			c0-2.4,0.7-4.3,2-5.8C474.1,415,475.9,414.2,478.2,414.2z M492.7,410.2v4.4h3v2.7h-3v7.4c0,0.6,0.1,1,0.3,1.3
			c0.2,0.2,0.7,0.3,1.4,0.3c0.2,0,0.5,0,0.7,0s0.4,0,0.6-0.1v3.2c-0.3,0.1-0.7,0.1-1.1,0.1c-0.4,0-0.8,0-1.2,0c-1.8,0-3-0.3-3.7-0.9
			s-1-1.5-1-2.5v-8.8h-2.5v-2.7h2.5v-4.4H492.7z M501.8,409v3.3h-4.1V409H501.8z M501.8,414.6v14.8h-4.1v-14.8H501.8z M512.1,414.2
			c2.3,0,4.2,0.7,5.6,2.2c1.4,1.4,2.1,3.3,2.1,5.6c0,2.4-0.7,4.3-2.1,5.7c-1.4,1.4-3.3,2.1-5.6,2.1c-2.3,0-4.1-0.7-5.5-2.1
			c-1.4-1.4-2.1-3.3-2.1-5.6c0-2.3,0.7-4.2,2.1-5.6C508,414.9,509.8,414.2,512.1,414.2z M508.6,422c0,1.6,0.3,2.7,1,3.5
			c0.6,0.8,1.5,1.2,2.6,1.2c1.2,0,2.1-0.4,2.7-1.2c0.6-0.8,0.9-2,0.9-3.5s-0.3-2.6-0.9-3.5c-0.6-0.8-1.5-1.3-2.7-1.3
			c-1.1,0-1.9,0.4-2.6,1.2C508.9,419.2,508.6,420.4,508.6,422z M530.9,414.2c1.9,0,3.2,0.5,4.1,1.4c0.9,1,1.3,2.5,1.3,4.5v9.2h-4.1
			v-8.5c0-1.1-0.2-2-0.6-2.6c-0.4-0.6-1.1-0.9-2-0.9c-1.1,0-1.9,0.3-2.4,1s-0.7,1.7-0.7,3.1v7.9h-4v-14.8h3.9v2.1h0.1
			c0.5-0.8,1.1-1.4,1.9-1.8C529.1,414.4,530,414.2,530.9,414.2z M545.4,414.2c2,0,3.6,0.4,4.6,1.2c1.1,0.8,1.7,2,1.9,3.5H548
			c-0.1-0.7-0.3-1.2-0.8-1.5s-1.1-0.5-2-0.5c-0.8,0-1.3,0.1-1.7,0.4c-0.4,0.2-0.5,0.6-0.5,1s0.2,0.8,0.7,1.1
			c0.5,0.3,1.4,0.6,2.8,0.8c2.3,0.4,3.8,1,4.5,1.7c0.8,0.7,1.2,1.6,1.2,2.7c0,1.7-0.6,3-1.8,3.8c-1.2,0.9-2.8,1.3-4.9,1.3
			c-2.1,0-3.7-0.4-5-1.3c-1.2-0.9-1.9-2.2-2-3.9h3.9c0,0.8,0.3,1.4,0.9,1.8c0.6,0.4,1.3,0.6,2.2,0.6c0.8,0,1.4-0.2,1.9-0.5
			s0.7-0.8,0.7-1.4c0-0.5-0.3-0.9-1-1.3c-0.6-0.3-1.8-0.7-3.5-1s-2.9-0.8-3.7-1.4c-0.7-0.6-1.1-1.5-1.1-2.5c0-1.6,0.6-2.7,1.7-3.5
			C541.8,414.6,543.4,414.2,545.4,414.2z"/>
		<path class="st4" d="M615.6,484.2L615.6,484.2c0-5.4,4.4-9.9,9.9-9.9h160c2.6,0,5.1,1,7,2.9c1.8,1.8,2.9,4.4,2.9,7v39.4
			c0,5.4-4.4,9.9-9.9,9.9h-160c-5.4,0-9.9-4.4-9.9-9.9V484.2z"/>
		<path class="st0" d="M615.6,474.3H820v36.2H615.6V474.3z"/>
		<path class="st3" d="M640.5,494.6c2.3,0,4.3,0.7,5.9,2c1.6,1.3,2.6,3.1,2.9,5.4H645c-0.2-1.1-0.7-1.9-1.6-2.6
			c-0.9-0.7-1.8-1-2.9-1c-1.8,0-3.1,0.6-4.1,1.9s-1.4,3-1.4,5.1c0,2,0.5,3.7,1.4,4.9c1,1.3,2.3,1.9,4.1,1.9c1.3,0,2.3-0.4,3.1-1.2
			s1.3-1.9,1.5-3.4h4.4c-0.3,2.6-1.2,4.6-2.8,6.1s-3.7,2.2-6.1,2.2c-2,0-3.7-0.4-5.2-1.3c-1.5-0.9-2.7-2.2-3.6-3.8
			c-0.8-1.6-1.2-3.5-1.2-5.5c0-3.1,0.9-5.7,2.8-7.7C635,495.7,637.4,494.6,640.5,494.6z M658.5,500.4c2.2,0,3.8,0.4,4.9,1.1
			c1.1,0.7,1.6,1.7,1.6,3v7.9c0,0.6,0,1.2,0.1,1.8s0.2,1,0.4,1.3h-4.1c-0.1-0.2-0.1-0.5-0.2-0.7s-0.1-0.5-0.1-0.7
			c-0.6,0.6-1.3,1-2.1,1.4c-0.8,0.3-1.8,0.5-2.8,0.5c-1.5,0-2.7-0.4-3.7-1.1c-0.9-0.8-1.4-1.9-1.4-3.3c0-1.4,0.4-2.4,1.3-3.2
			c0.9-0.7,2.4-1.2,4.7-1.5c1.6-0.1,2.6-0.3,3.1-0.6c0.5-0.2,0.8-0.7,0.8-1.2c0-0.7-0.2-1.1-0.6-1.5c-0.4-0.3-1.1-0.5-2-0.5
			c-0.8,0-1.5,0.2-1.9,0.6s-0.7,0.9-0.8,1.7h-4.1c0.1-1.6,0.8-2.9,2-3.7C654.8,500.8,656.4,500.4,658.5,500.4z M655.2,511.4
			c0,0.6,0.2,1,0.6,1.4c0.4,0.3,1,0.5,1.9,0.5c1.1,0,1.9-0.3,2.4-0.8c0.6-0.6,0.8-1.4,0.8-2.5v-1.6c-0.2,0.2-0.6,0.3-1,0.4
			s-1.1,0.2-2.2,0.4c-0.9,0.1-1.6,0.4-2,0.7C655.4,510.2,655.2,510.7,655.2,511.4z M676.7,500.4c0.2,0,0.4,0,0.5,0s0.3,0,0.4,0.1
			v3.8c-0.2,0-0.4-0.1-0.7-0.1c-0.2,0-0.5,0-0.8,0c-1.4,0-2.4,0.4-3,1.3c-0.7,0.8-1,1.9-1,3.4v6.8h-4v-14.8h3.9v2.7l0,0
			c0.4-1,1.1-1.7,1.9-2.3C674.8,500.7,675.7,500.4,676.7,500.4z M698.7,495.2c1.6,0,3,0.5,4.2,1.6c1.1,1.1,1.7,2.4,1.7,4
			c0,1.3-0.3,2.4-0.8,3.2c-0.5,0.8-1.3,1.5-2.4,1.9l0,0c1,0.3,1.7,0.8,2.2,1.7c0.5,0.9,0.8,2.3,0.8,4.1s0.3,3.1,0.8,3.8h-4.5
			c-0.3-0.7-0.4-1.7-0.5-3.2c-0.1-2-0.5-3.3-1-3.9s-1.3-0.9-2.4-0.9h-4.6v8h-4.5v-20.4h11V495.2z M697.1,504.4
			c0.9,0,1.7-0.2,2.2-0.7s0.8-1.2,0.8-2.2s-0.3-1.7-0.8-2.1c-0.5-0.5-1.3-0.7-2.2-0.7h-5v5.7L697.1,504.4L697.1,504.4z M714.7,500.4
			c2.2,0,3.9,0.8,5.2,2.3s2,3.4,2,5.7v0.7h-10.7c0.1,1.3,0.4,2.2,1,2.8c0.6,0.6,1.5,0.9,2.6,0.9c0.7,0,1.4-0.2,2-0.6
			c0.6-0.4,1-0.8,1.2-1.4h3.6c-0.5,1.7-1.4,2.9-2.5,3.8c-1.1,0.8-2.6,1.2-4.4,1.2c-2.3,0-4.1-0.7-5.5-2.2s-2.1-3.3-2.1-5.6
			c0-2.2,0.7-4.1,2.1-5.6C710.6,501.1,712.5,500.4,714.7,500.4z M711.2,506.6h6.6c-0.2-1.1-0.5-1.9-1.1-2.4
			c-0.5-0.5-1.2-0.8-2.2-0.8s-1.8,0.3-2.3,0.8C711.6,504.8,711.3,505.6,711.2,506.6z M732.7,500.4c1.9,0,3.2,0.5,4.1,1.4
			c0.9,1,1.3,2.5,1.3,4.5v9.2H734V507c0-1.1-0.2-2-0.6-2.6c-0.4-0.6-1.1-0.9-2-0.9c-1.1,0-1.9,0.3-2.4,1s-0.7,1.7-0.7,3.1v7.9h-4
			v-14.8h3.9v2.1h0.1c0.5-0.8,1.1-1.4,1.9-1.8C730.9,500.6,731.8,500.4,732.7,500.4z M746.3,496.3v4.4h3v2.7h-3v7.4
			c0,0.6,0.1,1,0.3,1.3c0.2,0.2,0.7,0.3,1.4,0.3c0.2,0,0.5,0,0.7,0s0.4,0,0.6-0.1v3.2c-0.3,0.1-0.7,0.1-1.1,0.1c-0.4,0-0.8,0-1.2,0
			c-1.8,0-3-0.3-3.7-0.9c-0.7-0.6-1-1.5-1-2.5v-8.7h-2.5v-2.7h2.5v-4.4h4V496.3z M758,500.4c2.2,0,3.8,0.4,4.9,1.1
			c1.1,0.7,1.6,1.7,1.6,3v7.9c0,0.6,0,1.2,0.1,1.8s0.2,1,0.4,1.3h-4.1c-0.1-0.2-0.1-0.5-0.2-0.7c0-0.2-0.1-0.5-0.1-0.7
			c-0.6,0.6-1.3,1-2.1,1.4c-0.8,0.3-1.8,0.5-2.8,0.5c-1.5,0-2.7-0.4-3.7-1.1c-0.9-0.8-1.4-1.9-1.4-3.3c0-1.4,0.4-2.4,1.3-3.2
			c0.9-0.7,2.4-1.2,4.7-1.5c1.6-0.1,2.6-0.3,3.1-0.6c0.5-0.2,0.8-0.7,0.8-1.2c0-0.7-0.2-1.1-0.6-1.5c-0.4-0.3-1.1-0.5-2-0.5
			c-0.8,0-1.5,0.2-1.9,0.6s-0.7,0.9-0.8,1.7h-4.1c0.1-1.6,0.8-2.9,2-3.7C754.3,500.8,755.9,500.4,758,500.4z M754.7,511.4
			c0,0.6,0.2,1,0.6,1.4c0.4,0.3,1,0.5,1.9,0.5c1.1,0,1.9-0.3,2.4-0.8c0.6-0.6,0.8-1.4,0.8-2.5v-1.6c-0.2,0.2-0.6,0.3-1,0.4
			s-1.1,0.2-2.2,0.4c-0.9,0.1-1.6,0.4-2,0.7C754.9,510.2,754.7,510.7,754.7,511.4z M771.8,495.2v20.3h-4.1v-20.4h4.1V495.2z"/>
		<path class="st4" d="M144.9,484.2L144.9,484.2c0-5.4,4.4-9.9,9.9-9.9h184.6c2.6,0,5.1,1,7,2.9c1.8,1.8,2.9,4.4,2.9,7v39.4
			c0,5.4-4.4,9.9-9.9,9.9H154.8c-5.4,0-9.9-4.4-9.9-9.9V484.2z"/>
		<path class="st0" d="M162.5,474.3h204.4v36.2H162.5V474.3z"/>
		<path class="st3" d="M187.6,495.2c2.1,0,3.8,0.6,5.1,1.8c1.2,1.2,1.9,2.8,1.9,4.7c0,2-0.6,3.6-1.9,4.8c-1.2,1.2-2.9,1.8-5.1,1.8
			h-4.9v7.3h-4.5v-20.4L187.6,495.2L187.6,495.2z M186.4,504.7c1.3,0,2.2-0.2,2.8-0.7s1-1.3,1-2.3s-0.3-1.8-0.9-2.3
			c-0.6-0.5-1.6-0.8-2.9-0.8h-3.6v6.1L186.4,504.7L186.4,504.7z M203,500.4c2.2,0,3.8,0.4,4.9,1.1c1.1,0.7,1.6,1.7,1.6,3v7.9
			c0,0.6,0,1.2,0.1,1.8s0.2,1,0.4,1.3h-4.1c-0.1-0.2-0.1-0.5-0.2-0.7s-0.1-0.5-0.1-0.7c-0.6,0.6-1.3,1-2.1,1.4
			c-0.8,0.3-1.8,0.5-2.8,0.5c-1.5,0-2.7-0.4-3.7-1.1c-0.9-0.8-1.4-1.9-1.4-3.3c0-1.4,0.4-2.4,1.3-3.2c0.9-0.7,2.4-1.2,4.7-1.5
			c1.6-0.1,2.6-0.3,3.1-0.6c0.5-0.2,0.8-0.7,0.8-1.2c0-0.7-0.2-1.1-0.6-1.5c-0.4-0.3-1.1-0.5-2-0.5c-0.8,0-1.5,0.2-1.9,0.6
			s-0.7,0.9-0.8,1.7h-4.1c0.1-1.6,0.8-2.9,2-3.7C199.3,500.8,200.9,500.4,203,500.4z M199.7,511.4c0,0.6,0.2,1,0.6,1.4
			c0.4,0.3,1,0.5,1.9,0.5c1.1,0,1.9-0.3,2.4-0.8c0.6-0.6,0.8-1.4,0.8-2.5v-1.6c-0.2,0.2-0.6,0.3-1,0.4s-1.1,0.2-2.2,0.4
			c-0.9,0.1-1.6,0.4-2,0.7C199.9,510.2,199.7,510.7,199.7,511.4z M219.7,500.4c1.9,0,3.5,0.5,4.8,1.5s2,2.4,2.1,4.1h-4
			c-0.1-0.8-0.4-1.5-0.9-1.9s-1.2-0.6-2.1-0.6c-1.1,0-1.9,0.4-2.5,1.3s-0.9,2.1-0.9,3.5s0.3,2.5,0.9,3.4c0.6,0.8,1.4,1.3,2.5,1.3
			c0.9,0,1.6-0.3,2.2-0.8c0.6-0.5,0.9-1.3,1.1-2.2h3.9c-0.3,2-1,3.5-2.3,4.5c-1.2,1-2.8,1.6-4.8,1.6c-2.2,0-4-0.7-5.4-2.1
			c-1.4-1.4-2.1-3.2-2.1-5.5c0-2.4,0.7-4.3,2-5.8C215.6,501.1,217.4,500.4,219.7,500.4z M233.5,495.2v10.9l5.1-5.3h4.8l-5.6,5.4
			l6.2,9.4h-4.9l-4-6.6l-1.6,1.5v5.1h-4.1v-20.4L233.5,495.2L233.5,495.2z M252.2,500.4c2.2,0,3.8,0.4,4.9,1.1
			c1.1,0.7,1.6,1.7,1.6,3v7.9c0,0.6,0,1.2,0.1,1.8c0.1,0.6,0.2,1,0.4,1.3h-4.1c-0.1-0.2-0.1-0.5-0.2-0.7s-0.1-0.5-0.1-0.7
			c-0.6,0.6-1.3,1-2.1,1.4c-0.8,0.3-1.8,0.5-2.8,0.5c-1.5,0-2.7-0.4-3.7-1.1c-0.9-0.8-1.4-1.9-1.4-3.3c0-1.4,0.4-2.4,1.3-3.2
			c0.9-0.7,2.4-1.2,4.7-1.5c1.6-0.1,2.6-0.3,3.1-0.6c0.5-0.2,0.8-0.7,0.8-1.2c0-0.7-0.2-1.1-0.6-1.5c-0.4-0.3-1.1-0.5-2-0.5
			c-0.8,0-1.5,0.2-1.9,0.6s-0.7,0.9-0.8,1.7h-4.1c0.1-1.6,0.8-2.9,2-3.7C248.5,500.8,250.2,500.4,252.2,500.4z M248.9,511.4
			c0,0.6,0.2,1,0.6,1.4c0.4,0.3,1,0.5,1.9,0.5c1.1,0,1.9-0.3,2.4-0.8c0.6-0.6,0.8-1.4,0.8-2.5v-1.6c-0.2,0.2-0.6,0.3-1,0.4
			s-1.1,0.2-2.2,0.4c-0.9,0.1-1.6,0.4-2,0.7C249.1,510.2,248.9,510.7,248.9,511.4z M267.7,500.4c1.1,0,2,0.2,2.7,0.6s1.3,1,1.7,1.8
			h0.1v-2h3.9v14c0,2-0.6,3.5-1.9,4.7s-3.2,1.7-5.7,1.7c-1.7,0-3.2-0.4-4.5-1.3c-1.2-0.8-1.9-2-2-3.5h4c0.2,0.7,0.5,1.2,1.1,1.5
			c0.5,0.3,1.2,0.5,2,0.5c1.1,0,1.9-0.3,2.4-1c0.6-0.6,0.9-1.5,0.9-2.6v-2.1h-0.1c-0.4,0.7-1,1.3-1.8,1.7c-0.8,0.4-1.7,0.6-2.7,0.6
			c-2,0-3.6-0.7-4.7-2c-1.1-1.3-1.7-3.1-1.7-5.4c0-2.1,0.6-3.8,1.7-5.2C264.3,501.1,265.8,500.4,267.7,500.4z M265.5,507.6
			c0,1.4,0.3,2.5,0.9,3.3c0.6,0.8,1.4,1.2,2.4,1.2c1.1,0,1.9-0.4,2.5-1.2s0.9-1.8,0.9-2.9c0-1.5-0.3-2.6-0.9-3.4
			c-0.6-0.8-1.5-1.2-2.6-1.2c-1,0-1.8,0.4-2.4,1.1C265.8,505.3,265.5,506.4,265.5,507.6z M283.5,495.2v3.3h-4.1v-3.3H283.5z
			 M283.5,500.8v14.7h-4.1v-14.8L283.5,500.8L283.5,500.8z M295.2,500.4c1.9,0,3.2,0.5,4.1,1.4c0.9,1,1.3,2.5,1.3,4.5v9.2h-4.1V507
			c0-1.1-0.2-2-0.6-2.6s-1.1-0.9-2-0.9c-1.1,0-1.9,0.3-2.4,1s-0.7,1.7-0.7,3.1v7.9h-4v-14.8h3.9v2.1h0.1c0.5-0.8,1.1-1.4,1.9-1.8
			C293.3,500.6,294.2,500.4,295.2,500.4z M309.5,500.4c1.1,0,2,0.2,2.7,0.6s1.3,1,1.7,1.8h0.1v-2h3.9v14c0,2-0.6,3.5-1.9,4.7
			c-1.3,1.1-3.2,1.7-5.7,1.7c-1.7,0-3.2-0.4-4.5-1.3c-1.2-0.8-1.9-2-2-3.5h4c0.2,0.7,0.5,1.2,1.1,1.5c0.5,0.3,1.2,0.5,2,0.5
			c1.1,0,1.9-0.3,2.4-1c0.6-0.6,0.9-1.5,0.9-2.6v-2.1h-0.1c-0.4,0.7-1,1.3-1.8,1.7s-1.7,0.6-2.7,0.6c-2,0-3.6-0.7-4.7-2
			c-1.1-1.3-1.7-3.1-1.7-5.4c0-2.1,0.6-3.8,1.7-5.2C306.1,501.1,307.6,500.4,309.5,500.4z M307.2,507.6c0,1.4,0.3,2.5,0.9,3.3
			c0.6,0.8,1.4,1.2,2.4,1.2c1.1,0,1.9-0.4,2.5-1.2c0.6-0.8,0.9-1.8,0.9-2.9c0-1.5-0.3-2.6-0.9-3.4c-0.6-0.8-1.5-1.2-2.6-1.2
			c-1,0-1.8,0.4-2.4,1.1C307.5,505.3,307.2,506.4,307.2,507.6z"/>
		<path class="st4" d="M379.4,484.2L379.4,484.2c0-5.4,4.4-9.9,9.9-9.9h160c2.6,0,5.1,1,7,2.9c1.8,1.8,2.9,4.4,2.9,7v39.4
			c0,5.4-4.4,9.9-9.9,9.9h-160c-5.4,0-9.9-4.4-9.9-9.9V484.2z"/>
		<path class="st0" d="M393.4,474.3h151.8v36.2H393.4V474.3z"/>
		<path class="st3" d="M413.6,495.2v20.3h-4.5v-20.4h4.5V495.2z M422.3,496.3v4.4h3v2.7h-3v7.4c0,0.6,0.1,1,0.3,1.3
			c0.2,0.2,0.7,0.3,1.4,0.3c0.2,0,0.5,0,0.7,0s0.4,0,0.6-0.1v3.2c-0.3,0.1-0.7,0.1-1.1,0.1c-0.4,0-0.8,0-1.2,0c-1.8,0-3-0.3-3.7-0.9
			c-0.7-0.6-1-1.5-1-2.5v-8.7h-2.5v-2.7h2.5v-4.4h4V496.3z M431.4,495.2v3.3h-4.1v-3.3H431.4z M431.4,500.8v14.7h-4.1v-14.8
			L431.4,500.8L431.4,500.8z M443,500.4c1.9,0,3.2,0.5,4.1,1.4c0.9,1,1.3,2.5,1.3,4.5v9.2h-4.1V507c0-1.1-0.2-2-0.6-2.6
			c-0.4-0.6-1.1-0.9-2-0.9c-1.1,0-1.9,0.3-2.4,1s-0.7,1.7-0.7,3.1v7.9h-4v-14.8h3.9v2.1h0.1c0.5-0.8,1.1-1.4,1.9-1.8
			C441.2,500.6,442.1,500.4,443,500.4z M458.3,500.4c2.2,0,3.9,0.8,5.2,2.3s2,3.4,2,5.7v0.7h-10.7c0.1,1.3,0.4,2.2,1,2.8
			c0.6,0.6,1.5,0.9,2.6,0.9c0.7,0,1.4-0.2,2-0.6c0.6-0.4,1-0.8,1.2-1.4h3.6c-0.5,1.7-1.4,2.9-2.5,3.8c-1.1,0.8-2.6,1.2-4.4,1.2
			c-2.3,0-4.1-0.7-5.5-2.2c-1.4-1.5-2.1-3.3-2.1-5.6c0-2.2,0.7-4.1,2.1-5.6C454.3,501.1,456.1,500.4,458.3,500.4z M454.8,506.6h6.6
			c-0.2-1.1-0.5-1.9-1.1-2.4c-0.5-0.5-1.2-0.8-2.2-0.8s-1.8,0.3-2.3,0.8C455.3,504.8,454.9,505.6,454.8,506.6z M476.5,500.4
			c0.2,0,0.4,0,0.5,0c0.1,0,0.3,0,0.4,0.1v3.8c-0.2,0-0.4-0.1-0.7-0.1c-0.2,0-0.5,0-0.8,0c-1.4,0-2.4,0.4-3,1.3
			c-0.7,0.8-1,1.9-1,3.4v6.8h-4v-14.8h3.9v2.7l0,0c0.4-1,1.1-1.7,1.9-2.3C474.6,500.7,475.5,500.4,476.5,500.4z M485.4,500.4
			c2.2,0,3.8,0.4,4.9,1.1c1.1,0.7,1.6,1.7,1.6,3v7.9c0,0.6,0,1.2,0.1,1.8c0.1,0.6,0.2,1,0.4,1.3h-4.1c-0.1-0.2-0.1-0.5-0.2-0.7
			c0-0.2-0.1-0.5-0.1-0.7c-0.6,0.6-1.3,1-2.1,1.4c-0.8,0.3-1.8,0.5-2.8,0.5c-1.5,0-2.7-0.4-3.7-1.1c-0.9-0.8-1.4-1.9-1.4-3.3
			c0-1.4,0.4-2.4,1.3-3.2c0.9-0.7,2.4-1.2,4.7-1.5c1.6-0.1,2.6-0.3,3.1-0.6c0.5-0.2,0.8-0.7,0.8-1.2c0-0.7-0.2-1.1-0.6-1.5
			c-0.4-0.3-1.1-0.5-2-0.5c-0.8,0-1.5,0.2-1.9,0.6c-0.4,0.4-0.7,0.9-0.8,1.7h-4.1c0.1-1.6,0.8-2.9,2-3.7
			C481.6,500.8,483.3,500.4,485.4,500.4z M482,511.4c0,0.6,0.2,1,0.6,1.4c0.4,0.3,1,0.5,1.9,0.5c1.1,0,1.9-0.3,2.4-0.8
			c0.6-0.6,0.8-1.4,0.8-2.5v-1.6c-0.2,0.2-0.6,0.3-1,0.4c-0.4,0.1-1.1,0.2-2.2,0.4c-0.9,0.1-1.6,0.4-2,0.7
			C482.3,510.2,482,510.7,482,511.4z M503.6,500.4c0.2,0,0.4,0,0.5,0c0.1,0,0.3,0,0.4,0.1v3.8c-0.2,0-0.4-0.1-0.7-0.1
			c-0.2,0-0.5,0-0.8,0c-1.4,0-2.4,0.4-3,1.3c-0.7,0.8-1,1.9-1,3.4v6.8h-4v-14.8h3.9v2.7l0,0c0.4-1,1.1-1.7,1.9-2.3
			C501.7,500.7,502.6,500.4,503.6,500.4z M509.2,500.8l3.4,10.1h0.1l3.2-10.1h4.2l-6.3,16.9c-0.4,1-0.9,1.7-1.7,2.3
			c-0.8,0.5-1.8,0.8-3,0.8c-0.6,0-1.1,0-1.5,0c-0.4,0-0.8,0-1.2-0.1v-3.3c0.5,0,0.9,0.1,1.2,0.1c0.3,0,0.6,0,0.9,0
			c0.6,0,1-0.2,1.3-0.6c0.3-0.4,0.5-0.8,0.5-1.3c0-0.1,0-0.3,0-0.4c0-0.1-0.1-0.3-0.1-0.5l-5.2-13.9L509.2,500.8L509.2,500.8z"/>
		<path class="st5" d="M304.2,379.7L304.2,379.7c0-5.8,4.7-10.5,10.5-10.5l0,0c2.8,0,5.5,1.1,7.4,3.1c2,2,3.1,4.6,3.1,7.4l0,0
			c0,5.8-4.7,10.5-10.5,10.5l0,0C308.9,390.2,304.2,385.5,304.2,379.7z"/>
		<path class="st0" d="M295.2,354.4l75.6-84.7l32.7,29.2l-75.6,84.7L295.2,354.4z"/>
		<path class="st6" d="M327.1,355.3c1.1-1.3,2.2-2,3.1-2.1c0.9-0.1,1.8,0.1,2.6,0.8c3.3,2.9,5.1,4.5,5.4,4.9c0.4,0.3,0.7,0.3,1,0
			c0.1-0.1,0.1-0.2,0.2-0.2c0.1-0.1,0.1-0.2,0.2-0.3l1.2,1.1c0,0.2-0.1,0.4-0.2,0.7c-0.1,0.2-0.3,0.5-0.5,0.7
			c-0.4,0.4-0.8,0.6-1.2,0.7c-0.5,0-0.9-0.2-1.4-0.7c0.1,0.9,0,1.7-0.2,2.5s-0.7,1.5-1.3,2.2c-0.9,1-1.8,1.5-2.8,1.7
			c-1,0.1-1.9-0.2-2.7-0.9c-0.9-0.8-1.3-1.6-1.3-2.6s0.8-2.6,2.3-4.8c0.5-0.8,0.8-1.3,0.8-1.7c0-0.4-0.1-0.8-0.5-1.1
			c-0.5-0.5-1.1-0.6-1.6-0.5c-0.6,0.1-1.2,0.5-1.8,1.3c-0.7,0.8-1,1.5-1.1,2.1c-0.1,0.6,0.2,1.2,0.8,1.8l-1.4,1.6
			c-1-1-1.5-2.1-1.4-3.2C325.4,357.8,326,356.5,327.1,355.3z M331.7,364.4c0.4,0.4,0.9,0.5,1.5,0.4c0.5-0.1,1-0.5,1.6-1
			c0.8-0.9,1.2-1.8,1.2-2.7c0-0.9-0.2-1.6-0.8-2.1l-1.6-1.5c0,0.4-0.2,0.9-0.5,1.4s-0.7,1.1-1.2,1.9s-0.8,1.5-0.8,2
			C331,363.4,331.2,364,331.7,364.4z M330.5,344.7l1.9,1.7L331,348l-1.9-1.7L330.5,344.7z M334.1,347.9l9.5,8.5l-1.4,1.6l-9.5-8.5
			L334.1,347.9z M340.2,340.6C340.2,340.5,340.3,340.5,340.2,340.6c0.1-0.1,0.1-0.2,0.2-0.2l1.6,1.5c-1,1.2-1.5,2.3-1.4,3.4
			c0.1,1.1,0.8,2.2,2.1,3.4l4.2,3.8l-1.4,1.6l-9.5-8.5l1.3-1.5l2,1.8l0,0c-0.4-1-0.6-2-0.5-2.8C339.2,342.1,339.5,341.3,340.2,340.6
			z M339.5,334.5l13,11.7l-1.4,1.6l-13-11.7L339.5,334.5z M343.2,330.5l1.9,1.7l-1.4,1.6l-1.9-1.7L343.2,330.5z M346.7,333.7
			l9.5,8.5l-1.4,1.6l-9.5-8.5L346.7,333.7z M352.8,326.5c1-1.1,2-1.7,3.1-1.7c1,0,2.1,0.5,3.2,1.5l6.3,5.6l-1.4,1.6l-6.5-5.8
			c-0.5-0.5-1.1-0.7-1.8-0.7c-0.6,0-1.2,0.3-1.8,0.9c-0.8,0.9-1.1,1.8-1,2.8c0.1,1,0.6,1.8,1.4,2.6l5.4,4.8l-1.4,1.6l-9.5-8.5
			l1.3-1.5l1.5,1.3l0,0c-0.3-0.9-0.3-1.7-0.2-2.4C351.8,327.9,352.1,327.2,352.8,326.5z M361.3,317c1.2-1.4,2.6-2,4.3-1.9
			c1.7,0.1,3.2,0.9,4.8,2.2l0.2,0.2l-6.3,7.1l0.1,0.1c0.9,0.8,1.8,1.2,2.9,1.1c1,0,1.9-0.5,2.7-1.4c0.6-0.7,0.9-1.4,1-2.1
			c0.1-0.7-0.2-1.4-0.6-2l1.4-1.5c0.9,1.1,1.3,2.3,1.2,3.5s-0.6,2.3-1.6,3.4c-0.9,1-1.9,1.6-2.9,1.9c-1.1,0.3-2.1,0.2-3.2-0.1
			c-1.1-0.4-2.1-1-2.9-1.7c-1.4-1.2-2.2-2.7-2.4-4.4C359.6,319.7,360.1,318.3,361.3,317z M362.8,323.4l4.8-5.4
			c-0.8-0.6-1.7-0.9-2.6-0.9c-1,0-1.8,0.4-2.5,1.2c-0.6,0.7-0.9,1.5-0.9,2.5C361.7,321.7,362.1,322.6,362.8,323.4z M369.3,307.9
			c1.1-1.3,2.2-2,3.3-2.2c1-0.2,2.1,0.1,3.1,1l-1.4,1.6l0,0c-0.5-0.4-1.1-0.5-1.7-0.4c-0.6,0.1-1.2,0.5-1.8,1.2
			c-0.6,0.6-0.9,1.2-1,1.8c-0.1,0.5,0,1,0.4,1.3c0.3,0.3,0.8,0.4,1.3,0.3s1.1-0.5,1.8-1l1.6-1.2c1-0.7,2-1.2,2.8-1.2
			c0.8-0.1,1.6,0.2,2.3,0.8c0.9,0.8,1.3,1.8,1.2,3.1c-0.1,1.2-0.7,2.4-1.8,3.7c-1.1,1.2-2.2,1.9-3.4,2.1c-1.2,0.2-2.3-0.1-3.4-1
			l1.4-1.6c0.6,0.5,1.3,0.7,2,0.5s1.4-0.7,2.1-1.4c0.7-0.8,1.1-1.4,1.2-2c0.1-0.6-0.1-1.1-0.5-1.5c-0.4-0.4-0.9-0.5-1.5-0.3
			c-0.6,0.2-1.5,0.7-2.8,1.7s-2.4,1.5-3.2,1.6c-0.9,0.1-1.6-0.2-2.3-0.8c-0.8-0.7-1.2-1.7-1.1-2.8C367.9,310,368.4,309,369.3,307.9z
			"/>
		<path class="st5" d="M461,460.8L461,460.8c0-5.8,4.7-10.5,10.5-10.5l0,0c2.8,0,5.5,1.1,7.4,3.1c2,2,3.1,4.6,3.1,7.4l0,0
			c0,5.8-4.7,10.5-10.5,10.5l0,0C465.7,471.3,461,466.6,461,460.8z"/>
		<path class="st0" d="M492.5,427.4l127.7-0.1v44l-127.7,0.1V427.4z"/>
		<path class="st6" d="M513.2,451.8c1.5,0,2.8,0.4,3.8,1.1s1.5,1.8,1.7,3.3h-2.2c-0.2-0.8-0.5-1.4-1.1-1.9c-0.5-0.4-1.2-0.6-2.1-0.6
			c-1.3,0-2.3,0.4-2.9,1.3c-0.7,0.9-1,2.1-1,3.7c0,1.4,0.3,2.5,1,3.4c0.7,0.8,1.6,1.2,2.7,1.2c1,0,1.8-0.3,2.4-0.8
			c0.6-0.5,0.9-1.3,1.1-2.3h2.1c-0.2,1.6-0.8,2.8-1.8,3.7c-1,0.9-2.2,1.3-3.8,1.3c-1.9,0-3.3-0.6-4.4-1.7c-1.1-1.2-1.6-2.7-1.6-4.7
			c0-2.1,0.5-3.7,1.6-5C509.9,452.4,511.3,451.8,513.2,451.8z M526.2,451.8c1.7,0,2.9,0.3,3.7,0.9c0.7,0.6,1.1,1.4,1.1,2.5
			c0,4.4,0,6.8,0,7.3s0.2,0.7,0.6,0.7c0.1,0,0.2,0,0.3,0s0.2-0.1,0.3-0.1v1.6c-0.2,0.1-0.4,0.2-0.7,0.3c-0.3,0.1-0.5,0.1-0.8,0.1
			c-0.6,0-1-0.2-1.3-0.5s-0.5-0.8-0.5-1.5c-0.6,0.7-1.2,1.2-2,1.5c-0.7,0.3-1.6,0.5-2.5,0.5c-1.3,0-2.3-0.3-3.1-0.9
			c-0.7-0.6-1.1-1.5-1.1-2.6s0.4-2.1,1.1-2.7c0.7-0.7,2.4-1.2,5.1-1.5c0.9-0.1,1.5-0.3,1.8-0.5s0.5-0.6,0.5-1.1
			c0-0.7-0.2-1.2-0.7-1.6c-0.4-0.4-1.2-0.5-2.2-0.5s-1.8,0.2-2.3,0.6s-0.8,1-0.8,1.8h-2.1c0.1-1.4,0.6-2.5,1.5-3.2
			C523.3,452.1,524.6,451.8,526.2,451.8z M522.5,461.3c0,0.6,0.2,1.1,0.6,1.4c0.4,0.3,1,0.5,1.8,0.5c1.2,0,2.1-0.3,2.8-0.9
			c0.7-0.6,1.1-1.2,1.1-2v-2.2c-0.4,0.3-0.8,0.4-1.4,0.5c-0.6,0.1-1.3,0.2-2.2,0.3c-0.9,0.1-1.6,0.4-2.1,0.7
			C522.8,460.1,522.5,460.6,522.5,461.3z M540.5,451.7c1.8,0,3.2,0.6,4.3,1.9c1.1,1.2,1.6,2.8,1.6,4.8s-0.5,3.6-1.6,4.8
			c-1,1.2-2.4,1.8-4.2,1.8c-0.8,0-1.6-0.2-2.3-0.5c-0.7-0.3-1.3-0.8-1.8-1.5l0,0v6.6h-2.1v-17.5h2.1v1.7l0,0
			c0.3-0.7,0.8-1.1,1.5-1.5S539.5,451.7,540.5,451.7z M536.3,458.4c0,1.5,0.4,2.6,1.1,3.5s1.7,1.3,2.9,1.3c1.2,0,2.1-0.4,2.8-1.3
			c0.7-0.9,1-2.1,1-3.6c0-1.4-0.4-2.5-1.1-3.4s-1.6-1.3-2.9-1.3c-1.2,0-2.2,0.4-2.8,1.3C536.6,455.8,536.3,457,536.3,458.4z
			 M553.9,451.7c1.7,0,2.9,0.3,3.7,0.9c0.7,0.6,1.1,1.4,1.1,2.5c0,4.4,0,6.8,0,7.3s0.2,0.7,0.6,0.7c0.1,0,0.2,0,0.3,0
			s0.2-0.1,0.3-0.1v1.6c-0.2,0.1-0.4,0.2-0.7,0.3c-0.3,0.1-0.5,0.1-0.8,0.1c-0.6,0-1-0.2-1.3-0.5s-0.5-0.8-0.5-1.5
			c-0.6,0.7-1.2,1.2-2,1.5c-0.7,0.3-1.6,0.5-2.5,0.5c-1.3,0-2.3-0.3-3.1-0.9c-0.7-0.6-1.1-1.5-1.1-2.6s0.4-2.1,1.1-2.7
			c0.7-0.7,2.4-1.2,5.1-1.5c0.9-0.1,1.5-0.3,1.8-0.5s0.5-0.6,0.5-1.1c0-0.7-0.2-1.2-0.7-1.6c-0.4-0.4-1.2-0.5-2.2-0.5
			s-1.8,0.2-2.3,0.6s-0.8,1-0.8,1.8h-2.1c0.1-1.4,0.6-2.5,1.5-3.2C551,452.1,552.2,451.7,553.9,451.7z M550.2,461.3
			c0,0.6,0.2,1.1,0.6,1.4c0.4,0.3,1,0.5,1.8,0.5c1.2,0,2.1-0.3,2.8-0.9c0.7-0.6,1.1-1.2,1.1-2v-2.2c-0.4,0.3-0.8,0.4-1.4,0.5
			c-0.6,0.1-1.3,0.2-2.2,0.3c-0.9,0.1-1.6,0.4-2.1,0.7C550.5,460.1,550.2,460.6,550.2,461.3z M567.2,451.7c1.5,0,2.8,0.4,3.8,1.1
			s1.5,1.8,1.7,3.3h-2.2c-0.2-0.8-0.5-1.4-1.1-1.9c-0.5-0.4-1.2-0.6-2.1-0.6c-1.3,0-2.3,0.4-2.9,1.3c-0.7,0.9-1,2.1-1,3.7
			c0,1.4,0.3,2.5,1,3.4c0.7,0.8,1.6,1.2,2.7,1.2c1,0,1.8-0.3,2.4-0.8c0.6-0.5,0.9-1.3,1.1-2.3h2.1c-0.2,1.6-0.8,2.8-1.8,3.7
			c-1,0.9-2.2,1.3-3.8,1.3c-1.9,0-3.3-0.6-4.4-1.7c-1.1-1.2-1.6-2.7-1.6-4.7c0-2.1,0.5-3.7,1.6-5
			C563.9,452.3,565.3,451.7,567.2,451.7z M577.3,447.2v2.5h-2.1v-2.5H577.3z M577.3,452v12.7h-2.1V452H577.3z M583.4,448.2v3.8h2.5
			v1.8h-2.5v7.9c0,0.6,0.2,1,0.6,1c0.4,0,0.9,0,1.3,0h0.6v1.8h-1.7c-1.1,0-1.9-0.2-2.3-0.6c-0.4-0.4-0.6-1.1-0.6-2.1v-8.2h-2.2v-1.8
			h2.2V448L583.4,448.2z M589.2,452l3.7,10.4l0,0l3.6-10.4h2.2l-5.4,14.1c-0.6,1.5-1.1,2.4-1.6,2.9s-1.3,0.8-2.2,0.8
			c-0.3,0-0.5,0-0.7,0s-0.5-0.1-0.7-0.2v-1.9c0.2,0.1,0.4,0.1,0.6,0.2c0.2,0.1,0.4,0.1,0.6,0.1c0.8,0,1.4-0.4,1.8-1.3
			c0.3-0.8,0.6-1.5,0.8-2l-5-12.6L589.2,452z"/>
		<path class="st0" d="M779.1,359.5l127.7-0.1v100.3l-127.7,0.1V359.5z"/>
		<path class="st6" d="M799.8,383.8c1.8,0,3.2,0.7,4.2,2s1.5,3,1.5,5v0.2H796v0.2c0,1.2,0.4,2.2,1.1,2.9c0.7,0.7,1.7,1.1,2.9,1.1
			c0.9,0,1.7-0.2,2.2-0.6c0.6-0.4,0.9-1,1.1-1.8h2.1c-0.3,1.4-0.9,2.5-1.8,3.2c-0.9,0.7-2.1,1.1-3.6,1.1c-1.3,0-2.4-0.3-3.4-0.9
			c-0.9-0.6-1.6-1.4-2.1-2.5c-0.4-1.1-0.6-2.2-0.6-3.3c0-1.9,0.6-3.4,1.7-4.7C796.6,384.4,798,383.8,799.8,383.8z M796,389.2h7.3
			c-0.1-1-0.4-1.9-1.1-2.5c-0.7-0.7-1.5-1-2.5-1s-1.8,0.3-2.5,1C796.5,387.2,796.1,388.1,796,389.2z M808.9,384.1l3,4.4l0,0l3.1-4.4
			h2.5l-4.4,5.8l4.9,6.8h-2.7l-3.5-5.2l-3.5,5.2h-2.5l4.8-6.7l-4.4-6L808.9,384.1z M826.2,383.7c1.8,0,3.2,0.6,4.3,1.9
			c1.1,1.2,1.6,2.8,1.6,4.8s-0.5,3.6-1.6,4.8c-1,1.2-2.4,1.8-4.2,1.8c-0.8,0-1.6-0.2-2.3-0.5s-1.3-0.8-1.8-1.5l0,0v6.6h-2.1v-17.5
			h2.1v1.7l0,0c0.3-0.7,0.8-1.1,1.5-1.5S825.2,383.7,826.2,383.7z M822,390.4c0,1.5,0.4,2.6,1.1,3.5c0.7,0.9,1.7,1.3,2.9,1.3
			s2.1-0.4,2.8-1.3s1-2.1,1-3.6c0-1.4-0.4-2.5-1.1-3.4c-0.7-0.9-1.6-1.3-2.9-1.3s-2.2,0.4-2.8,1.3C822.3,387.8,822,389,822,390.4z
			 M840.7,383.7L840.7,383.7c0.1,0,0.2,0,0.3,0v2.2c-1.6,0-2.7,0.4-3.5,1.2c-0.7,0.8-1.1,2.1-1.1,3.9v5.7h-2.1V384h2v2.7l0,0
			c0.5-1,1.1-1.7,1.8-2.2C838.9,384,839.8,383.7,840.7,383.7z M847.4,383.7c1.8,0,3.2,0.7,4.2,2s1.5,3,1.5,5v0.2h-9.5v0.2
			c0,1.2,0.4,2.2,1.1,2.9c0.7,0.7,1.7,1.1,2.9,1.1c0.9,0,1.7-0.2,2.2-0.6c0.6-0.4,0.9-1,1.1-1.8h2.1c-0.3,1.4-0.9,2.5-1.8,3.2
			c-0.9,0.7-2.1,1.1-3.6,1.1c-1.3,0-2.4-0.3-3.4-0.9s-1.6-1.4-2.1-2.5c-0.4-1.1-0.6-2.2-0.6-3.3c0-1.9,0.6-3.4,1.7-4.7
			C844.3,384.4,845.7,383.7,847.4,383.7z M843.7,389.1h7.3c-0.1-1-0.4-1.9-1.1-2.5c-0.7-0.7-1.5-1-2.5-1s-1.8,0.3-2.5,1
			C844.2,387.2,843.8,388,843.7,389.1z M859.5,383.7c1.7,0,3,0.3,3.8,1s1.3,1.6,1.4,3h-2.1l0,0c-0.1-0.7-0.4-1.2-0.9-1.6
			s-1.2-0.5-2.1-0.5c-0.8,0-1.5,0.1-2,0.4s-0.7,0.7-0.7,1.2s0.2,0.8,0.6,1.1c0.4,0.3,1.1,0.5,1.9,0.7l2,0.4c1.2,0.3,2.2,0.7,2.8,1.3
			c0.6,0.6,1,1.3,1,2.2c0,1.2-0.5,2.2-1.5,2.9c-1,0.7-2.3,1.1-3.9,1.1c-1.6,0-2.9-0.4-3.9-1.1c-0.9-0.7-1.4-1.8-1.5-3.2h2.1
			c0,0.8,0.3,1.4,0.9,1.8c0.6,0.4,1.4,0.6,2.5,0.6c1,0,1.8-0.2,2.3-0.5s0.8-0.8,0.8-1.4s-0.3-1-0.8-1.3s-1.6-0.7-3.2-1
			c-1.6-0.3-2.7-0.7-3.4-1.3c-0.7-0.6-1-1.3-1-2.3c0-1.1,0.4-2,1.3-2.6C857,384,858.2,383.7,859.5,383.7z M871.8,383.7
			c1.7,0,3,0.3,3.8,1s1.3,1.6,1.4,3h-2.1l0,0c-0.1-0.7-0.4-1.2-0.9-1.6s-1.2-0.5-2.1-0.5c-0.8,0-1.5,0.1-2,0.4s-0.7,0.7-0.7,1.2
			s0.2,0.8,0.6,1.1c0.4,0.3,1.1,0.5,1.9,0.7l2,0.4c1.2,0.3,2.2,0.7,2.8,1.3c0.6,0.6,1,1.3,1,2.2c0,1.2-0.5,2.2-1.5,2.9
			c-1,0.7-2.3,1.1-3.9,1.1c-1.6,0-2.9-0.4-3.9-1.1c-0.9-0.7-1.4-1.8-1.5-3.2h2.1c0,0.8,0.3,1.4,0.9,1.8c0.6,0.4,1.4,0.6,2.5,0.6
			c1,0,1.8-0.2,2.3-0.5s0.8-0.8,0.8-1.4s-0.3-1-0.8-1.3s-1.6-0.7-3.2-1c-1.6-0.3-2.7-0.7-3.4-1.3c-0.7-0.6-1-1.3-1-2.3
			c0-1.1,0.4-2,1.3-2.6C869.3,384,870.4,383.7,871.8,383.7z"/>
		<path class="st6" d="M795.6,413.2l3.5,10.6l0,0l3.5-10.6h2.2l-4.6,12.7H798l-4.7-12.7H795.6z M811,412.9c1.7,0,3,0.3,3.8,1
			s1.3,1.6,1.4,3h-2.1l0,0c-0.1-0.7-0.4-1.2-0.9-1.6s-1.2-0.5-2.1-0.5c-0.8,0-1.5,0.1-2,0.4s-0.7,0.7-0.7,1.2s0.2,0.8,0.6,1.1
			c0.4,0.3,1.1,0.5,1.9,0.7l2,0.4c1.2,0.3,2.2,0.7,2.8,1.3c0.6,0.6,1,1.3,1,2.2c0,1.2-0.5,2.2-1.5,2.9c-1,0.7-2.3,1.1-3.9,1.1
			c-1.6,0-2.9-0.4-3.9-1.1c-0.9-0.7-1.4-1.8-1.5-3.2h2.1c0,0.8,0.3,1.4,0.9,1.8c0.6,0.4,1.4,0.6,2.5,0.6c1,0,1.8-0.2,2.3-0.5
			s0.8-0.8,0.8-1.4s-0.3-1-0.8-1.3s-1.6-0.7-3.2-1c-1.6-0.3-2.7-0.7-3.4-1.3c-0.7-0.6-1-1.3-1-2.3c0-1.1,0.4-2,1.3-2.6
			C808.5,413.2,809.6,412.9,811,412.9z M822.2,423.1v2.7h-2.7v-2.7H822.2z"/>
		<path class="st6" d="M800.8,442L800.8,442c0.1,0,0.2,0,0.3,0v2.2c-1.6,0-2.7,0.4-3.5,1.2c-0.7,0.8-1.1,2.1-1.1,3.9v5.7h-2.1v-12.7
			h2v2.7l0,0c0.5-1,1.1-1.7,1.8-2.2C799,442.2,799.8,442,800.8,442z M807.5,442c1.8,0,3.2,0.7,4.2,2s1.5,3,1.5,5v0.2h-9.5v0.2
			c0,1.2,0.4,2.2,1.1,2.9c0.7,0.7,1.7,1.1,2.9,1.1c0.9,0,1.7-0.2,2.2-0.6c0.6-0.4,0.9-1,1.1-1.8h2.1c-0.3,1.4-0.9,2.5-1.8,3.2
			c-0.9,0.7-2.1,1.1-3.6,1.1c-1.3,0-2.4-0.3-3.4-0.9c-0.9-0.6-1.6-1.4-2.1-2.5c-0.4-1.1-0.6-2.2-0.6-3.3c0-1.9,0.6-3.4,1.7-4.7
			C804.3,442.6,805.8,442,807.5,442z M803.7,447.4h7.3c-0.1-1-0.4-1.9-1.1-2.5c-0.7-0.7-1.5-1-2.5-1s-1.8,0.3-2.5,1
			C804.2,445.4,803.8,446.3,803.7,447.4z M820.5,442c0.9,0,1.7,0.2,2.3,0.6c0.7,0.4,1.2,0.9,1.5,1.5l0,0v-1.8h1.9V454
			c0,2-0.5,3.5-1.4,4.5c-1,1-2.4,1.6-4.4,1.6c-1.5,0-2.7-0.3-3.7-1c-1-0.6-1.5-1.6-1.6-2.8h2.1c0,0.6,0.4,1.1,1,1.5
			c0.7,0.4,1.4,0.5,2.2,0.5c1.2,0,2.2-0.4,2.8-1.2c0.7-0.8,1-2,1-3.6v-0.8l0,0c-0.3,0.7-0.9,1.3-1.6,1.7s-1.5,0.6-2.4,0.6
			c-1.7,0-3.1-0.6-4.1-1.8c-1-1.2-1.5-2.7-1.5-4.6s0.5-3.6,1.5-4.8C817.3,442.6,818.7,442,820.5,442z M816.9,448.4
			c0,1.5,0.3,2.7,0.9,3.6c0.6,0.8,1.5,1.3,2.7,1.3c1.1,0,2.1-0.4,2.7-1.3c0.7-0.9,1-2.1,1-3.6c0-1.4-0.3-2.4-1-3.3
			c-0.6-0.8-1.5-1.2-2.7-1.2s-2.1,0.4-2.8,1.3C817.2,445.9,816.9,447,816.9,448.4z M831.5,442.2v8.6c0,0.7,0.2,1.3,0.7,1.8
			s1.1,0.7,1.9,0.7c1.2,0,2.1-0.4,2.8-1.1s1-1.7,1-2.8v-7.3h2.1v12.7h-2v-2l0,0c-0.5,0.8-1,1.4-1.7,1.8s-1.5,0.6-2.4,0.6
			c-1.5,0-2.6-0.4-3.3-1.1c-0.7-0.8-1.1-1.9-1.1-3.4v-8.4L831.5,442.2z M845.3,437.4v17.5h-2.1v-17.5H845.3z M853.7,441.9
			c1.7,0,2.9,0.3,3.7,0.9c0.7,0.6,1.1,1.4,1.1,2.5c0,4.4,0,6.8,0,7.3s0.2,0.7,0.6,0.7c0.1,0,0.2,0,0.3,0s0.2-0.1,0.3-0.1v1.6
			c-0.2,0.1-0.4,0.2-0.7,0.3c-0.3,0.1-0.5,0.1-0.8,0.1c-0.6,0-1-0.2-1.3-0.5s-0.5-0.8-0.5-1.5c-0.6,0.7-1.2,1.2-2,1.5
			s-1.6,0.5-2.5,0.5c-1.3,0-2.3-0.3-3.1-0.9c-0.7-0.6-1.1-1.5-1.1-2.6s0.4-2.1,1.1-2.7c0.7-0.7,2.4-1.2,5.1-1.5
			c0.9-0.1,1.5-0.3,1.8-0.5s0.5-0.6,0.5-1.1c0-0.7-0.2-1.2-0.7-1.6c-0.4-0.4-1.2-0.5-2.2-0.5s-1.8,0.2-2.3,0.6s-0.8,1-0.8,1.8h-2.1
			c0.1-1.4,0.6-2.5,1.5-3.2C850.8,442.3,852,441.9,853.7,441.9z M850,451.5c0,0.6,0.2,1.1,0.6,1.4c0.4,0.3,1,0.5,1.8,0.5
			c1.2,0,2.1-0.3,2.8-0.9s1.1-1.2,1.1-2v-2.2c-0.4,0.3-0.8,0.4-1.4,0.5c-0.6,0.1-1.3,0.2-2.2,0.3c-0.9,0.1-1.6,0.4-2.1,0.7
			C850.3,450.3,850,450.8,850,451.5z M868,441.9L868,441.9c0.1,0,0.2,0,0.3,0v2.2c-1.6,0-2.7,0.4-3.5,1.2c-0.7,0.8-1.1,2.1-1.1,3.9
			v5.7h-2.1v-12.7h2v2.7l0,0c0.5-1,1.1-1.7,1.8-2.2C866.2,442.2,867,441.9,868,441.9z"/>
		<text transform="matrix(1 0 0 1 12.1183 41.7)" class="st6 st7 st8">Current State of IA of </text>
		<text transform="matrix(1 0 0 1 12.1184 84.9)" class="st6 st7 st8 st9">A</text>
		<text transform="matrix(1 0 0 1 32.8284 84.9)" class="st6 st7 st8">TH Display</text>
	</g>
</g>
</svg>
