<svg xmlns="http://www.w3.org/2000/svg" viewBox="0 0 781.437 768.23">
  <g id="astronomy" transform="translate(902 406.001)" opacity="0.3">
    <g id="outline" transform="translate(-902 -406.001)">
      <path id="Path_5" data-name="Path 5" d="M176.084,66.375l-46.141-6.741L106.621,12.778a13.8,13.8,0,0,0-23.706,0L59.46,59.568,13.318,66.375A13.244,13.244,0,0,0,5.756,88.717L40.4,124.2,28.774,174.643a13.244,13.244,0,0,0,18.872,14.9L85.325,170.7l73.265,341.848-27.653,7.549a13.244,13.244,0,0,0-5.986,22.038l28.024,28.686-9.416,40.87a13.244,13.244,0,0,0,18.833,14.833L200.651,607.4l38.222,19.19a13.389,13.389,0,0,0,5.92,1.324,13.244,13.244,0,0,0,12.913-16.224l-7.549-32.778,291.5,97.156-9.575,41.572a13.244,13.244,0,0,0,18.833,14.833l47.055-23.534,47.055,23.6A13.244,13.244,0,0,0,663.853,717.7l-11.588-50.512,34.685-35.546a13.244,13.244,0,0,0-7.562-22.342l-38.407-5.6,70.576-270.584,30.58,15.35a13.39,13.39,0,0,0,5.92,1.391,13.244,13.244,0,0,0,12.913-16.224L751.593,292.7l28.064-28.752a13.244,13.244,0,0,0-5.986-22.038l-34.95-9.535L714.974,196.76a13.76,13.76,0,0,0-22.038,0L669.19,232.373l-34.95,9.536a13.244,13.244,0,0,0-5.986,22.038L656.237,292.7l-9.416,40.87A13.244,13.244,0,0,0,665.654,348.4l16.714-8.37L620.479,577.214l-10.595-21.442a13.8,13.8,0,0,0-23.706,0l-23.388,46.79L516.648,609.3a13.244,13.244,0,0,0-7.562,22.342L517.231,640,263.348,555.389l13.005-13.323a13.244,13.244,0,0,0-5.986-22.038l-34.95-9.536L211.67,474.88a13.76,13.76,0,0,0-22.038,0l-9.085,13.628-67.119-313.2,28.328,14.171a13.244,13.244,0,0,0,18.833-14.833L149,124.2l34.685-35.546a13.244,13.244,0,0,0-7.562-22.342ZM678.977,312.127l4.741-20.528a13.244,13.244,0,0,0-3.43-12.211l-17.429-17.839,18.038-4.927a13.244,13.244,0,0,0,7.522-5.43l15.5-23.243,15.469,23.2a13.243,13.243,0,0,0,7.522,5.43l18.038,4.927-17.4,17.839a13.244,13.244,0,0,0-3.43,12.211l4.741,20.528-19.018-9.509a13.244,13.244,0,0,0-11.84,0ZM573.4,627.766a13.244,13.244,0,0,0,9.933-7.178l14.634-29.282,14.568,29.282a13.244,13.244,0,0,0,9.933,7.178l27.269,3.973-21.587,22.117a13.244,13.244,0,0,0-3.43,12.224l6.94,30.1-27.812-13.919a13.244,13.244,0,0,0-11.84,0l-27.812,13.919,6.94-30.1a13.244,13.244,0,0,0-3.43-12.224l-21.587-22.117ZM177.66,534.741a13.244,13.244,0,0,0,7.522-5.43l15.469-23.243,15.469,23.2a13.244,13.244,0,0,0,7.522,5.43l18.038,4.927-17.4,17.839a13.244,13.244,0,0,0-3.43,12.211l4.741,20.528L206.571,580.7a13.244,13.244,0,0,0-11.84,0l-19.018,9.509,4.741-20.528a13.244,13.244,0,0,0-3.43-12.211l-17.429-17.8ZM124.95,110.874a13.244,13.244,0,0,0-3.43,12.224l6.94,30.1-27.812-13.919a13.244,13.244,0,0,0-11.84,0L61,153.2l6.94-30.1a13.244,13.244,0,0,0-3.43-12.224L42.918,88.757l27.269-3.973a13.244,13.244,0,0,0,9.933-7.178L94.7,48.311l14.634,29.282a13.244,13.244,0,0,0,9.933,7.178l27.269,3.973Z" transform="translate(-1.995 34.29)" fill="#ffe0ae"/>
      <path id="Path_10" data-name="Path 10" d="M70.731,30a39.731,39.731,0,1,0,39.731,39.731A39.731,39.731,0,0,0,70.731,30Zm0,52.975A13.244,13.244,0,1,1,83.975,69.731,13.244,13.244,0,0,1,70.731,82.975Z" transform="translate(359.127 182.229)" fill="#ffe0ae"/>
      <path id="Path_12" data-name="Path 12" d="M26,36H52.488V62.488H26Z" transform="translate(291.851 401.057)" fill="#ffe0ae"/>
      <path id="Path_26" data-name="Path 26" d="M45.389,140.469a22.514,22.514,0,0,0,13.376,12.688,31.865,31.865,0,0,0,12.423,2.2,114.982,114.982,0,0,0,34.579-7.138,79.383,79.383,0,0,0,123.671-58.5c30.54-17.641,46.83-33.109,39.122-52C262.839,23.765,245,20.957,208.274,28.254A79.343,79.343,0,0,0,70.883,82.474c0,2.119.159,4.2.318,6.264-19.336,14.277-34.487,30.527-25.812,51.73ZM239.98,50.689a91.949,91.949,0,0,1-13.337,9.747,77.475,77.475,0,0,0-2.808-8.132,121.75,121.75,0,0,1,16.144-1.616Zm-89.634,84.76a53.109,53.109,0,0,1-9.8-.993c8.767-3.894,18.17-8.251,28.964-13.641l7.032-3.51c7.125-3.563,13.933-6.966,20.462-10.277a52.829,52.829,0,0,1-46.658,28.421Zm0-105.95a52.9,52.9,0,0,1,52.141,44.777C190.038,80.9,176.582,87.666,164.7,93.6l-7.032,3.51c-19.1,9.549-34.275,16.25-46.353,20.938A52.763,52.763,0,0,1,150.346,29.5ZM78.737,116.7a80.9,80.9,0,0,0,5.682,10.092,49.571,49.571,0,0,1-14.78,1.841C69.877,125.742,73.135,121.663,78.737,116.7Z" transform="translate(498.599 -2.999)" fill="#ffe0ae"/>
      <path id="Path_27" data-name="Path 27" d="M99.463,43.731A39.731,39.731,0,1,0,59.731,83.463,39.731,39.731,0,0,0,99.463,43.731Zm-52.975,0A13.244,13.244,0,1,1,59.731,56.975,13.244,13.244,0,0,1,46.488,43.731Z" transform="translate(218.388 9.256)" fill="#ffe0ae"/>
      <path id="Path_29" data-name="Path 29" d="M54.975,140.95A52.975,52.975,0,1,0,2,87.975,52.975,52.975,0,0,0,54.975,140.95Zm0-79.463A26.488,26.488,0,1,1,28.488,87.975,26.488,26.488,0,0,1,54.975,61.488Z" transform="translate(-2 388.814)" fill="#ffe0ae"/>
    </g>
  </g>
</svg>
