<svg xmlns="http://www.w3.org/2000/svg" viewBox="0 0 794.627 556.251">
  <g id="astronomy" transform="translate(902 406.001)" opacity="0.3">
    <g id="outline" transform="translate(-902 -406.001)">
      <path id="Path_10" data-name="Path 10" d="M70.731,30a39.731,39.731,0,1,0,39.731,39.731A39.731,39.731,0,0,0,70.731,30Zm0,52.975A13.244,13.244,0,1,1,83.975,69.731,13.244,13.244,0,0,1,70.731,82.975Z" transform="translate(359.127 182.229)" fill="#ffe0ae"/>
      <path id="Path_11" data-name="Path 11" d="M39,30H65.488V56.488H39Z" transform="translate(451.02 327.595)" fill="#ffe0ae"/>
      <path id="Path_12" data-name="Path 12" d="M26,36H52.488V62.488H26Z" transform="translate(291.851 401.057)" fill="#ffe0ae"/>
      <path id="Path_17" data-name="Path 17" d="M60,43H86.488V69.488H60Z" transform="translate(708.139 486.764)" fill="#ffe0ae"/>
      <path id="Path_26" data-name="Path 26" d="M45.389,140.469a22.514,22.514,0,0,0,13.376,12.688,31.865,31.865,0,0,0,12.423,2.2,114.982,114.982,0,0,0,34.579-7.138,79.383,79.383,0,0,0,123.671-58.5c30.54-17.641,46.83-33.109,39.122-52C262.839,23.765,245,20.957,208.274,28.254A79.343,79.343,0,0,0,70.883,82.474c0,2.119.159,4.2.318,6.264-19.336,14.277-34.487,30.527-25.812,51.73ZM239.98,50.689a91.949,91.949,0,0,1-13.337,9.747,77.475,77.475,0,0,0-2.808-8.132,121.75,121.75,0,0,1,16.144-1.616Zm-89.634,84.76a53.109,53.109,0,0,1-9.8-.993c8.767-3.894,18.17-8.251,28.964-13.641l7.032-3.51c7.125-3.563,13.933-6.966,20.462-10.277a52.829,52.829,0,0,1-46.658,28.421Zm0-105.95a52.9,52.9,0,0,1,52.141,44.777C190.038,80.9,176.582,87.666,164.7,93.6l-7.032,3.51c-19.1,9.549-34.275,16.25-46.353,20.938A52.763,52.763,0,0,1,150.346,29.5ZM78.737,116.7a80.9,80.9,0,0,0,5.682,10.092,49.571,49.571,0,0,1-14.78,1.841C69.877,125.742,73.135,121.663,78.737,116.7Z" transform="translate(498.599 -2.999)" fill="#ffe0ae"/>
      <path id="Path_27" data-name="Path 27" d="M99.463,43.731A39.731,39.731,0,1,0,59.731,83.463,39.731,39.731,0,0,0,99.463,43.731Zm-52.975,0A13.244,13.244,0,1,1,59.731,56.975,13.244,13.244,0,0,1,46.488,43.731Z" transform="translate(218.388 9.256)" fill="#ffe0ae"/>
      <path id="Path_28" data-name="Path 28" d="M42,78.731A39.731,39.731,0,1,0,81.731,39,39.731,39.731,0,0,0,42,78.731Zm52.975,0A13.244,13.244,0,1,1,81.731,65.488,13.244,13.244,0,0,1,94.975,78.731Z" transform="translate(487.751 437.789)" fill="#ffe0ae"/>
      <path id="Path_29" data-name="Path 29" d="M54.975,140.95A52.975,52.975,0,1,0,2,87.975,52.975,52.975,0,0,0,54.975,140.95Zm0-79.463A26.488,26.488,0,1,1,28.488,87.975,26.488,26.488,0,0,1,54.975,61.488Z" transform="translate(-2 388.814)" fill="#ffe0ae"/>
      <path id="Path_31" data-name="Path 31" d="M47,18H73.488V44.488H47Z" transform="translate(548.97 180.669)" fill="#ffe0ae"/>
    </g>
  </g>
</svg>
