<svg id="Layer_4" data-name="Layer 4" xmlns="http://www.w3.org/2000/svg" viewBox="0 0 180.1 197"><defs><style>.cls-1{fill:#8183db;}.cls-2{fill:#f9a368;}.cls-3{fill:#ff7726;}.cls-4{fill:#8ae2e0;}.cls-5{fill:#fce03a;}.cls-6{fill:#af8974;}.cls-7{fill:#c1987e;}.cls-8{fill:#004e52;}.cls-9{fill:#e89862;}</style></defs><title>friends</title><g id="Layer_6" data-name="Layer 6"><path class="cls-1" d="M560.41,368.9c.25-.58,5.06-11.28,15.2-11.51,6.8-.15,13.29,4.45,16.15,11.51v2.56l2,11.76,2.71,4.56c.48-.35,8.13-5.72,13.29-2.64a6.73,6.73,0,0,1,1.72,1.49,73,73,0,0,1,14.72,30.19c7.34,33.32-13,59-16.77,64.56-36.8,54.53-71.57-17-66.8-34.77s-13.63-1.36-12.27-22.49a32.88,32.88,0,0,1,4.26-15.85c8.16-13.82,21.33-10.94,25.05-21.64C562.17,379.59,557.11,376.55,560.41,368.9Z" transform="translate(-449.93 -343)"/><path class="cls-2" d="M493.6,343s-2.72,8.18,4.77,10.22,5.46,4.78,5.46,4.78S511.33,345,493.6,343Z" transform="translate(-449.93 -343)"/><path class="cls-2" d="M591.76,393.44l6.14,5.46s-1.37-7.5-.69-8.87,2.73,8.18,2.73,8.18l4.77-2,6.82,13.63-5.45-2.72s-3.41.68-6.82-3.41-8.86-9.55-8.86-9.55S589.72,393.44,591.76,393.44Z" transform="translate(-449.93 -343)"/><path class="cls-3" d="M502.46,452.07S486.1,476.61,489.51,508s6.14,31.36,6.14,31.36H512v-47l4.77.69,2.73,46.35h17.72s8.86-70.21-15.68-83.16S502.46,452.07,502.46,452.07Z" transform="translate(-449.93 -343)"/><path class="cls-4" d="M505.19,351.18s-23.86,2.73-21.81,27.95,21.81,15,21.81,15,31.36-25.22,21.13-40.21S505.19,351.18,505.19,351.18Z" transform="translate(-449.93 -343)"/><path class="cls-5" d="M475.2,415.26l22.49-15.68L540,403l25.22,22.49-9.55,5.45-23.17-8.86s6.13,10.91-2.05,15S525,459.56,525,459.56l-24.54-1.36-8.18-37.49-13.63,10.91Q476.9,423.43,475.2,415.26Z" transform="translate(-449.93 -343)"/><path class="cls-6" d="M507.24,386.63v13.63s10.9,18.4,14.31,2c0,0-8.86-1.36-6.13-12.95S507.24,386.63,507.24,386.63Z" transform="translate(-449.93 -343)"/><path class="cls-7" d="M511.33,363.45s.68,17-10.91,21.13c0,0,2.73,12.95,17,10.23S517.46,364.81,511.33,363.45Z" transform="translate(-449.93 -343)"/><path class="cls-8" d="M501.1,377.08s38.17,47,52.49,47c0,0-5.45,10.22,1.36,19.08S558.36,465,558.36,465s25.9,2,26.59,0,7.49-35.45,7.49-35.45,36.13,35.45,37.49,23.86-13.63-42.95-17-45.67-6.81,2-6.81,2L617,430.93s-26.58-29.31-38.17-25.22c0,0-11.59,18.41-15,2.73,0,0-6.13,2-8.86,0s-37.49-21.13-40.9-38.17S501.1,377.08,501.1,377.08Z" transform="translate(-449.93 -343)"/><path class="cls-4" d="M560.51,457.81s-26.69,51.52-11,80.15h16.36l2-43.63,5.46.68s-2.05,45,.68,45h17.72s2-32,3.41-38.17-.68-39.54-12.27-41.58A183.28,183.28,0,0,0,560.51,457.81Z" transform="translate(-449.93 -343)"/><path class="cls-9" d="M569.27,396.17s2.72,10.22-5.46,12.27,4.09,12.95,4.09,12.95l11.59-10.91s-2.72-10.22-.68-17S569.27,396.17,569.27,396.17Z" transform="translate(-449.93 -343)"/><path class="cls-6" d="M475.88,416.62c-15,5.92-26.52,15.73-25.93,24.34.71,10.6,19.95,22.54,48.61,20.64l.12,9s7.9,3.13,8.56-6.25L502,459.71s-36.88-18-36.88-21.1,13.17-9.37,13.17-9.37Z" transform="translate(-449.93 -343)"/><path class="cls-2" d="M574,370.27s-15.68,6.13-10.91,28.63c0,0,15,2,21.13-5.46v-4.77S575.4,385.94,574,370.27Z" transform="translate(-449.93 -343)"/></g><g id="Layer_5" data-name="Layer 5"><path class="cls-4" d="M505.87,353.22S482,356,484.06,381.17s21.81,15,21.81,15S537.23,371,527,356,505.87,353.22,505.87,353.22Z" transform="translate(-449.93 -343)"/><path class="cls-6" d="M507.24,386.63v13.63s10.9,18.4,14.31,2c0,0-8.86-1.36-6.13-12.95S507.24,386.63,507.24,386.63Z" transform="translate(-449.93 -343)"/><path class="cls-7" d="M512,365.49s.68,17.05-10.91,21.14c0,0,2.73,12.95,17,10.22S518.14,366.86,512,365.49Z" transform="translate(-449.93 -343)"/></g></svg>