<svg xmlns="http://www.w3.org/2000/svg" viewBox="0 0 163.95 197.65"><defs><style>.cls-1{fill:none;stroke:#f15a24;stroke-miterlimit:10;}.cls-2{fill:#c1987e;}.cls-3{fill:#ff7726;}.cls-4{fill:#5d362e;}</style></defs><title>frustrated</title><g id="Layer_1" data-name="Layer 1"><path class="cls-1" d="M245.5,388.5s-31-24-9-47,35,18,9,18-17-29-1-41" transform="translate(-176.79 -318.1)"/><path class="cls-1" d="M280,370.3s20.66-27,34.68-7.48-31.73,13.51-34-3.31,33.22-23.7,39.11-11.64-45,21-44.21.19,37.48-29.25,37.48-29.25" transform="translate(-176.79 -318.1)"/></g><g id="Frustrated"><path class="cls-2" d="M179,481c.08-11.93,1.86-44.18,24.6-59.72,3.26-2.23,5.76-3.3,10.4-5.28,28.75-12.28,55.68-8.5,72-6a178.78,178.78,0,0,1,32,8c3.73,3.09,8,6.83,11.25,12.12,5.63,9.26,11.25,24.88,11.25,50.38Z" transform="translate(-176.79 -318.1)"/><path class="cls-3" d="M259.5,467.5s38,24,58-50c0,0,26,15,23,63h-162s4-46,25-59C203.5,421.5,226.5,487.5,259.5,467.5Z" transform="translate(-176.79 -318.1)"/><path class="cls-4" d="M201,482s-3-31,26-47,56-4,67,24c6.62,4,9.94,8.44,11.75,11.75C311.3,480.92,309,492.32,316,496c1.39.74,3.86,1.54,4.48,3.68.17.58.37,1.8-1.48,5.32-1.52,2.89-2.81,5.35-5,7-3.45,2.6-7.85,2.26-12.38,1.62A137.24,137.24,0,0,1,275,507s-71,19-92,1S201,482,201,482Z" transform="translate(-176.79 -318.1)"/></g></svg>