<svg id="Layer_8" data-name="Layer 8" xmlns="http://www.w3.org/2000/svg" viewBox="0 0 185 185"><defs><style>.cls-1{fill:#e86625;}.cls-2{fill:#fce03a;}.cls-3{fill:#f7b64c;}.cls-4{fill:#004e52;}.cls-5{fill:#ff7726;}.cls-6{fill:#8ae2e0;}</style></defs><title>house</title><rect class="cls-1" x="144" y="26" width="15" height="48" rx="7.5" ry="7.5"/><path class="cls-2" d="M1010.19,436.82V522h151.08V436.82l-75.54-75.54h0C1056.44,391,1039.86,407.53,1010.19,436.82Z" transform="translate(-994 -337)"/><path class="cls-3" d="M1161.66,436.82l-75.55-75.54c-15,14.65-26.59,26.21-38.15,37.77l-37.77,37.77v17.35l75.54-75.55,75.54,75.55v2.31h0V436.82Z" transform="translate(-994 -337)"/><path class="cls-4" d="M1072.24,522h-45.48V477.29a22.78,22.78,0,0,1,22.74-22.74h0a22.78,22.78,0,0,1,22.74,22.74Z" transform="translate(-994 -337)"/><path class="cls-5" d="M1175.53,421,1095,340.47a12.56,12.56,0,0,0-17.34,0L997.47,421a12.26,12.26,0,0,0,17.34,17.34l71.69-71.68,71.69,71.68A12.26,12.26,0,1,0,1175.53,421Z" transform="translate(-994 -337)"/><rect class="cls-4" x="92" y="118" width="60" height="52" rx="12" ry="12"/><rect class="cls-6" x="101" y="125" width="18" height="37" rx="9" ry="9"/><rect class="cls-6" x="126" y="125" width="18" height="37" rx="9" ry="9"/></svg>