<svg xmlns="http://www.w3.org/2000/svg" viewBox="0 0 918 375.57"><defs><style>.cls-1{fill:#fce03a;}.cls-2{fill:#8ae2e0;}.cls-22,.cls-3,.cls-33{font-size:18px;}.cls-23,.cls-24,.cls-3,.cls-33{fill:#212529;}.cls-16,.cls-17,.cls-22,.cls-3,.cls-33{font-family:Montserrat-Bold, Montserrat;}.cls-16,.cls-17,.cls-23,.cls-33,.cls-4{font-weight:700;}.cls-5{letter-spacing:-0.01em;}.cls-6{letter-spacing:-0.02em;}.cls-24,.cls-27,.cls-7{font-size:12px;}.cls-24,.cls-7{font-family:Montserrat-Regular, Montserrat;}.cls-8{letter-spacing:-0.02em;}.cls-9{letter-spacing:-0.07em;}.cls-10{letter-spacing:-0.01em;}.cls-11{letter-spacing:-0.01em;}.cls-12{letter-spacing:0em;}.cls-13{letter-spacing:-0.01em;}.cls-14{letter-spacing:0em;}.cls-15{letter-spacing:-0.02em;}.cls-17{letter-spacing:0.01em;}.cls-18{letter-spacing:0em;}.cls-19{letter-spacing:0em;}.cls-20{letter-spacing:-0.01em;}.cls-21{letter-spacing:0.02em;}.cls-25{letter-spacing:0em;}.cls-26{letter-spacing:0em;}.cls-27{font-family:MyriadPro-Regular, Myriad Pro;}.cls-28{fill:#e6955e;}.cls-29{fill:#ff7726;}.cls-30{fill:#f9a368;}.cls-31{fill:#004e52;}.cls-32{fill:#fff;}.cls-34{letter-spacing:0em;}.cls-35{letter-spacing:-0.01em;}.cls-36{letter-spacing:0.01em;}</style></defs><title>stakeholders</title><g id="Layer_3" data-name="Layer 3"><ellipse class="cls-1" cx="160" cy="228.07" rx="160" ry="147.5"/><ellipse class="cls-2" cx="758" cy="228.07" rx="160" ry="147.5"/><text class="cls-3" transform="translate(85.7 154.67)"><tspan class="cls-4">Suble<tspan class="cls-5" x="53.05" y="0">t</tspan><tspan class="cls-6" x="60.66" y="0">t</tspan><tspan x="68.18" y="0">er</tspan><tspan x="23.63" y="21.6">Ren</tspan><tspan class="cls-6" x="60.66" y="21.6">t</tspan><tspan x="68.18" y="21.6">er</tspan></tspan><tspan class="cls-7"><tspan x="87.3" y="36"> </tspan><tspan x="-56.91" y="50.4">Li</tspan><tspan class="cls-8" x="-46.62" y="50.4">v</tspan><tspan x="-40.29" y="50.4">es</tspan><tspan class="cls-9" x="-27.18" y="50.4">/</tspan><tspan class="cls-10" x="-23.97" y="50.4">r</tspan><tspan x="-19.32" y="50.4">ents a location off </tspan><tspan x="38.65" y="64.8">campus</tspan><tspan class="cls-11" x="-61.5" y="93.6">L</tspan><tspan class="cls-12" x="-54.53" y="93.6">oo</tspan><tspan class="cls-13" x="-39.48" y="93.6">k</tspan><tspan x="-32.36" y="93.6">i</tspan><tspan class="cls-14" x="-29.14" y="93.6">n</tspan><tspan x="-20.99" y="93.6">g </tspan><tspan class="cls-15" x="-9.61" y="93.6">t</tspan><tspan x="-4.97" y="93.6">o </tspan><tspan class="cls-10" x="5.7" y="93.6">r</tspan><tspan x="10.36" y="93.6">ent out </tspan><tspan class="cls-16" x="57.36" y="93.6">t</tspan><tspan class="cls-17" x="62.58" y="93.6">h</tspan><tspan class="cls-16" x="70.94" y="93.6">eir </tspan><tspan x="-74.24" y="108">s</tspan><tspan class="cls-18" x="-68.37" y="108">p</tspan><tspan class="cls-19" x="-60.27" y="108">a</tspan><tspan class="cls-20" x="-53.17" y="108">c</tspan><tspan x="-46.52" y="108">e </tspan><tspan class="cls-20" x="-36.13" y="108">f</tspan><tspan x="-32.17" y="108">or a </tspan><tspan class="cls-20" x="-6.47" y="108">c</tspan><tspan x="0.18" y="108">e</tspan><tspan class="cls-21" x="7.43" y="108">r</tspan><tspan x="12.42" y="108">tain a</tspan><tspan class="cls-14" x="45.95" y="108">m</tspan><tspan x="58.71" y="108">ount </tspan><tspan x="44.46" y="122.4">of ti</tspan><tspan class="cls-14" x="67.3" y="122.4">m</tspan><tspan x="80.05" y="122.4">e</tspan></tspan></text><text class="cls-22" transform="translate(746.48 154.67)"><tspan class="cls-23">Suble<tspan class="cls-5" x="53.05" y="0">t</tspan><tspan class="cls-6" x="60.66" y="0">t</tspan><tspan x="68.18" y="0">er</tspan><tspan x="0" y="21.6">Ren</tspan><tspan class="cls-6" x="37.03" y="21.6">t</tspan><tspan x="44.55" y="21.6">ee</tspan></tspan><tspan class="cls-24"><tspan x="0" y="36"> </tspan><tspan x="0" y="50.4" xml:space="preserve"> Does </tspan><tspan class="cls-14" x="36.84" y="50.4">n</tspan><tspan x="44.99" y="50.4">ot li</tspan><tspan class="cls-8" x="66.98" y="50.4">v</tspan><tspan x="73.31" y="50.4">e off campus</tspan><tspan class="cls-13" x="0" y="79.2">L</tspan><tspan class="cls-25" x="6.97" y="79.2">oo</tspan><tspan class="cls-11" x="22.02" y="79.2">k</tspan><tspan x="29.14" y="79.2">i</tspan><tspan class="cls-14" x="32.36" y="79.2">n</tspan><tspan x="40.51" y="79.2">g </tspan><tspan class="cls-15" x="51.89" y="79.2">t</tspan><tspan x="56.53" y="79.2">o </tspan><tspan class="cls-10" x="67.2" y="79.2">r</tspan><tspan x="71.86" y="79.2">ent a s</tspan><tspan class="cls-26" x="111.34" y="79.2">p</tspan><tspan class="cls-14" x="119.44" y="79.2">a</tspan><tspan class="cls-20" x="126.54" y="79.2">c</tspan><tspan x="133.19" y="79.2">e </tspan><tspan class="cls-20" x="143.58" y="79.2">f</tspan><tspan x="147.54" y="79.2">or </tspan><tspan x="0" y="93.6">a </tspan><tspan class="cls-20" x="10.22" y="93.6">c</tspan><tspan x="16.87" y="93.6">e</tspan><tspan class="cls-21" x="24.12" y="93.6">r</tspan><tspan x="29.11" y="93.6">tain a</tspan><tspan class="cls-14" x="62.64" y="93.6">m</tspan><tspan x="75.4" y="93.6">ount of ti</tspan><tspan class="cls-14" x="129.97" y="93.6">m</tspan><tspan x="142.73" y="93.6">e</tspan></tspan><tspan class="cls-27"><tspan x="0" y="122.4"> </tspan></tspan></text></g><g id="Layer_2" data-name="Layer 2"><polygon class="cls-28" points="253.5 177.07 320.5 189.07 294.5 253.07 232.5 243.07 253.5 177.07"/><path class="cls-29" d="M332.5,274.5s78,1,73,14-14,33-14,33,42,30,42,53-4,49-4,49h-110l5-112S324.5,278.5,332.5,274.5Z" transform="translate(-92 -68.43)"/><path class="cls-30" d="M359.5,258.5s67,12,78,9,3-39,3-39,15-7,14-14c0,0-21-11-24-28l13-20s-15-31-79-24S359.5,258.5,359.5,258.5Z" transform="translate(-92 -68.43)"/><path class="cls-2" d="M334.5,118.5c-7.18.79-11.08,3.43-13.25,5.5-10.14,9.66-2.88,26.08-14.75,38.5-1.93,2-1.63,1.07-6.62,5.5a227.82,227.82,0,0,0-16.38,17.5c-13,16-4,35-4,35s4,13-6,30c-1.35,2.29-2.32,4.83-1.54,7.48,2.22,7.5,18.32,8.89,26.54,9.52,86.24,6.62,95.05,4.36,99.1-2.91,4.42-7.95-3.29-10.3-.1-28.09,3.64-20.31,16.25-31.48,11-44-.94-2.24-3.4-6.79-1.76-8.53,1.45-1.54,4.4,1,8.76-.47,2.62-.88,2.39-2.08,7.36-5.14a30.46,30.46,0,0,1,5.64-2.86c3.24-1.22,6.1-2.25,8.26-.9l.26.18c2.39,1.74,2.56,3.78,3.48,4.72,1.61,1.64,6.3.75,9.1-1.41,4.85-3.74,5.57-12.51,2.9-18.59-2.17-4.94-5.23-5.06-10-13-2.53-4.22-1.76-4.34-3.59-7.23-5.48-8.65-16.92-14.73-26.41-14.77-1.66,0-4.76.15-10.49.06-2,0-4.3-.1-6.87-.24s-4.88-.39-9.64-.82C374.5,122.5,345.5,114.5,334.5,118.5Z" transform="translate(-92 -68.43)"/><path class="cls-31" d="M385.5,191.5s-3,5,3,5h36s-2,18,7,20,10-26,6-35-13-4-13,9C424.5,190.5,388.5,190.5,385.5,191.5Z" transform="translate(-92 -68.43)"/><polygon class="cls-28" points="664.73 182.57 597.73 194.57 623.73 258.57 685.73 248.57 664.73 182.57"/><path class="cls-31" d="M769.73,280s-78,1-73,14,14,33,14,33-42,30-42,53,4,49,4,49h110l-5-112S777.73,284,769.73,280Z" transform="translate(-92 -68.43)"/><path class="cls-30" d="M742.73,264s-67,12-78,9-3-39-3-39-15-7-14-14c0,0,21-11,24-28l-13-20s15-31,79-24S742.73,264,742.73,264Z" transform="translate(-92 -68.43)"/><path class="cls-1" d="M767.73,124c7.18.79,11.08,3.43,13.25,5.5,10.14,9.66,2.88,26.08,14.75,38.5,1.93,2,1.63,1.07,6.63,5.5A230.26,230.26,0,0,1,818.73,191c13,16,4,35,4,35s-4,13,6,30c1.35,2.29,2.32,4.83,1.54,7.48-2.22,7.5-18.32,8.89-26.54,9.52-86.24,6.62-95.05,4.36-99.1-2.91-4.42-7.95,3.29-10.3.1-28.09-3.64-20.31-16.25-31.48-11-44,.94-2.24,3.4-6.79,1.76-8.53-1.45-1.54-4.4,1-8.76-.47-2.62-.88-2.39-2.08-7.36-5.14a30.12,30.12,0,0,0-5.64-2.86c-3.24-1.22-6.1-2.25-8.26-.9l-.26.18c-2.39,1.74-2.56,3.78-3.48,4.72-1.61,1.64-6.3.75-9.1-1.41-4.85-3.74-5.57-12.51-2.9-18.59,2.17-4.94,5.23-5.06,10-13,2.53-4.22,1.76-4.34,3.59-7.23,5.48-8.65,16.92-14.73,26.41-14.77,1.66,0,4.76.15,10.49.06,2,0,4.3-.1,6.87-.24s4.88-.39,9.64-.82C727.73,128,756.73,120,767.73,124Z" transform="translate(-92 -68.43)"/><path class="cls-29" d="M716.73,197s3,5-3,5h-36s2,18-7,20-10-26-6-35,13-4,13,9C677.73,196,713.73,196,716.73,197Z" transform="translate(-92 -68.43)"/><rect class="cls-32" x="382.5" width="159.21" height="85.45" rx="12" ry="12"/><polygon class="cls-32" points="513.82 75.56 541.7 58.29 548 93.55 513.82 75.56"/><polyline class="cls-32" points="378 93.55 412.18 75.56 384.3 58.29"/><text class="cls-33" transform="translate(399.48 36.67)">Mutual <tspan class="cls-34" x="0" y="21.6">A</tspan><tspan x="13.7" y="21.6">g</tspan><tspan class="cls-35" x="26.3" y="21.6">r</tspan><tspan x="33.89" y="21.6">ee</tspan><tspan class="cls-36" x="56.61" y="21.6">m</tspan><tspan x="75.6" y="21.6">ent</tspan></text></g></svg>