<svg id="Layer_1" data-name="Layer 1" xmlns="http://www.w3.org/2000/svg" xmlns:xlink="http://www.w3.org/1999/xlink" viewBox="0 0 1086.77 799.96"><defs><style>.cls-1{fill:#fff;}.cls-1,.cls-2{stroke:#6b6b6b;stroke-miterlimit:10;}.cls-2{fill:none;}.cls-3,.cls-58{font-size:24px;}.cls-28,.cls-3,.cls-37{fill:#212529;}.cls-28,.cls-3,.cls-37,.cls-58{font-family:Montserrat-Bold, Montserrat;}.cls-28,.cls-3,.cls-38,.cls-58{font-weight:700;}.cls-4{letter-spacing:-0.01em;}.cls-5{letter-spacing:0.01em;}.cls-6{letter-spacing:0em;}.cls-7{letter-spacing:-0.06em;}.cls-8{letter-spacing:-0.01em;}.cls-9{letter-spacing:0em;}.cls-10{letter-spacing:0em;}.cls-11{font-size:18px;}.cls-11,.cls-21,.cls-39,.cls-45,.cls-51{fill:#6b6b6b;font-family:Esteban, Esteban;}.cls-12{letter-spacing:0em;}.cls-13{letter-spacing:-0.04em;}.cls-14{letter-spacing:-0.01em;}.cls-15{letter-spacing:-0.03em;}.cls-16{letter-spacing:-0.01em;}.cls-17{letter-spacing:-0.06em;}.cls-18{letter-spacing:-0.01em;}.cls-19{letter-spacing:-0.02em;}.cls-20{letter-spacing:-0.01em;}.cls-21,.cls-37{font-size:14px;}.cls-22{letter-spacing:-0.01em;}.cls-23{letter-spacing:0em;}.cls-24{letter-spacing:-0.01em;}.cls-25{letter-spacing:-0.03em;}.cls-26{letter-spacing:-0.01em;}.cls-27{letter-spacing:-0.01em;}.cls-29{letter-spacing:-0.01em;}.cls-30{letter-spacing:0.01em;}.cls-31{letter-spacing:-0.02em;}.cls-32{letter-spacing:-0.01em;}.cls-33{letter-spacing:-0.01em;}.cls-34{letter-spacing:-0.02em;}.cls-35{letter-spacing:-0.01em;}.cls-36{letter-spacing:-0.01em;}.cls-40{letter-spacing:-0.04em;}.cls-41{letter-spacing:-0.04em;}.cls-42{letter-spacing:-0.02em;}.cls-43{letter-spacing:-0.04em;}.cls-44{letter-spacing:-0.05em;}.cls-45{font-size:12px;}.cls-46{letter-spacing:-0.02em;}.cls-47{letter-spacing:-0.01em;}.cls-48{letter-spacing:-0.02em;}.cls-49{letter-spacing:-0.01em;}.cls-50{letter-spacing:-0.01em;}.cls-51{font-size:13px;}.cls-52{letter-spacing:-0.01em;}.cls-53{letter-spacing:0em;}.cls-54{letter-spacing:-0.01em;}.cls-55{letter-spacing:-0.02em;}.cls-56{letter-spacing:-0.01em;}.cls-57{letter-spacing:0.01em;}.cls-58{fill:#ff7726;}.cls-59{letter-spacing:-0.01em;}.cls-60{fill:#3b5998;}.cls-61{fill:#ddddce;}.cls-62{fill:#f7f7ed;}.cls-63{fill:#d4145a;}.cls-64{fill:#ce999d;}</style></defs><title>submeet competitive analysis</title><rect class="cls-1" x="0.5" y="30.97" width="1085.77" height="768.49"/><line class="cls-2" x1="0.5" y1="154.26" x2="1086.27" y2="154.26"/><line class="cls-2" x1="0.5" y1="284.74" x2="1086.27" y2="284.74"/><line class="cls-2" x1="0.5" y1="415.22" x2="1086.27" y2="415.22"/><line class="cls-2" x1="0.5" y1="545.7" x2="1086.27" y2="545.7"/><line class="cls-2" x1="0.5" y1="676.17" x2="1086.27" y2="676.17"/><text class="cls-3" transform="translate(631.41 20.4)">St<tspan class="cls-4" x="25.75" y="0">r</tspan><tspan x="35.88" y="0">e</tspan><tspan class="cls-5" x="51.02" y="0">n</tspan><tspan class="cls-6" x="67.75" y="0">gths</tspan></text><text class="cls-3" transform="translate(893.97 20.4)"><tspan class="cls-7">W</tspan><tspan class="cls-8" x="26.59" y="0">e</tspan><tspan x="41.38" y="0">a</tspan><tspan class="cls-9" x="56.18" y="0">k</tspan><tspan class="cls-5" x="71.93" y="0">n</tspan><tspan x="88.66" y="0">esses</tspan></text><text class="cls-3" transform="translate(342.93 20.4)">Desc<tspan class="cls-10" x="61.9" y="0">r</tspan><tspan class="cls-6" x="72.14" y="0">iption</tspan></text><g id="Descriptions"><text class="cls-11" transform="translate(342.93 70.13)">Social media g<tspan class="cls-12" x="113.45" y="0">r</tspan><tspan x="120.74" y="0">oups </tspan><tspan x="0" y="21.6">- </tspan><tspan class="cls-13" x="12.38" y="21.6">F</tspan><tspan x="21.4" y="21.6">or Sale at CMU</tspan><tspan x="0" y="43.2">- </tspan><tspan class="cls-12" x="12.38" y="43.2">S</tspan><tspan x="21.91" y="43.2">ubletting at CMU</tspan></text><text class="cls-11" transform="translate(342.93 198)">Helps people find <tspan x="0" y="21.6">temporary housing</tspan><tspan x="0" y="43.2">used for tr</tspan><tspan class="cls-14" x="82.33" y="43.2">a</tspan><tspan x="90.77" y="43.2">veling</tspan><tspan class="cls-15" x="139.44" y="43.2">/</tspan><tspan x="146.07" y="43.2">short</tspan><tspan x="0" y="64.8">term usual</tspan><tspan class="cls-16" x="86.04" y="64.8">l</tspan><tspan x="91.04" y="64.8">y</tspan></text><text class="cls-11" transform="translate(338.32 325.88)">All services for college <tspan x="0" y="21.6">students ranging f</tspan><tspan class="cls-12" x="144.29" y="21.6">r</tspan><tspan x="151.58" y="21.6">om </tspan><tspan x="0" y="43.2">housing to G</tspan><tspan class="cls-17" x="100.33" y="43.2">P</tspan><tspan x="109.13" y="43.2">A calculator</tspan></text><text class="cls-11" transform="translate(338.32 709.5)">Hearing about a <tspan x="0" y="21.6">subletter</tspan><tspan x="0" y="43.2">th</tspan><tspan class="cls-12" x="17.15" y="43.2">r</tspan><tspan x="24.44" y="43.2">ough common </tspan><tspan x="0" y="64.8">connections</tspan></text><text class="cls-11" transform="translate(338.32 581.62)"><tspan class="cls-18">P</tspan><tspan x="9.63" y="0">aper posts on </tspan><tspan x="0" y="21.6">community</tspan><tspan x="0" y="43.2">bulletin boards</tspan></text><text class="cls-11" transform="translate(338.32 453.75)">A<tspan class="cls-12" x="12.08" y="0">d</tspan><tspan x="22.25" y="0">vertisements website </tspan><tspan x="0" y="21.6">with sections d</tspan><tspan class="cls-19" x="120.22" y="21.6">e</tspan><tspan class="cls-20" x="128.66" y="21.6">v</tspan><tspan x="138.08" y="21.6">oted to </tspan><tspan x="0" y="43.2">jobs, housing, for sale, </tspan><tspan x="0" y="64.8">etc. </tspan></text></g><g id="Strenghts"><text class="cls-21" transform="translate(612.84 48.72)">Good Reach<tspan x="0" y="33.6">Algorithm will make</tspan><tspan x="0" y="50.4">friend</tspan><tspan class="cls-22" x="37.88" y="50.4">&apos;</tspan><tspan x="39.97" y="50.4">s posts appear first on</tspan><tspan x="0" y="67.2">g</tspan><tspan class="cls-23" x="7" y="67.2">r</tspan><tspan x="12.67" y="67.2">oup feeds. M</tspan><tspan class="cls-24" x="90.19" y="67.2">a</tspan><tspan x="96.71" y="67.2">y be beneficial</tspan><tspan x="0" y="84">for successful subletting </tspan><tspan x="0" y="100.8">(establishment of trus</tspan><tspan class="cls-25" x="136.01" y="100.8">t</tspan><tspan x="140.53" y="100.8">)</tspan></text><text class="cls-21" transform="translate(612.84 194.95)">Trusted<tspan x="0" y="33.6">Net</tspan><tspan class="cls-26" x="22.15" y="33.6">w</tspan><tspan x="33.47" y="33.6">ork a</tspan><tspan class="cls-23" x="64.01" y="33.6">r</tspan><tspan x="69.68" y="33.6">ound the </tspan><tspan class="cls-27" x="128.25" y="33.6">w</tspan><tspan x="139.58" y="33.6">o</tspan><tspan class="cls-23" x="146.81" y="33.6">r</tspan><tspan x="152.48" y="33.6">ld</tspan><tspan class="cls-28"><tspan class="cls-29" x="0" y="67.2">F</tspan><tspan class="cls-30" x="8.74" y="67.2">a</tspan><tspan x="17.46" y="67.2">cilita</tspan><tspan class="cls-31" x="53.1" y="67.2">t</tspan><tspan x="58.95" y="67.2">es </tspan><tspan class="cls-32" x="79.18" y="67.2">p</tspan><tspan class="cls-33" x="88.72" y="67.2">a</tspan><tspan x="97.21" y="67.2">y</tspan><tspan class="cls-30" x="105.59" y="67.2">m</tspan><tspan x="120.36" y="67.2">ent</tspan></tspan></text><text class="cls-21" transform="translate(612.84 315.02)">Ma<tspan class="cls-34" x="18.93" y="0">n</tspan><tspan x="27.02" y="0">y different services aimed</tspan><tspan x="0" y="16.8">t</tspan><tspan class="cls-35" x="5.01" y="16.8">o</tspan><tspan class="cls-36" x="12.07" y="16.8">w</tspan><tspan x="23.37" y="16.8">ards college students </tspan><tspan x="0" y="50.4">Requires p</tspan><tspan class="cls-23" x="65.36" y="50.4">r</tspan><tspan x="71.03" y="50.4">operty manager for </tspan><tspan x="0" y="67.2">verification</tspan></text><text class="cls-37" transform="translate(605.73 706.13)"><tspan class="cls-38">TRU<tspan class="cls-33" x="29.97" y="0">S</tspan><tspan x="38.76" y="0">T + </tspan><tspan class="cls-30" x="63.73" y="0">a</tspan><tspan class="cls-26" x="72.45" y="0">cc</tspan><tspan x="88.8" y="0">ountibili</tspan><tspan class="cls-33" x="149.87" y="0">t</tspan><tspan x="155.82" y="0">y </tspan></tspan><tspan class="cls-39"><tspan class="cls-40" x="0" y="16.8">(</tspan><tspan x="4.03" y="16.8">usual</tspan><tspan class="cls-36" x="37.16" y="16.8">l</tspan><tspan x="41.05" y="16.8">y subletter and </tspan><tspan x="0" y="33.6">subleaser separated by small</tspan><tspan x="0" y="50.4">degree of separatio</tspan><tspan class="cls-41" x="116.04" y="50.4">n</tspan><tspan x="123.92" y="50.4">)</tspan></tspan></text><text class="cls-11" transform="translate(612.84 581.62)">Ea<tspan class="cls-9" x="19.64" y="0">s</tspan><tspan x="27.25" y="0">y to do </tspan><tspan class="cls-42" x="85" y="0">(</tspan><tspan x="90.56" y="0">for </tspan><tspan x="0" y="21.6">sublette</tspan><tspan class="cls-43" x="63.57" y="21.6">r</tspan><tspan x="70.22" y="21.6">)</tspan></text><text class="cls-11" transform="translate(612.84 453.75)">Well established <tspan class="cls-44" x="0" y="21.6">(</tspan><tspan x="5.08" y="21.6">since 1995)</tspan></text></g><g id="Weaknesses"><text class="cls-45" transform="translate(870.31 54.05)">Because of the social media <tspan x="0" y="14.4">feed format, there are no good</tspan><tspan x="0" y="28.8">filtering methods</tspan><tspan class="cls-46" x="0" y="57.6">N</tspan><tspan x="8.68" y="57.6">o real verification p</tspan><tspan class="cls-47" x="111.02" y="57.6">r</tspan><tspan x="115.88" y="57.6">ocess,</tspan><tspan x="0" y="72">a</tspan><tspan class="cls-48" x="5.76" y="72">n</tspan><tspan class="cls-49" x="12.7" y="72">y</tspan><tspan x="19.07" y="72">one can post, do</tspan><tspan class="cls-50" x="103.37" y="72">n</tspan><tspan x="110.48" y="72">&apos;t </tspan><tspan class="cls-46" x="119.49" y="72">e</tspan><tspan x="125.12" y="72">ven h</tspan><tspan class="cls-14" x="154.49" y="72">a</tspan><tspan x="160.11" y="72">ve</tspan><tspan x="0" y="86.4">to r</tspan><tspan class="cls-46" x="18.25" y="86.4">e</tspan><tspan x="23.88" y="86.4">veal their address </tspan></text><text class="cls-51" transform="translate(870.31 194.18)">Harder to find long term l<tspan class="cls-52" x="147.34" y="0">i</tspan><tspan x="151.12" y="0">ving </tspan><tspan x="0" y="15.6">situations</tspan></text><text class="cls-11" transform="translate(863.19 709.5)">Small Reach</text><text class="cls-11" transform="translate(870.31 581.62)">Small Reach</text><text class="cls-11" transform="translate(870.31 453.75)"><tspan class="cls-19">U</tspan><tspan class="cls-53" x="12.51" y="0">ntrust</tspan><tspan class="cls-49" x="61.83" y="0">w</tspan><tspan x="76.39" y="0">orthy</tspan></text><text class="cls-45" transform="translate(870.31 317.52)">Need to email to check <tspan class="cls-14" x="122.48" y="0">a</tspan><tspan class="cls-4" x="128.11" y="0">v</tspan><tspan x="134.36" y="0">ailability</tspan><tspan x="0" y="14.4">no calendar sh</tspan><tspan class="cls-54" x="76.51" y="14.4">o</tspan><tspan x="82.56" y="14.4">wing </tspan><tspan class="cls-14" x="112.01" y="14.4">a</tspan><tspan class="cls-4" x="117.63" y="14.4">v</tspan><tspan x="123.89" y="14.4">ailability</tspan><tspan class="cls-28"><tspan x="0" y="43.2">Need </tspan><tspan class="cls-55" x="36.54" y="43.2">t</tspan><tspan x="41.55" y="43.2">o </tspan><tspan class="cls-4" x="52.81" y="43.2">p</tspan><tspan class="cls-56" x="60.98" y="43.2">a</tspan><tspan x="68.27" y="43.2">y Uloop </tspan><tspan class="cls-5" x="119.3" y="43.2">m</tspan><tspan x="131.96" y="43.2">o</tspan><tspan class="cls-57" x="139.82" y="43.2">n</tspan><tspan class="cls-33" x="148.19" y="43.2">e</tspan><tspan x="155.64" y="43.2">y </tspan><tspan class="cls-55" x="166.21" y="43.2">t</tspan><tspan x="171.23" y="43.2">o </tspan><tspan x="0" y="57.6">post listi</tspan><tspan class="cls-5" x="53.56" y="57.6">n</tspan><tspan x="61.92" y="57.6">g ($50 o</tspan><tspan class="cls-57" x="112.2" y="57.6">n</tspan><tspan x="120.56" y="57.6">e ti</tspan><tspan class="cls-5" x="140.36" y="57.6">m</tspan><tspan x="153.02" y="57.6">e </tspan><tspan x="0" y="72">listi</tspan><tspan class="cls-5" x="22.43" y="72">n</tspan><tspan x="30.79" y="72">g)</tspan></tspan></text></g><text class="cls-58" transform="translate(130.49 615.44)"><tspan class="cls-8">P</tspan><tspan x="17.21" y="0">aper</tspan></text><text class="cls-58" transform="translate(130.49 736.61)"><tspan class="cls-7">W</tspan><tspan class="cls-6" x="26.59" y="0">o</tspan><tspan class="cls-59" x="42.31" y="0">r</tspan><tspan x="52.44" y="0">d of</tspan><tspan x="0" y="28.8">Mouth</tspan></text><path class="cls-60" d="M214.39,66.51H146.68a14,14,0,0,0-14,14v67.7a14,14,0,0,0,14,14h28.24V128.42H163.7V111.58h11.22V100.17a16.85,16.85,0,0,1,16.84-16.83h17v16.83h-17v11.41h17L206,128.42H191.76v33.85h22.63a14,14,0,0,0,14-14V80.54A14,14,0,0,0,214.39,66.51Z" transform="translate(-36.04 -21.4)"/><image width="1600" height="1200" transform="translate(73.08 167.98) scale(0.09)" xlink:href="../../../../../../Downloads/airbnb-logo.png"/><image width="256" height="256" transform="translate(96.62 299.6) scale(0.37)" xlink:href="../../../../../../Downloads/uloop.png"/><image width="2400" height="612" transform="translate(24.37 438.47) scale(0.12)" xlink:href="../../../../../../Downloads/craigslist-logo-png-transparent.png"/><rect class="cls-61" x="32.85" y="567.87" width="60.45" height="86.97"/><rect class="cls-62" x="66.39" y="580.02" width="60.45" height="86.97"/><circle class="cls-63" cx="96" cy="590.86" r="3.2"/><circle class="cls-63" cx="63.07" cy="574.81" r="3.2"/><path class="cls-64" d="M151.35,758.12c-1.79-.72-4.41-4.12-7.19-7.73-5-6.55-10.77-14-16.94-14a17.16,17.16,0,0,0-14.13,7.09c-1.72-1.94-6.43-6.43-13-6.43-5.2,0-11.53,7.44-17.12,14-3.22,3.78-6.27,7.36-7.9,7.91a.8.8,0,0,0-.08,1.48c2.73,1.28,5.53,4.76,8.78,8.78,4.53,5.64,9.67,12,16.5,14.64a37.65,37.65,0,0,0,13.67,2.37,74.69,74.69,0,0,0,13-1.37c6.07-1.1,15.15-13.16,20.56-20.37a47.86,47.86,0,0,1,4-5,.8.8,0,0,0-.1-1.43ZM143,760.48c-3.6,2.38-12.62,7.23-27,7.9A56,56,0,0,1,85.26,761a32.44,32.44,0,0,0,8.39-3.62c2.78-1.54,5.18-2.87,7.68-2.87a28,28,0,0,1,8.61,1.81,14.25,14.25,0,0,0,4.67,1.07,20.36,20.36,0,0,0,4-1,30.27,30.27,0,0,1,8.29-1.6c2.08,0,4.74,1.24,7.55,2.55A34,34,0,0,0,143,760.48Z" transform="translate(-36.04 -21.4)"/></svg>