<svg id="Layer_1" data-name="Layer 1" xmlns="http://www.w3.org/2000/svg" xmlns:xlink="http://www.w3.org/1999/xlink" viewBox="0 0 452.5 441.64"><defs><style>.cls-1{fill:none;}.cls-2{font-size:24px;}.cls-2,.cls-3,.cls-7{fill:#21b9b3;}.cls-13,.cls-2,.cls-3{font-family:Montserrat-Bold, Montserrat;font-weight:700;}.cls-3{font-size:20px;}.cls-4{letter-spacing:0.01em;}.cls-5{letter-spacing:0em;}.cls-6{clip-path:url(#clip-path);}.cls-13,.cls-20,.cls-8{font-size:12px;fill:#fff;}.cls-8{font-family:Montserrat-Medium, Montserrat;}.cls-9{letter-spacing:0em;}.cls-10{letter-spacing:-0.01em;}.cls-11{letter-spacing:-0.01em;}.cls-12{letter-spacing:0em;}.cls-14{letter-spacing:-0.01em;}.cls-15{letter-spacing:0.01em;}.cls-16{letter-spacing:-0.02em;}.cls-17{letter-spacing:0em;}.cls-18{letter-spacing:0.01em;}.cls-19{letter-spacing:-0.01em;}.cls-20{font-family:Montserrat-Regular, Montserrat;}.cls-21{letter-spacing:0em;}.cls-22{letter-spacing:0em;}.cls-23{letter-spacing:-0.01em;}.cls-24{letter-spacing:-0.01em;}.cls-25{letter-spacing:-0.02em;}.cls-26{letter-spacing:0em;}.cls-27{letter-spacing:-0.01em;}.cls-28{letter-spacing:-0.02em;}.cls-29{letter-spacing:-0.01em;}.cls-30{letter-spacing:-0.01em;}.cls-31{letter-spacing:-0.01em;}.cls-32{letter-spacing:0em;}.cls-33{letter-spacing:0em;}.cls-34{letter-spacing:0em;}.cls-35{letter-spacing:-0.02em;}.cls-36{letter-spacing:0.01em;}.cls-37{letter-spacing:0.01em;}.cls-38{letter-spacing:-0.01em;}.cls-39{letter-spacing:-0.01em;}.cls-40{letter-spacing:-0.01em;}.cls-41{letter-spacing:-0.02em;}.cls-42{letter-spacing:-0.01em;}.cls-43{letter-spacing:-0.02em;}.cls-44{letter-spacing:-0.02em;}.cls-45{letter-spacing:0.02em;}.cls-46{letter-spacing:-0.03em;}.cls-47{letter-spacing:0em;}.cls-48{letter-spacing:-0.01em;}.cls-49{letter-spacing:0em;}.cls-50{letter-spacing:0.01em;}.cls-51{letter-spacing:0.01em;}.cls-52{letter-spacing:-0.02em;}.cls-53{letter-spacing:-0.01em;}.cls-54{letter-spacing:-0.01em;}.cls-55{letter-spacing:-0.02em;}.cls-56{letter-spacing:0em;}</style><clipPath id="clip-path" transform="translate(-335.17 -167.36)"><rect class="cls-1" x="313" y="158" width="503.17" height="451"/></clipPath></defs><title>UserInsights</title><text class="cls-2" transform="translate(0 20.87)">Insight</text><text class="cls-3" transform="translate(236 17)">Design Cha<tspan class="cls-4" x="120.08" y="0">n</tspan><tspan class="cls-5" x="134" y="0">ge</tspan></text><g class="cls-6"><path class="cls-7" d="M347.67,224.5s-12,0-12,12V332s0,12,12,12h192.5s12,0,12-12V236.5s0-12-12-12Z" transform="translate(-335.17 -167.36)"/><path class="cls-7" d="M583.17,224.5s-12,0-12,12V332s0,12,12,12h192.5s12,0,12-12V236.5s0-12-12-12Z" transform="translate(-335.17 -167.36)"/></g><text class="cls-8" transform="translate(7 74.26)">Use<tspan class="cls-9" x="22.85" y="0">r</tspan><tspan x="27.74" y="0">s </tspan><tspan class="cls-10" x="36.98" y="0">w</tspan><tspan x="47.59" y="0">e</tspan><tspan class="cls-11" x="54.94" y="0">r</tspan><tspan class="cls-12" x="59.72" y="0">e </tspan></text><text class="cls-13" transform="translate(77.27 74.26)"><tspan class="cls-14">c</tspan><tspan x="7.02" y="0">onfused about </tspan></text><text class="cls-13" transform="translate(7 88.66)">t<tspan class="cls-15" x="5.22" y="0">h</tspan><tspan x="13.58" y="0">e </tspan><tspan class="cls-14" x="24.55" y="0">c</tspan><tspan x="31.57" y="0">on</tspan><tspan class="cls-16" x="47.72" y="0">t</tspan><tspan class="cls-12" x="52.74" y="0">ents of t</tspan><tspan class="cls-4" x="104.71" y="0">h</tspan><tspan x="113.06" y="0">e </tspan><tspan class="cls-17" x="124.03" y="0">h</tspan><tspan class="cls-12" x="132.38" y="0">o</tspan><tspan class="cls-18" x="140.24" y="0">m</tspan><tspan class="cls-12" x="152.9" y="0">e </tspan></text><text class="cls-13" transform="translate(7 103.06)"><tspan class="cls-19">p</tspan><tspan class="cls-18" x="8.18" y="0">a</tspan><tspan x="15.66" y="0">ge.</tspan></text><text class="cls-20" transform="translate(41.76 103.06)"> </text><text class="cls-8" transform="translate(44.91 103.06)">W<tspan class="cls-21" x="13.51" y="0">h</tspan><tspan class="cls-12" x="21.72" y="0">en use</tspan><tspan class="cls-22" x="61.94" y="0">r</tspan><tspan x="66.83" y="0">s </tspan><tspan class="cls-23" x="76.07" y="0">w</tspan><tspan class="cls-12" x="86.69" y="0">e</tspan><tspan class="cls-24" x="94.03" y="0">r</tspan><tspan class="cls-12" x="98.82" y="0">e tas</tspan><tspan class="cls-25" x="127.55" y="0">k</tspan><tspan x="134.67" y="0">ed </tspan></text><text class="cls-8" transform="translate(7 117.46)">with signi<tspan class="cls-26" x="59.66" y="0">n</tspan><tspan class="cls-12" x="67.86" y="0">g up as a suble</tspan><tspan class="cls-27" x="158.73" y="0">t</tspan><tspan class="cls-28" x="163.55" y="0">t</tspan><tspan x="168.31" y="0">e</tspan><tspan class="cls-29" x="175.65" y="0">r</tspan><tspan x="180.47" y="0">, </tspan></text><text class="cls-8" transform="translate(7 131.86)">t<tspan class="cls-21" x="4.97" y="0">h</tspan><tspan class="cls-30" x="13.18" y="0">e</tspan><tspan x="20.4" y="0">y </tspan><tspan class="cls-31" x="30.34" y="0">w</tspan><tspan x="40.96" y="0">o</tspan><tspan class="cls-26" x="48.58" y="0">n</tspan><tspan x="56.77" y="0">de</tspan><tspan class="cls-11" x="72.3" y="0">r</tspan><tspan x="77.09" y="0">ed w</tspan><tspan class="cls-29" x="106.63" y="0">h</tspan><tspan x="114.69" y="0">y t</tspan><tspan class="cls-21" x="129.6" y="0">h</tspan><tspan class="cls-32" x="137.81" y="0">e </tspan><tspan class="cls-33" x="148.38" y="0">h</tspan><tspan class="cls-32" x="156.57" y="0">o</tspan><tspan class="cls-26" x="164.19" y="0">m</tspan><tspan class="cls-12" x="176.9" y="0">e </tspan></text><text class="cls-8" transform="translate(7 146.26)"><tspan class="cls-34">p</tspan><tspan class="cls-21" x="8.14" y="0">a</tspan><tspan x="15.35" y="0">ge s</tspan><tspan class="cls-21" x="40.21" y="0">h</tspan><tspan class="cls-35" x="48.42" y="0">ow</tspan><tspan class="cls-12" x="66.47" y="0">ed t</tspan><tspan class="cls-21" x="90.19" y="0">h</tspan><tspan class="cls-12" x="98.4" y="0">em listi</tspan><tspan class="cls-26" x="142.68" y="0">n</tspan><tspan class="cls-12" x="150.87" y="0">gs of </tspan></text><text class="cls-8" transform="translate(7 160.66)">p<tspan class="cls-24" x="8.18" y="0">r</tspan><tspan x="12.97" y="0">ope</tspan><tspan class="cls-36" x="36.12" y="0">r</tspan><tspan class="cls-12" x="41.22" y="0">ties.</tspan></text><text class="cls-8" transform="translate(244.74 74.26)">C<tspan class="cls-11" x="8.68" y="0">r</tspan><tspan class="cls-23" x="13.46" y="0">e</tspan><tspan x="20.64" y="0">a</tspan><tspan class="cls-28" x="27.82" y="0">t</tspan><tspan x="32.58" y="0">e an a</tspan><tspan class="cls-37" x="68.9" y="0">l</tspan><tspan class="cls-28" x="72.4" y="0">t</tspan><tspan x="77.16" y="0">e</tspan><tspan class="cls-38" x="84.5" y="0">r</tspan><tspan class="cls-12" x="89.35" y="0">nati</tspan><tspan class="cls-39" x="113.01" y="0">v</tspan><tspan class="cls-12" x="119.55" y="0">e </tspan><tspan class="cls-39" x="130.13" y="0">v</tspan><tspan x="136.67" y="0">e</tspan><tspan class="cls-9" x="144.01" y="0">r</tspan><tspan x="148.91" y="0">sion </tspan></text><text class="cls-8" transform="translate(244.74 88.66)">with </text><text class="cls-13" transform="translate(275.25 88.66)">dif<tspan class="cls-40" x="16.56" y="0">f</tspan><tspan x="21.12" y="0">e</tspan><tspan class="cls-29" x="28.69" y="0">r</tspan><tspan class="cls-12" x="33.76" y="0">ent </tspan><tspan class="cls-14" x="58.24" y="0">c</tspan><tspan x="65.26" y="0">on</tspan><tspan class="cls-41" x="81.41" y="0">t</tspan><tspan class="cls-12" x="86.42" y="0">ent </tspan><tspan class="cls-38" x="110.9" y="0">f</tspan><tspan x="115.47" y="0">or </tspan></text><text class="cls-13" transform="translate(244.74 103.06)">suble<tspan class="cls-42" x="34.08" y="0">t</tspan><tspan class="cls-43" x="39.16" y="0">t</tspan><tspan x="44.18" y="0">er a</tspan><tspan class="cls-4" x="67.73" y="0">n</tspan><tspan x="76.08" y="0">d subl</tspan><tspan class="cls-35" x="114.29" y="0">e</tspan><tspan class="cls-12" x="121.68" y="0">ase</tspan><tspan class="cls-29" x="143.03" y="0">r</tspan><tspan class="cls-32" x="148.09" y="0">.</tspan></text><text class="cls-8" transform="translate(244.74 131.86)">Use<tspan class="cls-9" x="22.85" y="0">r</tspan><tspan x="27.74" y="0">s can </tspan></text><text class="cls-13" transform="translate(307.14 131.86)"><tspan class="cls-28">t</tspan><tspan x="5.02" y="0">oggle</tspan></text><text class="cls-8" transform="translate(348 131.86)"><tspan xml:space="preserve"> be</tspan><tspan class="cls-29" x="18.76" y="0">t</tspan><tspan class="cls-39" x="23.62" y="0">w</tspan><tspan class="cls-12" x="34.24" y="0">een t</tspan><tspan class="cls-21" x="65.29" y="0">h</tspan><tspan class="cls-32" x="73.5" y="0">e </tspan></text><text class="cls-8" transform="translate(244.74 146.26)"><tspan class="cls-29">t</tspan><tspan class="cls-39" x="4.86" y="0">w</tspan><tspan x="15.48" y="0">o </tspan><tspan class="cls-26" x="26.33" y="0">m</tspan><tspan class="cls-32" x="39.04" y="0">odes.</tspan></text><g class="cls-6"><path class="cls-7" d="M347.67,357s-12,0-12,12v95.5s0,12,12,12h192.5s12,0,12-12V369s0-12-12-12Z" transform="translate(-335.17 -167.36)"/></g><text class="cls-13" transform="translate(9.25 206.76)"><tspan class="cls-35">P</tspan><tspan class="cls-29" x="8.6" y="0">a</tspan><tspan x="15.9" y="0">y</tspan><tspan class="cls-4" x="23.08" y="0">m</tspan><tspan x="35.72" y="0">ent tab </tspan><tspan class="cls-44" x="84.5" y="0">w</tspan><tspan x="95.53" y="0">as </tspan><tspan class="cls-18" x="112.7" y="0">n</tspan><tspan x="121.07" y="0">ot </tspan></text><text class="cls-13" transform="translate(9.25 221.16)"><tspan class="cls-18">n</tspan><tspan class="cls-12" x="8.36" y="0">e</tspan><tspan class="cls-38" x="15.94" y="0">c</tspan><tspan class="cls-12" x="22.96" y="0">essa</tspan><tspan class="cls-45" x="50.68" y="0">r</tspan><tspan class="cls-46" x="56.03" y="0">y</tspan><tspan x="62.83" y="0">, </tspan></text><text class="cls-8" transform="translate(78.6 221.16)">use<tspan class="cls-47" x="21.48" y="0">r</tspan><tspan class="cls-12" x="26.38" y="0">s did </tspan><tspan class="cls-33" x="58.56" y="0">n</tspan><tspan class="cls-32" x="66.76" y="0">ot </tspan></text><text class="cls-8" transform="translate(9.25 235.56)">u<tspan class="cls-21" x="8.12" y="0">n</tspan><tspan class="cls-32" x="16.33" y="0">de</tspan><tspan class="cls-47" x="31.86" y="0">r</tspan><tspan class="cls-12" x="36.76" y="0">sta</tspan><tspan class="cls-33" x="54.91" y="0">n</tspan><tspan class="cls-32" x="63.11" y="0">d what t</tspan><tspan class="cls-33" x="113.82" y="0">h</tspan><tspan class="cls-32" x="122.01" y="0">e $ i</tspan><tspan class="cls-48" x="146.61" y="0">c</tspan><tspan x="153.37" y="0">on </tspan></text><text class="cls-8" transform="translate(9.25 249.96)"><tspan class="cls-49">m</tspan><tspan class="cls-35" x="12.72" y="0">e</tspan><tspan x="19.88" y="0">an</tspan><tspan class="cls-50" x="35.23" y="0">t</tspan><tspan class="cls-12" x="40.31" y="0">.</tspan></text><g class="cls-6"><path class="cls-7" d="M583.17,357s-12,0-12,12v95.5s0,12,12,12h192.5s12,0,12-12V369s0-12-12-12Z" transform="translate(-335.17 -167.36)"/></g><text class="cls-13" transform="translate(244.75 206.76)">In<tspan class="cls-41" x="12.23" y="0">t</tspan><tspan class="cls-12" x="17.24" y="0">eg</tspan><tspan class="cls-38" x="33.22" y="0">r</tspan><tspan class="cls-12" x="38.32" y="0">a</tspan><tspan class="cls-16" x="45.72" y="0">t</tspan><tspan class="cls-12" x="50.74" y="0">e </tspan><tspan class="cls-19" x="61.7" y="0">p</tspan><tspan class="cls-29" x="69.89" y="0">a</tspan><tspan x="77.18" y="0">y</tspan><tspan class="cls-4" x="84.36" y="0">m</tspan><tspan class="cls-12" x="97.01" y="0">ent di</tspan><tspan class="cls-29" x="133.4" y="0">r</tspan><tspan class="cls-12" x="138.47" y="0">e</tspan><tspan class="cls-51" x="146.04" y="0">c</tspan><tspan x="153.23" y="0">tly in</tspan><tspan class="cls-52" x="184.53" y="0">t</tspan><tspan class="cls-12" x="189.56" y="0">o </tspan></text><text class="cls-13" transform="translate(244.75 221.16)">t<tspan class="cls-4" x="5.22" y="0">h</tspan><tspan class="cls-12" x="13.57" y="0">e </tspan><tspan class="cls-22" x="24.54" y="0">c</tspan><tspan x="31.6" y="0">ha</tspan><tspan class="cls-53" x="47.29" y="0">t</tspan><tspan class="cls-12" x="52.37" y="0">ti</tspan><tspan class="cls-18" x="61.2" y="0">n</tspan><tspan class="cls-12" x="69.56" y="0">g </tspan><tspan class="cls-14" x="81.36" y="0">f</tspan><tspan class="cls-35" x="85.93" y="0">e</tspan><tspan x="93.32" y="0">atu</tspan><tspan class="cls-29" x="114.19" y="0">r</tspan><tspan x="119.25" y="0">e.</tspan></text><g class="cls-6"><path class="cls-7" d="M347.67,489.5s-12,0-12,12V597s0,12,12,12h192.5s12,0,12-12V501.5s0-12-12-12Z" transform="translate(-335.17 -167.36)"/></g><text class="cls-13" transform="translate(9.25 339.26)">Use<tspan class="cls-9" x="23.4" y="0">r</tspan><tspan class="cls-32" x="28.55" y="0">s did </tspan><tspan class="cls-17" x="61.93" y="0">n</tspan><tspan class="cls-12" x="70.28" y="0">ot ca</tspan><tspan class="cls-19" x="101.25" y="0">r</tspan><tspan x="106.33" y="0">e about </tspan></text><text class="cls-13" transform="translate(9.25 353.66)"><tspan class="cls-14">c</tspan><tspan x="7.02" y="0">e</tspan><tspan class="cls-45" x="14.59" y="0">r</tspan><tspan class="cls-32" x="19.94" y="0">tain p</tspan><tspan class="cls-29" x="56.15" y="0">r</tspan><tspan x="61.21" y="0">e</tspan><tspan class="cls-38" x="68.78" y="0">f</tspan><tspan class="cls-12" x="73.35" y="0">e</tspan><tspan class="cls-48" x="80.93" y="0">r</tspan><tspan class="cls-12" x="86" y="0">e</tspan><tspan class="cls-17" x="93.58" y="0">n</tspan><tspan class="cls-14" x="101.93" y="0">c</tspan><tspan x="108.95" y="0">es. </tspan></text><text class="cls-8" transform="translate(9.25 382.46)">Did <tspan class="cls-49" x="24.67" y="0">n</tspan><tspan x="32.88" y="0">ot ca</tspan><tspan class="cls-42" x="62.72" y="0">r</tspan><tspan class="cls-12" x="67.5" y="0">e w</tspan><tspan class="cls-21" x="88.86" y="0">h</tspan><tspan class="cls-12" x="97.07" y="0">et</tspan><tspan class="cls-26" x="109.38" y="0">h</tspan><tspan class="cls-12" x="117.57" y="0">er or </tspan><tspan class="cls-26" x="148.83" y="0">n</tspan><tspan x="157.03" y="0">ot </tspan></text><text class="cls-8" transform="translate(9.25 396.86)">t<tspan class="cls-21" x="4.97" y="0">h</tspan><tspan class="cls-12" x="13.18" y="0">eir suble</tspan><tspan class="cls-54" x="65.03" y="0">t</tspan><tspan class="cls-41" x="69.84" y="0">t</tspan><tspan class="cls-12" x="74.6" y="0">er </tspan><tspan class="cls-43" x="90.09" y="0">w</tspan><tspan x="100.69" y="0">as a mas</tspan><tspan class="cls-55" x="153.38" y="0">t</tspan><tspan class="cls-32" x="158.13" y="0">e</tspan><tspan class="cls-9" x="165.48" y="0">r</tspan><tspan x="170.37" y="0">s or </tspan></text><text class="cls-8" transform="translate(9.25 411.26)">an u<tspan class="cls-21" x="26.7" y="0">n</tspan><tspan x="34.91" y="0">de</tspan><tspan class="cls-42" x="50.44" y="0">r</tspan><tspan x="55.21" y="0">g</tspan><tspan class="cls-40" x="63.49" y="0">r</tspan><tspan class="cls-21" x="68.33" y="0">a</tspan><tspan x="75.54" y="0">dua</tspan><tspan class="cls-41" x="99.02" y="0">t</tspan><tspan x="103.79" y="0">e studen</tspan><tspan class="cls-50" x="157.16" y="0">t</tspan><tspan class="cls-12" x="162.24" y="0">.</tspan></text><g class="cls-6"><path class="cls-7" d="M583.17,489.5s-12,0-12,12V597s0,12,12,12h192.5s12,0,12-12V501.5s0-12-12-12Z" transform="translate(-335.17 -167.36)"/></g><text class="cls-13" transform="translate(244.75 339.26)"><tspan class="cls-56">A</tspan><tspan x="9.14" y="0">ddi</tspan><tspan class="cls-4" x="29.36" y="0">n</tspan><tspan x="37.72" y="0">g a </tspan><tspan class="cls-4" x="60.31" y="0">n</tspan><tspan x="68.66" y="0">o p</tspan><tspan class="cls-29" x="88.2" y="0">r</tspan><tspan x="93.26" y="0">e</tspan><tspan class="cls-14" x="100.83" y="0">f</tspan><tspan x="105.41" y="0">e</tspan><tspan class="cls-29" x="112.98" y="0">r</tspan><tspan x="118.04" y="0">e</tspan><tspan class="cls-4" x="125.61" y="0">n</tspan><tspan class="cls-14" x="133.97" y="0">c</tspan><tspan x="140.99" y="0">e option. </tspan></text><text class="cls-8" transform="translate(244.75 353.66)">Rethin<tspan class="cls-38" x="40.73" y="0">k</tspan><tspan x="48.05" y="0">i</tspan><tspan class="cls-26" x="51.4" y="0">n</tspan><tspan x="59.59" y="0">g t</tspan><tspan class="cls-33" x="76.07" y="0">h</tspan><tspan x="84.26" y="0">e p</tspan><tspan class="cls-24" x="103.02" y="0">r</tspan><tspan class="cls-12" x="107.81" y="0">e</tspan><tspan class="cls-19" x="115.15" y="0">f</tspan><tspan class="cls-32" x="119.29" y="0">e</tspan><tspan class="cls-11" x="126.63" y="0">r</tspan><tspan x="131.42" y="0">e</tspan><tspan class="cls-21" x="138.77" y="0">n</tspan><tspan class="cls-48" x="146.97" y="0">c</tspan><tspan x="153.73" y="0">e a</tspan><tspan class="cls-21" x="171.48" y="0">n</tspan><tspan x="179.69" y="0">d </tspan></text><text class="cls-8" transform="translate(244.75 368.06)">ma<tspan class="cls-41" x="19.86" y="0">t</tspan><tspan class="cls-14" x="24.62" y="0">c</tspan><tspan x="31.4" y="0">hi</tspan><tspan class="cls-33" x="42.92" y="0">n</tspan><tspan x="51.12" y="0">g c</tspan><tspan class="cls-38" x="69.48" y="0">r</tspan><tspan x="74.33" y="0">i</tspan><tspan class="cls-44" x="77.68" y="0">t</tspan><tspan class="cls-12" x="82.43" y="0">e</tspan><tspan class="cls-38" x="89.77" y="0">r</tspan><tspan class="cls-12" x="94.62" y="0">ia.</tspan></text></svg>