<?xml version="1.0"?>
<svg xmlns="http://www.w3.org/2000/svg" id="Layer_5" enable-background="new 0 0 64 64" height="512px" viewBox="0 0 64 64" width="512px"><g><path d="m41 34.829c0-2.112-1.717-3.829-3.829-3.829-1.022 0-1.984.398-2.707 1.122l-8.872 8.872c-1.202 1.202-2.641 2.152-4.206 2.804 1.009-1.34 1.614-2.997 1.614-4.798 0-4.411-3.589-8-8-8s-8 3.589-8 8c0 2.498 1.152 4.73 2.951 6.199-5.088.963-8.951 5.436-8.951 10.801v3.5c0 1.93 1.57 3.5 3.5 3.5h6.5 3.5 9.5v-8.964c0-.401.156-.777.439-1.061l15.439-15.439c.724-.724 1.122-1.685 1.122-2.707zm-32 4.171c0-3.309 2.691-6 6-6s6 2.691 6 6-2.691 6-6 6-6-2.691-6-6zm29.464-2.878-15.439 15.439c-.661.661-1.025 1.54-1.025 2.475v6.964h-4.351c.218-.456.351-.961.351-1.5 0-1.93-1.57-3.5-3.5-3.5h-8.5v2h8.5c.827 0 1.5.673 1.5 1.5s-.673 1.5-1.5 1.5h-3.5-6.5c-.827 0-1.5-.673-1.5-1.5v-3.5c0-4.962 4.038-9 9-9h4l2.522-.35c3.192-.456 6.205-1.963 8.485-4.243l8.872-8.872c.345-.345.804-.535 1.292-.535 1.009 0 1.829.82 1.829 1.829 0 .488-.19.947-.536 1.293z" data-original="#000000" class="active-path" data-old_color="#000000" fill="#59822F"/><path d="m58 7h-20c-2.757 0-5 2.243-5 5v12c0 2.757 2.243 5 5 5h10v4.723l8.266-4.723h1.734c2.757 0 5-2.243 5-5v-12c0-2.757-2.243-5-5-5zm3 17c0 1.654-1.346 3-3 3h-2.266l-5.734 3.277v-3.277h-12c-1.654 0-3-1.346-3-3v-12c0-1.654 1.346-3 3-3h20c1.654 0 3 1.346 3 3z" data-original="#000000" class="active-path" data-old_color="#000000" fill="#59822F"/><path d="m58 45h-5.734l-8.266-4.723v4.723h-6c-2.757 0-5 2.243-5 5v8c0 2.757 2.243 5 5 5h20c2.757 0 5-2.243 5-5v-8c0-2.757-2.243-5-5-5zm3 13c0 1.654-1.346 3-3 3h-20c-1.654 0-3-1.346-3-3v-8c0-1.654 1.346-3 3-3h8v-3.277l5.734 3.277h6.266c1.654 0 3 1.346 3 3z" data-original="#000000" class="active-path" data-old_color="#000000" fill="#59822F"/><path d="m6 23h1.734l8.266 4.723v-4.723h10c2.757 0 5-2.243 5-5v-12c0-2.757-2.243-5-5-5h-20c-2.757 0-5 2.243-5 5v12c0 2.757 2.243 5 5 5zm-3-17c0-1.654 1.346-3 3-3h20c1.654 0 3 1.346 3 3v12c0 1.654-1.346 3-3 3h-12v3.277l-5.734-3.277h-2.266c-1.654 0-3-1.346-3-3z" data-original="#000000" class="active-path" data-old_color="#000000" fill="#59822F"/><path d="m45 21.586-3.293-3.293-1.414 1.414 4.707 4.707 11.707-11.707-1.414-1.414z" data-original="#000000" class="active-path" data-old_color="#000000" fill="#59822F"/><path d="m9.707 19.707 6.293-6.293 6.293 6.293 1.414-1.414-6.293-6.293 6.293-6.293-1.414-1.414-6.293 6.293-6.293-6.293-1.414 1.414 6.293 6.293-6.293 6.293z" data-original="#000000" class="active-path" data-old_color="#000000" fill="#59822F"/><path d="m37 59h10v-10h-10zm2-8h6v6h-6z" data-original="#000000" class="active-path" data-old_color="#000000" fill="#59822F"/><path d="m49 49h10v2h-10z" data-original="#000000" class="active-path" data-old_color="#000000" fill="#59822F"/><path d="m49 53h10v2h-10z" data-original="#000000" class="active-path" data-old_color="#000000" fill="#59822F"/><path d="m49 57h10v2h-10z" data-original="#000000" class="active-path" data-old_color="#000000" fill="#59822F"/></g> </svg>
